<svg width="235" height="177" viewBox="0 0 235 177" fill="none" xmlns="http://www.w3.org/2000/svg">
<path d="M70.5588 140.083L44.979 126.075C50.854 117.104 51.3005 111.984 52.3051 104.857C55.5305 82.0535 78.1551 67.4991 95.7508 55.5045C97.2327 54.4603 98.7681 53.4942 100.351 52.6101C102.225 51.6061 107.401 48.5003 108.782 51.3713C110.092 54.1248 106.843 59.1387 105.221 61.1525C106.286 59.5574 107.464 58.0407 108.746 56.6141C109.146 56.0817 109.7 55.6843 110.333 55.4752C111.508 55.2051 112.647 56.3323 112.829 57.5242C113.012 58.716 112.512 59.9078 111.96 60.9881C110.651 63.5786 109.014 65.9899 107.09 68.1626C108.382 66.7065 113.158 61.2229 113.059 66.7711C112.978 70.2678 111.519 73.5913 108.999 76.0181C110.094 75.0507 111.273 74.1842 112.524 73.4289C112.701 73.2889 112.905 73.1873 113.124 73.1306C113.342 73.074 113.57 73.0636 113.793 73.1001C114.029 73.2141 114.231 73.387 114.38 73.6019C114.529 73.8169 114.62 74.0667 114.645 74.3272C115.444 77.8851 113.47 80.4272 112.107 83.4684C111.055 85.8169 110.438 88.0655 109.093 90.3493C104.234 98.6041 99.1759 104.334 93.6123 112.137C92.2375 114.145 70.6351 140.118 70.5588 140.083Z" fill="white"/>
<path d="M70.5297 140.377C70.495 140.372 70.4613 140.363 70.4298 140.347L44.8383 126.351C44.8033 126.331 44.7728 126.304 44.7486 126.271C44.7243 126.239 44.7069 126.202 44.6973 126.163C44.6861 126.123 44.684 126.081 44.6911 126.041C44.6983 126 44.7144 125.962 44.7384 125.928C50.2491 117.532 50.9541 112.46 51.8471 106.037L52.0175 104.833C55.1371 82.7816 76.4223 68.3093 93.5303 56.6905L95.5865 55.2873C97.0751 54.2253 98.6206 53.2453 100.216 52.3518L100.627 52.1287C102.39 51.1658 105.656 49.381 107.677 50.0385C107.977 50.1317 108.253 50.2878 108.487 50.4964C108.721 50.705 108.908 50.9613 109.034 51.248C109.745 52.7334 109.24 54.7354 108.406 56.532L108.535 56.3852C108.98 55.8029 109.597 55.3739 110.298 55.1581C110.579 55.0996 110.869 55.1002 111.151 55.1598C111.432 55.2194 111.697 55.3368 111.931 55.5045C112.255 55.7305 112.531 56.0196 112.741 56.3545C112.951 56.6895 113.091 57.0633 113.153 57.4537C113.347 58.7219 112.841 59.9489 112.26 61.0938C111.597 62.4004 110.851 63.6633 110.027 64.8748C110.92 64.2113 111.755 63.8473 112.377 64.0998C113 64.3522 113.388 65.2799 113.388 66.777C113.325 69.3834 112.509 71.9159 111.038 74.0689C111.478 73.7636 111.931 73.4818 112.395 73.1941C112.605 73.0302 112.848 72.9135 113.108 72.8517C113.367 72.7899 113.637 72.7845 113.899 72.8359C114.187 72.9611 114.437 73.161 114.622 73.415C114.806 73.6689 114.92 73.9677 114.951 74.2802C115.603 77.2158 114.481 79.4116 113.294 81.76C112.988 82.3471 112.706 82.9753 112.395 83.6094C112.025 84.4313 111.708 85.2591 111.396 86.0576C110.845 87.5972 110.165 89.0878 109.363 90.5138C106.132 96.0091 102.825 100.365 99.323 104.986C97.5605 107.305 95.7393 109.683 93.871 112.325C92.9722 113.587 84.4123 123.926 81.8097 127.067C79.0131 130.431 76.2637 133.743 74.2015 136.202C71.17 139.86 70.7353 140.377 70.5297 140.377ZM45.4023 125.987L70.5003 139.713C72.2628 137.6 91.8207 114.233 93.4128 111.984C95.2869 109.354 97.114 106.953 98.8765 104.628C102.366 100.025 105.668 95.6803 108.864 90.2143C109.649 88.8143 110.315 87.3513 110.856 85.8404C111.167 85.036 111.49 84.2082 111.866 83.3687C112.148 82.7228 112.454 82.1005 112.771 81.4958C113.911 79.2472 114.986 77.1218 114.381 74.4094C114.293 74.0102 114.105 73.5111 113.734 73.3996C113.551 73.3767 113.364 73.3915 113.187 73.4429C113.009 73.4944 112.843 73.5815 112.7 73.699C111.449 74.4424 110.269 75.2992 109.175 76.2588C109.12 76.3126 109.047 76.3427 108.97 76.3427C108.893 76.3427 108.819 76.3126 108.764 76.2588C108.712 76.2032 108.682 76.1297 108.682 76.0533C108.682 75.9769 108.712 75.9034 108.764 75.8478C110.002 74.6766 110.996 73.2721 111.689 71.7154C112.382 70.1586 112.759 68.4802 112.8 66.777C112.8 65.5734 112.612 64.8513 112.213 64.6869C111.431 64.3816 109.816 65.6028 107.425 68.3093L107.378 68.3622C107.354 68.3967 107.323 68.4258 107.288 68.4475C107.252 68.4692 107.212 68.4831 107.171 68.4882C107.129 68.4933 107.087 68.4895 107.047 68.477C107.007 68.4645 106.971 68.4437 106.939 68.4159C106.908 68.3881 106.883 68.354 106.866 68.3158C106.849 68.2776 106.841 68.2363 106.841 68.1945C106.842 68.1527 106.851 68.1115 106.868 68.0736C106.886 68.0357 106.911 68.002 106.943 67.9747C108.827 65.8294 110.432 63.4543 111.719 60.9059C112.254 59.8491 112.724 58.7219 112.554 57.6181C112.503 57.3077 112.391 57.0105 112.223 56.7442C112.056 56.478 111.836 56.2481 111.578 56.0681C111.412 55.944 111.221 55.8567 111.019 55.8121C110.816 55.7676 110.606 55.7668 110.403 55.8098C109.833 56.0063 109.335 56.3706 108.976 56.8549C108.224 57.6886 107.501 58.5516 106.82 59.4499C106.109 60.5419 105.509 61.2993 105.433 61.3873C105.386 61.4454 105.318 61.4832 105.244 61.493C105.17 61.5028 105.094 61.4839 105.034 61.4402C104.971 61.3953 104.929 61.3278 104.915 61.252C104.902 61.1763 104.919 61.0984 104.963 61.0351C105.427 60.3482 105.909 59.673 106.414 59.0154C107.942 56.667 109.416 53.4555 108.506 51.5415C108.417 51.3245 108.282 51.1293 108.111 50.9692C107.939 50.8091 107.735 50.6879 107.513 50.6139C105.721 50.0268 102.478 51.7881 100.915 52.657L100.498 52.886C98.922 53.7623 97.3942 54.7226 95.9214 55.7628L93.8652 57.1602C76.857 68.7262 55.6776 83.1221 52.605 104.916L52.4346 106.09C51.5358 112.571 50.8249 117.632 45.4023 125.987Z" fill="#002947"/>
<path d="M76.6688 154.949L80.3054 132.909C80.3054 132.909 46.3596 119.54 45.825 119.241C45.402 119.018 33.4111 154.949 33.4111 154.949H76.6688Z" fill="#002947"/>
<path d="M76.6689 155.242H33.3878C33.3413 155.242 33.2956 155.231 33.2544 155.209C33.2132 155.188 33.1776 155.157 33.1507 155.119C33.1237 155.081 33.1061 155.038 33.0993 154.992C33.0926 154.946 33.0968 154.899 33.1116 154.855C44.9968 119.247 45.5138 119.041 45.6841 118.971C45.724 118.954 45.767 118.945 45.8105 118.945C45.8539 118.945 45.8969 118.954 45.9368 118.971C46.489 119.247 68.7318 128.024 80.4113 132.627C80.4737 132.651 80.526 132.695 80.5592 132.753C80.5924 132.811 80.6045 132.878 80.5934 132.944L76.9626 154.996C76.9514 155.065 76.9155 155.128 76.8616 155.174C76.8077 155.219 76.7393 155.243 76.6689 155.242ZM33.7814 154.655H76.3986L79.9765 133.12C76.9391 131.946 48.8801 120.867 45.9015 119.617C44.8969 121.736 38.2523 141.304 33.799 154.655H33.7814Z" fill="#002947"/>
<path d="M102.796 22.2154L54.5262 36.8711C52.4555 37.4998 51.2869 39.6871 51.916 41.7564L78.4752 129.115C79.1043 131.184 81.293 132.352 83.3637 131.723L131.634 117.067C133.704 116.439 134.873 114.251 134.244 112.182L107.685 24.8239C107.056 22.7545 104.867 21.5867 102.796 22.2154Z" fill="#002947"/>
<path d="M82.2503 132.193C81.3467 132.192 80.467 131.902 79.7413 131.364C79.0156 130.826 78.4822 130.068 78.2201 129.204L51.6357 41.8484C51.4699 41.3177 51.411 40.7593 51.4623 40.2057C51.5136 39.652 51.6742 39.114 51.9348 38.6227C52.1953 38.1314 52.5507 37.6966 52.9804 37.3433C53.41 36.99 53.9055 36.7253 54.4381 36.5645L102.713 21.8868C103.242 21.7256 103.797 21.6702 104.348 21.7238C104.898 21.7773 105.432 21.9388 105.92 22.1989C106.408 22.459 106.84 22.8126 107.191 23.2396C107.541 23.6666 107.805 24.1585 107.965 24.6873L134.538 112.108C134.862 113.176 134.748 114.329 134.221 115.313C133.695 116.297 132.798 117.032 131.73 117.356L83.4606 132.034C83.0671 132.146 82.6593 132.199 82.2503 132.193ZM103.988 22.3447C103.629 22.3452 103.273 22.3986 102.93 22.5032L54.6378 37.1574C54.1822 37.2957 53.7583 37.5224 53.3903 37.8244C53.0223 38.1265 52.7175 38.498 52.4932 38.9178C52.269 39.3377 52.1297 39.7975 52.0834 40.2712C52.0371 40.7448 52.0846 41.2229 52.2232 41.6782L78.7253 129.01C79.0061 129.929 79.64 130.699 80.4881 131.151C81.3361 131.604 82.329 131.702 83.2491 131.423L131.518 116.746C132.43 116.47 133.196 115.846 133.651 115.01C134.106 114.174 134.214 113.193 133.95 112.278L107.407 24.9162C107.181 24.1733 106.722 23.5226 106.098 23.0597C105.474 22.5968 104.718 22.3462 103.941 22.3447H103.988Z" fill="#002947"/>
<path d="M106.058 29.5821L56.147 44.7362L78.778 119.174L128.689 104.02L106.058 29.5821Z" fill="white"/>
<path d="M78.7721 119.47C78.7247 119.47 78.6781 119.458 78.6369 119.435C78.6021 119.418 78.571 119.394 78.5458 119.365C78.5205 119.336 78.5015 119.301 78.4901 119.264L55.8654 44.825C55.8495 44.79 55.8413 44.7519 55.8413 44.7135C55.8413 44.675 55.8495 44.637 55.8654 44.6019C55.8831 44.5684 55.9073 44.5386 55.9365 44.5145C55.9658 44.4903 55.9995 44.4721 56.0358 44.461L105.973 29.3078C106.047 29.2857 106.127 29.2937 106.195 29.33C106.263 29.3662 106.314 29.4278 106.338 29.5015L128.968 103.941C128.98 103.978 128.984 104.018 128.98 104.057C128.976 104.096 128.965 104.133 128.946 104.168C128.928 104.202 128.902 104.233 128.872 104.257C128.841 104.282 128.806 104.3 128.768 104.311L78.8308 119.458C78.8118 119.465 78.7921 119.469 78.7721 119.47ZM56.5117 44.9366L78.9659 118.812L128.316 103.829L105.862 29.9536L56.5117 44.9366Z" fill="#002947"/>
<path d="M101.925 122.3C101.459 122.299 101.005 122.15 100.63 121.873C100.255 121.596 99.9777 121.207 99.8398 120.762L99.1407 118.443C98.9739 117.891 99.0323 117.297 99.3031 116.788C99.5739 116.28 100.035 115.899 100.586 115.73L109.692 112.971C109.965 112.887 110.252 112.857 110.537 112.884C110.821 112.911 111.098 112.994 111.35 113.129C111.602 113.263 111.825 113.446 112.007 113.666C112.188 113.887 112.324 114.142 112.406 114.415L113.106 116.763C113.19 117.036 113.219 117.323 113.192 117.608C113.165 117.892 113.082 118.168 112.947 118.42C112.813 118.672 112.63 118.895 112.409 119.076C112.188 119.258 111.934 119.393 111.66 119.476L102.554 122.235C102.349 122.288 102.137 122.31 101.925 122.3ZM110.327 113.458C110.169 113.458 110.013 113.482 109.863 113.528L100.756 116.294C100.354 116.417 100.017 116.694 99.8193 117.065C99.6212 117.436 99.5779 117.87 99.6988 118.272L100.404 120.591C100.527 120.993 100.805 121.33 101.176 121.528C101.547 121.726 101.981 121.769 102.384 121.648L111.49 118.883C111.69 118.823 111.876 118.724 112.038 118.592C112.199 118.46 112.333 118.298 112.431 118.114C112.53 117.93 112.59 117.728 112.61 117.521C112.63 117.313 112.609 117.104 112.547 116.904L111.842 114.585C111.744 114.26 111.544 113.974 111.271 113.772C110.998 113.569 110.667 113.459 110.327 113.458Z" fill="#D1D3D4"/>
<path d="M68.7671 37.4569C68.7043 37.4572 68.643 37.4375 68.5922 37.4005C68.5415 37.3635 68.5039 37.3113 68.4851 37.2514C68.4628 37.1766 68.4707 37.0962 68.5069 37.0271C68.5431 36.958 68.6048 36.9058 68.679 36.8815L84.4827 32.0848C84.5606 32.0615 84.6446 32.07 84.7162 32.1085C84.7879 32.1471 84.8412 32.2125 84.8646 32.2903C84.888 32.3682 84.8794 32.4521 84.8409 32.5237C84.8023 32.5952 84.7369 32.6486 84.659 32.6719L68.8493 37.4216L68.7671 37.4569Z" fill="#D1D3D4"/>
<path d="M86.7856 31.985C86.723 31.9845 86.6622 31.9644 86.6116 31.9276C86.561 31.8907 86.5233 31.8389 86.5036 31.7795C86.4919 31.7422 86.4878 31.7028 86.4916 31.6638C86.4953 31.6248 86.5069 31.587 86.5255 31.5525C86.5441 31.5181 86.5694 31.4877 86.6 31.4631C86.6305 31.4386 86.6657 31.4204 86.7034 31.4097L88.8243 30.7697C88.8622 30.7531 88.9033 30.7447 88.9447 30.7451C88.9862 30.7455 89.0271 30.7547 89.0647 30.772C89.1024 30.7893 89.1359 30.8144 89.1632 30.8456C89.1905 30.8767 89.2108 30.9134 89.2229 30.953C89.235 30.9926 89.2386 31.0343 89.2334 31.0754C89.2282 31.1165 89.2144 31.156 89.1928 31.1914C89.1713 31.2268 89.1425 31.2572 89.1083 31.2806C89.0741 31.3041 89.0354 31.32 88.9946 31.3275L86.8737 31.9733C86.8454 31.9829 86.8155 31.9869 86.7856 31.985Z" fill="#D1D3D4"/>
<path d="M98.4479 52.4549L64.9058 62.639L75.0967 96.1588L108.639 85.9747L98.4479 52.4549Z" fill="#F8A8C3"/>
<path d="M75.0943 96.4553C75.0315 96.4557 74.9702 96.4359 74.9194 96.3989C74.8687 96.3619 74.8311 96.3097 74.8123 96.2498L64.625 62.7259C64.6133 62.6893 64.609 62.6508 64.6125 62.6125C64.6159 62.5742 64.627 62.537 64.6451 62.503C64.6632 62.4691 64.6878 62.4391 64.7177 62.4149C64.7476 62.3907 64.782 62.3727 64.8189 62.3619L98.3593 52.1815C98.4341 52.1593 98.5146 52.1671 98.5837 52.2033C98.6529 52.2394 98.7051 52.3011 98.7294 52.3752L108.917 85.8932C108.939 85.968 108.931 86.0484 108.895 86.1175C108.859 86.1866 108.797 86.2388 108.723 86.2631L75.2 96.4435C75.1664 96.4564 75.13 96.4604 75.0943 96.4553ZM65.2713 62.8375L75.2882 95.7977L108.27 85.7875L98.2477 52.8273L65.2713 62.8375Z" fill="#002947"/>
<path d="M108.638 85.9689L75.0962 96.153L77.687 104.675L111.229 94.4907L108.638 85.9689Z" fill="white"/>
<path d="M77.6792 104.974C77.6343 104.971 77.5903 104.959 77.55 104.939C77.5156 104.921 77.4853 104.896 77.4611 104.866C77.4368 104.835 77.4191 104.8 77.409 104.763L74.8181 96.244C74.7959 96.1692 74.8037 96.0887 74.8399 96.0197C74.8761 95.9506 74.9378 95.8984 75.012 95.8741L108.558 85.6936C108.632 85.6716 108.712 85.6796 108.78 85.7158C108.848 85.7521 108.899 85.8137 108.922 85.8874L111.513 94.4122C111.542 94.4838 111.542 94.5637 111.513 94.6353C111.475 94.703 111.412 94.7534 111.337 94.7762L77.7673 104.939C77.7407 104.957 77.7107 104.969 77.6792 104.974ZM75.4585 96.3614L77.879 104.317L110.861 94.3065L108.441 86.3453L75.4585 96.3614Z" fill="#002947"/>
<path d="M79.7002 97.7704C79.6374 97.7708 79.5761 97.7511 79.5253 97.7141C79.4746 97.6771 79.437 97.6248 79.4182 97.5649C79.3959 97.4902 79.4038 97.4097 79.44 97.3407C79.4762 97.2716 79.5379 97.2194 79.6121 97.1951L105.462 89.3513C105.54 89.3279 105.624 89.3365 105.696 89.375C105.767 89.4136 105.821 89.4789 105.844 89.5568C105.867 89.6346 105.859 89.7186 105.82 89.7902C105.782 89.8617 105.716 89.9151 105.638 89.9384L79.7883 97.7822L79.7002 97.7704Z" fill="#D1D3D4"/>
<path d="M80.6053 100.753C80.5415 100.754 80.4791 100.734 80.4281 100.695C80.3771 100.657 80.3402 100.603 80.3233 100.542C80.3012 100.468 80.3092 100.388 80.3455 100.32C80.3818 100.252 80.4434 100.201 80.5171 100.178L104.663 92.8446C104.741 92.822 104.825 92.8313 104.896 92.8704C104.967 92.9095 105.02 92.9752 105.042 93.053C105.065 93.1309 105.056 93.2145 105.017 93.2855C104.977 93.3566 104.912 93.4091 104.834 93.4317L80.6875 100.759C80.66 100.762 80.632 100.76 80.6053 100.753Z" fill="#D1D3D4"/>
<path d="M78.5255 84.5898C78.4622 84.5889 78.4008 84.5679 78.3502 84.53C78.2995 84.492 78.2622 84.439 78.2435 84.3785L74.084 70.6812C74.0547 70.6098 74.0547 70.5296 74.084 70.4581C74.1239 70.3915 74.1865 70.3415 74.2603 70.3172L94.9109 64.0469C94.9824 64.0176 95.0626 64.0176 95.1342 64.0469C95.1685 64.065 95.1988 64.09 95.2231 64.1203C95.2473 64.1506 95.2651 64.1856 95.2752 64.2231L99.4582 77.932C99.4869 78.0036 99.4869 78.0835 99.4582 78.1551C99.4205 78.2214 99.3599 78.2715 99.2878 78.296L78.6372 84.5663L78.5255 84.5898ZM74.7303 70.7928L78.7253 83.9264L98.8178 77.8322L94.8228 64.6927L74.7303 70.7928Z" fill="white"/>
<path d="M78.5253 84.5899C78.478 84.5902 78.4314 84.578 78.3902 84.5547C78.3557 84.5367 78.3251 84.5121 78.3002 84.4823C78.2752 84.4524 78.2565 84.4179 78.245 84.3808C78.2335 84.3437 78.2296 84.3046 78.2333 84.2659C78.237 84.2272 78.2484 84.1897 78.2668 84.1554L83.5191 74.2979C83.5546 74.2287 83.6157 74.1761 83.6894 74.1511C83.763 74.122 83.845 74.122 83.9186 74.1511L93.7709 79.4351C93.8395 79.4724 93.8904 79.5355 93.9124 79.6104C93.9344 79.6852 93.9258 79.7658 93.8884 79.8343C93.851 79.9028 93.7879 79.9537 93.713 79.9757C93.6381 79.9977 93.5575 79.9891 93.4889 79.9517L83.9009 74.8145L78.7838 84.4137C78.7617 84.4645 78.7257 84.5079 78.68 84.5391C78.6343 84.5702 78.5806 84.5878 78.5253 84.5899Z" fill="white"/>
<path d="M91.0627 78.619C91.0108 78.62 90.9597 78.6057 90.9158 78.5779C90.8481 78.5397 90.7984 78.4762 90.7774 78.4013C90.7565 78.3265 90.7661 78.2464 90.8042 78.1787L93.3187 73.7578C93.3546 73.6954 93.4117 73.648 93.4797 73.6243C93.5477 73.6006 93.6219 73.6021 93.6888 73.6286L98.7061 75.7715C98.7748 75.8038 98.8283 75.8615 98.8554 75.9324C98.8825 76.0032 98.8811 76.0819 98.8515 76.1517C98.8219 76.2216 98.7663 76.2773 98.6965 76.3071C98.6266 76.3369 98.548 76.3386 98.477 76.3117L93.7006 74.2744L91.3153 78.4722C91.2897 78.5166 91.2529 78.5535 91.2086 78.5792C91.1642 78.605 91.114 78.6187 91.0627 78.619Z" fill="white"/>
<path d="M89.2122 73.6109C88.7566 73.6094 88.3133 73.4621 87.9475 73.1906C87.5817 72.9191 87.3125 72.5376 87.1795 72.1021C87.0979 71.8349 87.0699 71.5543 87.0969 71.2763C87.1239 70.9983 87.2055 70.7284 87.337 70.4819C87.4685 70.2355 87.6473 70.0173 87.8632 69.84C88.0792 69.6626 88.3279 69.5295 88.5954 69.4483C88.8631 69.3669 89.1442 69.3392 89.4227 69.3665C89.7012 69.3939 89.9715 69.476 90.2182 69.608C90.4649 69.74 90.6831 69.9193 90.8603 70.1357C91.0375 70.3521 91.1702 70.6014 91.2509 70.8691C91.4138 71.4079 91.3562 71.9892 91.0908 72.4856C90.8254 72.982 90.3737 73.3529 89.835 73.517C89.6334 73.5797 89.4234 73.6114 89.2122 73.6109ZM89.2122 69.9474C89.059 69.9454 88.9064 69.9672 88.7599 70.012C88.3972 70.1519 88.101 70.4237 87.9306 70.7729C87.7603 71.122 87.7284 71.5227 87.8415 71.8944C87.9546 72.266 88.2041 72.5812 88.5401 72.7765C88.8761 72.9719 89.2737 73.033 89.6529 72.9475C90.0456 72.8276 90.375 72.5575 90.5694 72.196C90.665 72.0175 90.7241 71.8217 90.7433 71.6201C90.7624 71.4185 90.7413 71.2151 90.681 71.0218C90.5854 70.7066 90.3911 70.4304 90.1267 70.2339C89.8623 70.0373 89.5418 69.9307 89.2122 69.9298V69.9474Z" fill="white"/>
<path d="M134.552 41.8586L100.898 52.0181L111.065 85.6495L144.719 75.49L134.552 41.8586Z" fill="#F8A8C3"/>
<path d="M110.785 85.6232C110.738 85.6235 110.691 85.6113 110.65 85.5879C110.615 85.5699 110.584 85.5451 110.559 85.5148C110.533 85.4845 110.515 85.4495 110.503 85.4118L100.316 51.8938C100.294 51.8198 100.302 51.7402 100.338 51.6721C100.374 51.6039 100.436 51.5528 100.51 51.5298L134.056 41.3435C134.128 41.3175 134.207 41.3175 134.279 41.3435C134.347 41.382 134.398 41.4451 134.42 41.5196L144.608 75.0376C144.63 75.1116 144.622 75.1912 144.585 75.2594C144.549 75.3275 144.487 75.3786 144.414 75.4016L110.873 85.5879L110.785 85.6232ZM100.962 52.0054L110.979 84.9773L143.961 74.9965L133.95 41.9893L100.962 52.0054Z" fill="#002947"/>
<path d="M144.741 75.4954L111.087 85.6549L113.672 94.2051L147.326 84.0456L144.741 75.4954Z" fill="white"/>
<path d="M113.388 94.1421C113.338 94.1416 113.29 94.1296 113.247 94.1069C113.179 94.0683 113.128 94.0053 113.106 93.9307L110.515 85.4118C110.504 85.3748 110.5 85.336 110.505 85.2977C110.509 85.2594 110.521 85.2222 110.539 85.1884C110.558 85.1546 110.583 85.1248 110.613 85.1007C110.643 85.0766 110.677 85.0586 110.714 85.0478L144.255 74.8673C144.329 74.8453 144.409 74.8533 144.477 74.8895C144.545 74.9258 144.596 74.9874 144.619 75.0611L147.21 83.58C147.226 83.6151 147.234 83.6531 147.234 83.6916C147.234 83.73 147.226 83.7681 147.21 83.8031C147.193 83.838 147.169 83.869 147.14 83.8942C147.111 83.9195 147.077 83.9384 147.04 83.9499L113.493 94.1303L113.388 94.1421ZM111.161 85.5233L113.581 93.4845L146.564 83.4685L144.143 75.5131L111.161 85.5233Z" fill="#002947"/>
<path d="M115.391 86.9383C115.328 86.9374 115.266 86.9164 115.216 86.8784C115.165 86.8405 115.128 86.7874 115.109 86.7269C115.087 86.6522 115.096 86.5719 115.133 86.5036C115.171 86.4353 115.234 86.3847 115.309 86.3629L141.159 78.5192C141.23 78.5063 141.303 78.5198 141.364 78.5573C141.426 78.5947 141.471 78.6534 141.492 78.7223C141.513 78.7911 141.508 78.8652 141.478 78.9306C141.448 78.996 141.395 79.0481 141.329 79.0769L115.479 86.9207C115.451 86.9322 115.421 86.9382 115.391 86.9383Z" fill="#D1D3D4"/>
<path d="M116.325 89.915C116.263 89.9144 116.202 89.8943 116.151 89.8575C116.101 89.8206 116.063 89.7689 116.043 89.7095C116.031 89.6721 116.027 89.6327 116.031 89.5938C116.035 89.5548 116.046 89.5169 116.065 89.4825C116.084 89.448 116.109 89.4176 116.14 89.3931C116.17 89.3685 116.205 89.3503 116.243 89.3396L137.046 83.0282C137.117 83.0153 137.19 83.0289 137.252 83.0663C137.313 83.1037 137.359 83.1625 137.38 83.2313C137.401 83.3001 137.396 83.3743 137.366 83.4397C137.336 83.5051 137.283 83.5571 137.217 83.586L116.384 89.9032L116.325 89.915Z" fill="#D1D3D4"/>
<path d="M114.222 73.7518C114.173 73.7526 114.124 73.7405 114.081 73.7166C114.047 73.6989 114.018 73.6748 113.993 73.6456C113.969 73.6163 113.951 73.5826 113.94 73.5464L109.774 59.8491C109.745 59.7777 109.745 59.6975 109.774 59.626C109.81 59.5568 109.871 59.5042 109.945 59.4793L130.619 53.2148C130.694 53.1926 130.774 53.2004 130.843 53.2366C130.913 53.2728 130.965 53.3345 130.989 53.4086L135.125 67.1058C135.154 67.1772 135.154 67.2574 135.125 67.3289C135.107 67.3632 135.082 67.3935 135.052 67.4177C135.021 67.442 134.986 67.4597 134.949 67.4698L114.298 73.7401C114.274 73.7487 114.248 73.7526 114.222 73.7518ZM110.45 59.9607L114.445 73.0943L134.532 66.9942L130.513 53.8606L110.45 59.9607Z" fill="white"/>
<path d="M114.216 73.7518C114.166 73.7514 114.117 73.7382 114.073 73.7133C114.029 73.6884 113.993 73.6528 113.967 73.6098C113.941 73.5668 113.927 73.5179 113.925 73.4677C113.923 73.4176 113.935 73.3678 113.958 73.3232L119.21 63.4598C119.248 63.3917 119.311 63.3411 119.386 63.3189C119.421 63.303 119.459 63.2948 119.498 63.2948C119.536 63.2948 119.574 63.303 119.609 63.3189L129.462 68.6029C129.499 68.6194 129.532 68.6432 129.559 68.673C129.586 68.7027 129.607 68.7377 129.62 68.7758C129.633 68.8139 129.638 68.8542 129.634 68.8944C129.631 68.9345 129.62 68.9735 129.601 69.009C129.582 69.0445 129.556 69.0757 129.524 69.1007C129.493 69.1257 129.456 69.144 129.417 69.1543C129.378 69.1647 129.338 69.167 129.298 69.161C129.258 69.155 129.22 69.1409 129.186 69.1195L119.592 63.9823L114.481 73.5874C114.456 73.6368 114.419 73.6784 114.372 73.7075C114.325 73.7366 114.271 73.7519 114.216 73.7518Z" fill="white"/>
<path d="M126.736 67.781C126.686 67.7812 126.638 67.7691 126.595 67.7458C126.527 67.7075 126.477 67.644 126.456 67.5692C126.435 67.4944 126.445 67.4143 126.483 67.3465L128.997 62.9197C129.032 62.8565 129.09 62.8087 129.158 62.7859C129.227 62.763 129.302 62.7668 129.368 62.7964L134.379 64.9335C134.416 64.9475 134.45 64.9688 134.478 64.9962C134.507 65.0235 134.529 65.0564 134.545 65.0927C134.56 65.129 134.568 65.1681 134.569 65.2076C134.569 65.2471 134.561 65.2862 134.545 65.3226C134.53 65.359 134.507 65.3919 134.479 65.4193C134.45 65.4467 134.417 65.4681 134.38 65.4822C134.343 65.4963 134.303 65.5029 134.264 65.5014C134.224 65.4999 134.186 65.4905 134.15 65.4737L129.379 63.4364L126.994 67.6342C126.968 67.6795 126.93 67.7169 126.885 67.7427C126.839 67.7685 126.788 67.7817 126.736 67.781Z" fill="white"/>
<path d="M124.903 62.7789C124.447 62.7774 124.004 62.6301 123.638 62.3585C123.272 62.087 123.003 61.7055 122.87 61.27C122.706 60.7305 122.763 60.1478 123.028 59.6501C123.294 59.1524 123.746 58.7805 124.286 58.6163C124.826 58.452 125.409 58.5088 125.907 58.7741C126.405 59.0395 126.777 59.4917 126.941 60.0312C127.023 60.2983 127.051 60.5789 127.024 60.8569C126.997 61.1349 126.915 61.4049 126.784 61.6513C126.652 61.8978 126.474 62.1159 126.258 62.2933C126.042 62.4706 125.793 62.6037 125.526 62.6849C125.323 62.7452 125.114 62.7768 124.903 62.7789ZM124.903 59.1094C124.751 59.1094 124.601 59.1331 124.456 59.1799C124.261 59.2362 124.08 59.3312 123.922 59.4594C123.765 59.5875 123.635 59.746 123.54 59.9255C123.349 60.2867 123.308 60.709 123.428 61.0997C123.517 61.3911 123.69 61.6496 123.925 61.8426C124.161 62.0357 124.449 62.1545 124.752 62.184C125.055 62.2136 125.36 62.1525 125.629 62.0086C125.897 61.8647 126.117 61.6444 126.26 61.3757C126.453 61.0152 126.495 60.593 126.377 60.2015C126.28 59.8873 126.086 59.6121 125.822 59.4158C125.557 59.2195 125.238 59.1122 124.909 59.1094H124.903Z" fill="white"/>
<path d="M169.837 30.7794L136.294 40.9635L146.485 74.4833L180.028 64.2992L169.837 30.7794Z" fill="#F8A8C3"/>
<path d="M146.482 74.7852C146.432 74.7855 146.384 74.7734 146.341 74.75C146.306 74.7332 146.276 74.7093 146.252 74.6799C146.227 74.6506 146.21 74.6164 146.2 74.5797L136.006 41.0559C135.985 40.9811 135.993 40.9008 136.031 40.8325C136.068 40.7643 136.131 40.7137 136.206 40.6919L169.747 30.5114C169.782 30.4955 169.82 30.4873 169.858 30.4873C169.897 30.4873 169.935 30.4955 169.97 30.5114C170.005 30.5282 170.036 30.552 170.061 30.5813C170.086 30.6106 170.105 30.6447 170.117 30.6817L180.304 64.2055C180.326 64.2795 180.318 64.3592 180.282 64.4273C180.245 64.4954 180.184 64.5465 180.11 64.5695L146.564 74.75C146.539 74.7678 146.511 74.7798 146.482 74.7852ZM136.659 41.1674L146.646 74.1277L179.628 64.1468L169.635 31.1572L136.659 41.1674Z" fill="#002947"/>
<path d="M180.021 64.2992L146.479 74.4833L149.07 83.0051L182.612 72.821L180.021 64.2992Z" fill="white"/>
<path d="M149.067 83.3041C149.02 83.3035 148.974 83.2935 148.932 83.2748C148.862 83.2369 148.809 83.1739 148.785 83.0986L146.2 74.5797C146.178 74.5057 146.186 74.4261 146.222 74.3579C146.258 74.2898 146.32 74.2387 146.394 74.2157L179.934 64.0294C179.971 64.0177 180.011 64.0136 180.05 64.0173C180.089 64.0211 180.127 64.0326 180.161 64.0512C180.196 64.0698 180.226 64.0951 180.251 64.1257C180.275 64.1562 180.293 64.1913 180.304 64.229L182.895 72.7479C182.921 72.82 182.921 72.8989 182.895 72.971C182.856 73.0387 182.793 73.0892 182.719 73.1119L149.178 83.2924C149.143 83.3055 149.104 83.3095 149.067 83.3041ZM146.875 74.6912L149.266 82.6289L182.243 72.6481L179.828 64.6869L146.875 74.6912Z" fill="#002947"/>
<path d="M151.087 76.1004C151.025 76.1007 150.963 76.081 150.913 76.044C150.862 76.007 150.824 75.9547 150.805 75.8949C150.783 75.8201 150.791 75.7397 150.827 75.6706C150.863 75.6015 150.925 75.5493 150.999 75.525L176.849 67.6812C176.887 67.6695 176.926 67.6654 176.965 67.6692C177.004 67.6729 177.042 67.6845 177.076 67.7031C177.111 67.7217 177.141 67.747 177.166 67.7775C177.19 67.808 177.209 67.8432 177.219 67.8808C177.23 67.9178 177.234 67.9566 177.229 67.9949C177.225 68.0333 177.214 68.0704 177.195 68.1042C177.176 68.138 177.151 68.1678 177.121 68.1919C177.091 68.2161 177.057 68.234 177.02 68.2448L151.17 76.0886L151.087 76.1004Z" fill="#D1D3D4"/>
<path d="M151.992 79.1063C151.929 79.1073 151.866 79.0871 151.815 79.0488C151.764 79.0105 151.727 78.9564 151.71 78.8949C151.688 78.821 151.696 78.7413 151.733 78.6732C151.769 78.6051 151.831 78.554 151.904 78.5309L170.81 72.7949C170.847 72.7823 170.885 72.7774 170.924 72.7804C170.963 72.7835 171 72.7944 171.034 72.8126C171.069 72.8308 171.099 72.8558 171.123 72.8861C171.147 72.9163 171.164 72.9513 171.174 72.9886C171.196 73.0626 171.188 73.1423 171.152 73.2104C171.116 73.2785 171.054 73.3296 170.98 73.3526L152.075 79.0946L151.992 79.1063Z" fill="#D1D3D4"/>
<path d="M149.913 62.9198C149.849 62.9188 149.788 62.8979 149.737 62.8599C149.687 62.8219 149.649 62.7689 149.631 62.7084L145.465 49.0112C145.439 48.9391 145.439 48.8602 145.465 48.7881C145.504 48.7203 145.567 48.6699 145.642 48.6472L166.292 42.3769C166.367 42.3551 166.447 42.3638 166.516 42.4013C166.584 42.4387 166.635 42.5017 166.656 42.5765L170.822 56.2737C170.851 56.3453 170.851 56.4252 170.822 56.4968C170.784 56.563 170.724 56.6132 170.651 56.6377L150.001 62.908L149.913 62.9198ZM146.117 49.1227L150.107 62.2563L170.199 56.1622L166.204 43.0227L146.117 49.1227Z" fill="white"/>
<path d="M149.912 62.9198C149.863 62.9193 149.815 62.9072 149.771 62.8846C149.737 62.8661 149.707 62.8412 149.683 62.8111C149.659 62.781 149.641 62.7464 149.63 62.7093C149.619 62.6722 149.615 62.6334 149.619 62.5949C149.624 62.5565 149.635 62.5192 149.654 62.4853L154.906 52.6278C154.942 52.5586 155.003 52.506 155.076 52.481C155.151 52.4546 155.232 52.4546 155.306 52.481L165.158 57.765C165.227 57.8023 165.277 57.8654 165.299 57.9403C165.322 58.0151 165.313 58.0957 165.275 58.1642C165.238 58.2327 165.175 58.2836 165.1 58.3056C165.025 58.3276 164.945 58.319 164.876 58.2816L155.288 53.1444L150.171 62.7436C150.149 62.7944 150.113 62.8378 150.067 62.869C150.021 62.9001 149.968 62.9177 149.912 62.9198Z" fill="white"/>
<path d="M162.432 56.9488C162.38 56.9499 162.329 56.9356 162.285 56.9077C162.218 56.8695 162.168 56.806 162.147 56.7312C162.126 56.6563 162.136 56.5763 162.174 56.5085L164.688 52.0993C164.724 52.0369 164.781 51.9896 164.849 51.9658C164.917 51.9421 164.992 51.9436 165.058 51.9701L170.076 54.1131C170.144 54.1454 170.198 54.203 170.225 54.2739C170.252 54.3448 170.251 54.4234 170.221 54.4933C170.191 54.5632 170.136 54.6189 170.066 54.6487C169.996 54.6785 169.918 54.6801 169.847 54.6532L165.088 52.6042L162.685 56.7962C162.66 56.8416 162.624 56.8797 162.579 56.9065C162.535 56.9333 162.484 56.9479 162.432 56.9488Z" fill="white"/>
<path d="M160.599 51.9408C160.205 51.9402 159.819 51.8303 159.484 51.6234C159.149 51.4164 158.878 51.1206 158.701 50.7688C158.525 50.417 158.449 50.023 158.484 49.6309C158.518 49.2388 158.66 48.8639 158.895 48.5479C159.13 48.232 159.448 47.9874 159.814 47.8416C160.18 47.6957 160.579 47.6542 160.967 47.7217C161.355 47.7892 161.717 47.9631 162.012 48.2239C162.307 48.4848 162.523 48.8224 162.638 49.199C162.719 49.4658 162.747 49.746 162.72 50.0236C162.693 50.3012 162.611 50.5707 162.48 50.8167C162.348 51.0627 162.169 51.2803 161.953 51.4571C161.738 51.6339 161.489 51.7663 161.222 51.8469C161.02 51.9096 160.81 51.9413 160.599 51.9408ZM160.599 48.2773C160.446 48.2753 160.293 48.2971 160.147 48.3419C159.904 48.4151 159.684 48.5469 159.504 48.7258C159.325 48.9046 159.193 49.1249 159.119 49.3671C159.045 49.6093 159.033 49.8659 159.082 50.1141C159.131 50.3624 159.241 50.5947 159.402 50.7903C159.563 50.986 159.769 51.139 160.003 51.2357C160.237 51.3325 160.492 51.3701 160.744 51.3451C160.996 51.3201 161.238 51.2333 161.448 51.0925C161.659 50.9516 161.831 50.761 161.95 50.5376C162.047 50.3595 162.107 50.1639 162.127 49.9623C162.147 49.7608 162.127 49.5572 162.068 49.3634C162.01 49.1701 161.914 48.9902 161.786 48.834C161.658 48.6779 161.5 48.5485 161.322 48.4534C161.101 48.3366 160.855 48.2761 160.605 48.2773H160.599Z" fill="white"/>
<path d="M66.3232 56.2913C68.2343 56.2913 69.7836 54.743 69.7836 52.8332C69.7836 50.9234 68.2343 49.3751 66.3232 49.3751C64.4121 49.3751 62.8628 50.9234 62.8628 52.8332C62.8628 54.743 64.4121 56.2913 66.3232 56.2913Z" fill="#D1D3D4"/>
<path d="M72.1157 48.4769C72.0529 48.4773 71.9916 48.4575 71.9409 48.4205C71.8901 48.3835 71.8526 48.3313 71.8337 48.2714C71.8115 48.1966 71.8193 48.1162 71.8555 48.0471C71.8917 47.978 71.9534 47.9258 72.0276 47.9015L103.7 38.2905C103.774 38.2685 103.853 38.2765 103.922 38.3127C103.99 38.349 104.041 38.4106 104.064 38.4843C104.086 38.559 104.078 38.6395 104.042 38.7086C104.006 38.7776 103.944 38.8299 103.87 38.8542L72.198 48.4651L72.1157 48.4769Z" fill="#D1D3D4"/>
<path d="M72.9207 51.1247C72.8428 51.1364 72.7634 51.1166 72.7001 51.0698C72.6367 51.023 72.5946 50.953 72.5829 50.8752C72.5712 50.7973 72.5909 50.718 72.6378 50.6547C72.6846 50.5914 72.7547 50.5492 72.8326 50.5376L104.505 40.9442C104.579 40.9222 104.658 40.9302 104.727 40.9664C104.795 41.0027 104.846 41.0643 104.869 41.138C104.891 41.2127 104.883 41.2932 104.847 41.3623C104.811 41.4313 104.749 41.4836 104.675 41.5079L73.0029 51.1129L72.9207 51.1247Z" fill="#D1D3D4"/>
<path d="M73.7256 53.7726C73.6628 53.773 73.6015 53.7532 73.5507 53.7163C73.5 53.6793 73.4624 53.627 73.4436 53.5671C73.4213 53.4924 73.4292 53.4119 73.4654 53.3428C73.5016 53.2738 73.5633 53.2215 73.6375 53.1973L102.325 44.467C102.362 44.4553 102.401 44.4513 102.44 44.4551C102.478 44.4589 102.516 44.4705 102.55 44.4892C102.584 44.5078 102.614 44.5331 102.638 44.5636C102.662 44.5941 102.679 44.6291 102.689 44.6666C102.702 44.7032 102.707 44.7419 102.704 44.7805C102.701 44.8191 102.69 44.8566 102.672 44.8907C102.653 44.9249 102.628 44.9549 102.598 44.979C102.568 45.003 102.533 45.0206 102.495 45.0306L73.8078 53.7609C73.7815 53.7705 73.7535 53.7745 73.7256 53.7726Z" fill="#D1D3D4"/>
<path d="M80.5229 111.738C80.4601 111.738 80.3989 111.718 80.3481 111.681C80.2973 111.644 80.2598 111.592 80.2409 111.532C80.2187 111.458 80.2265 111.377 80.2627 111.308C80.2989 111.239 80.3607 111.187 80.4348 111.162L122.841 98.293C122.915 98.2709 122.994 98.2789 123.062 98.3152C123.131 98.3514 123.182 98.4131 123.205 98.4867C123.227 98.5615 123.219 98.6419 123.183 98.711C123.147 98.7801 123.085 98.8323 123.011 98.8566L80.6052 111.726C80.5788 111.735 80.5509 111.739 80.5229 111.738Z" fill="#D1D3D4"/>
<path d="M189.392 123.527C189.392 123.527 175.851 90.0617 166.756 78.0143C165.516 76.3704 163.819 75.9946 162.555 76.7226C161.069 77.5798 160.793 80.7619 160.793 80.7619C160.793 80.7619 157.197 78.3783 155.376 78.7012C153.555 79.0241 153.167 81.8011 153.167 81.8011C153.167 81.8011 149.26 80.2453 147.527 81.5369C145.794 82.8285 145.583 85.3649 145.583 85.3649C145.583 85.3649 125.666 67.3348 123.446 65.7848C121.225 64.2348 116.895 66.4482 118.746 69.5364C119.921 71.4563 129.826 82.5644 133.045 86.0987C136.265 89.6331 143.661 99.1384 144.378 101.845C145.095 104.552 145.659 107.605 140.183 107.616C134.708 107.628 129.785 108.256 127.258 110.088C124.732 111.92 122.97 114.826 124.127 115.489C125.284 116.153 142.763 116.781 149.889 120.186C157.015 123.591 165.587 135.492 165.587 135.492L189.392 123.527Z" fill="white"/>
<path d="M165.611 135.803C165.565 135.804 165.52 135.793 165.479 135.773C165.438 135.753 165.403 135.723 165.376 135.686C165.287 135.568 156.763 123.82 149.783 120.474C144.925 118.126 135.043 117.098 129.139 116.482C125.948 116.147 124.403 115.977 124.004 115.748C123.85 115.658 123.723 115.529 123.634 115.375C123.545 115.22 123.499 115.045 123.499 114.867C123.434 113.593 125.055 111.344 127.112 109.847C129.409 108.18 133.815 107.329 140.201 107.323C142.158 107.323 143.462 106.906 144.079 106.107C144.866 105.08 144.531 103.477 144.114 101.921C143.421 99.3205 136.194 89.9796 132.846 86.2984C129.497 82.6173 119.68 71.6207 118.511 69.6891C118.124 69.136 117.955 68.4605 118.034 67.7906C118.113 67.1207 118.435 66.5031 118.94 66.055C120.05 65.0158 122.159 64.5226 123.64 65.5442C125.702 66.9826 142.481 82.1358 145.377 84.7778C145.6 83.4199 146.302 82.1868 147.357 81.3021C148.914 80.1279 151.939 81.0555 152.95 81.4078C153.126 80.6035 153.72 78.7013 155.3 78.4136C156.88 78.1259 159.524 79.6465 160.535 80.263C160.676 79.306 161.122 77.1865 162.379 76.4644C163.854 75.6131 165.693 76.1649 166.956 77.8382C175.968 89.78 189.492 123.087 189.628 123.421C189.656 123.488 189.658 123.564 189.633 123.633C189.608 123.702 189.558 123.758 189.492 123.791L165.71 135.774C165.679 135.79 165.645 135.8 165.611 135.803ZM121.736 65.6029C120.853 65.6043 120 65.9279 119.339 66.5129C118.921 66.8691 118.655 67.3711 118.595 67.9166C118.535 68.4622 118.686 69.01 119.016 69.4484C120.144 71.3213 130.008 82.3648 133.28 85.9638C136.288 89.2692 143.914 98.9388 144.684 101.816C145.136 103.512 145.495 105.274 144.549 106.513C143.803 107.481 142.381 107.951 140.201 107.957C133.944 107.957 129.656 108.779 127.458 110.37C125.408 111.855 124.033 113.939 124.086 114.879C124.081 114.959 124.098 115.039 124.135 115.111C124.172 115.182 124.229 115.242 124.298 115.284C124.603 115.46 126.836 115.695 129.197 115.941C135.137 116.564 145.06 117.609 150.042 119.987C156.722 123.198 164.5 133.549 165.705 135.187L189.017 123.445C187.753 120.339 175.075 89.5745 166.521 78.2374C165.446 76.8108 163.913 76.3293 162.708 77.0221C161.592 77.6621 161.169 79.9577 161.093 80.8324C161.089 80.8834 161.073 80.9326 161.044 80.9749C161.015 81.0172 160.976 81.0512 160.93 81.0733C160.884 81.0954 160.833 81.1049 160.782 81.1007C160.731 81.0966 160.682 81.079 160.64 81.0497C160.605 81.0497 157.115 78.7423 155.441 79.0418C153.849 79.3236 153.473 81.8658 153.467 81.8892C153.462 81.9338 153.446 81.9766 153.422 82.0142C153.397 82.0519 153.364 82.0834 153.326 82.1065C153.285 82.1254 153.241 82.1351 153.197 82.1351C153.152 82.1351 153.108 82.1254 153.067 82.1065C153.032 82.1065 149.296 80.627 147.709 81.8012C146.123 82.9754 145.888 85.3943 145.882 85.4178C145.879 85.4729 145.861 85.526 145.828 85.5707C145.796 85.6155 145.752 85.65 145.7 85.6702C145.649 85.69 145.593 85.695 145.539 85.6846C145.485 85.6742 145.435 85.6489 145.395 85.6115C145.195 85.4295 125.467 67.5756 123.287 66.055C122.829 65.7484 122.287 65.5905 121.736 65.6029Z" fill="#002947"/>
<path d="M201.612 154.949C198.575 145.708 189.275 116.029 188.852 116.2C188.429 116.37 159.365 130.185 159.365 130.185L161.128 154.972L201.612 154.949Z" fill="#002947"/>
<path d="M201.613 155.242H161.122C161.047 155.243 160.975 155.214 160.92 155.163C160.866 155.111 160.833 155.041 160.828 154.966L159.066 130.185C159.062 130.125 159.077 130.066 159.107 130.015C159.138 129.964 159.183 129.923 159.236 129.897C160.411 129.339 188.206 116.194 188.729 115.959C188.808 115.927 188.896 115.927 188.976 115.959C189.387 116.141 190.691 119.887 198.052 142.966C199.639 147.927 200.99 152.207 201.883 154.878C201.898 154.922 201.902 154.969 201.895 155.015C201.888 155.061 201.871 155.105 201.844 155.143C201.817 155.18 201.781 155.211 201.74 155.233C201.699 155.254 201.653 155.266 201.607 155.266L201.613 155.242ZM161.392 154.655H201.207C200.326 151.966 199.01 147.851 197.5 143.119C194.146 132.627 189.604 118.413 188.752 116.599C186.138 117.826 162.021 129.228 159.677 130.343L161.392 154.655Z" fill="#002947"/>
<path d="M50.2373 115.548C50.2373 115.548 55.4954 76.0533 60.0368 71.8144C65.4301 66.7887 70.3416 63.3717 71.2404 66.2486C72.1393 69.1254 73.0029 73.9103 65.6122 79.3L66.6873 88.8816C66.6873 88.8816 73.9429 93.8896 70.1653 109.7" fill="white"/>
<path d="M50.2373 115.818H50.202C50.1312 115.808 50.0672 115.77 50.0243 115.713C49.9813 115.656 49.9628 115.584 49.9729 115.513C50.1844 113.898 55.2957 75.8713 59.8547 71.6207C65.0658 66.7594 68.6025 64.5225 70.365 64.9922C70.6416 65.0691 70.8926 65.2185 71.092 65.425C71.2914 65.6314 71.4319 65.8874 71.4989 66.1664C73.5434 72.7009 69.613 76.6874 65.8942 79.4292L66.9399 88.7348C67.8564 89.4335 73.9899 94.7879 70.4238 109.759C70.4162 109.794 70.4017 109.826 70.3813 109.855C70.3608 109.884 70.3347 109.909 70.3045 109.927C70.2744 109.946 70.2408 109.958 70.2058 109.964C70.1708 109.969 70.135 109.967 70.1007 109.959C70.0329 109.941 69.975 109.897 69.9398 109.836C69.9045 109.776 69.8948 109.704 69.9127 109.636C73.6022 94.1832 66.6109 89.1517 66.5404 89.0871C66.5089 89.0662 66.4825 89.0384 66.4632 89.0059C66.4439 88.9734 66.4321 88.9369 66.4288 88.8992L65.3478 79.3176C65.3411 79.2702 65.348 79.2218 65.3677 79.1781C65.3875 79.1345 65.4193 79.0973 65.4594 79.0711C72.3273 74.0454 72.0218 69.6128 70.9937 66.3073C70.9517 66.1152 70.8586 65.9379 70.7241 65.7943C70.5897 65.6506 70.419 65.5459 70.2299 65.4913C68.7024 65.092 65.1539 67.3994 60.2424 71.9964C55.8244 76.1062 50.578 115.172 50.5252 115.566C50.5229 115.601 50.5137 115.636 50.498 115.668C50.4823 115.7 50.4604 115.728 50.4337 115.752C50.4069 115.775 50.3758 115.793 50.3421 115.804C50.3084 115.816 50.2728 115.821 50.2373 115.818Z" fill="#002947"/>
</svg>
