<svg width="235" height="177" viewBox="0 0 235 177" fill="none" xmlns="http://www.w3.org/2000/svg">
<path d="M159.03 77.1042H73.4727C70.4682 77.1042 68.0325 79.5383 68.0325 82.5409V128.106C68.0325 131.109 70.4682 133.543 73.4727 133.543H159.03C162.035 133.543 164.471 131.109 164.471 128.106V82.5409C164.471 79.5383 162.035 77.1042 159.03 77.1042Z" fill="white"/>
<path d="M159.024 133.836H73.4728C71.9525 133.835 70.4949 133.231 69.4199 132.156C68.3449 131.082 67.7403 129.626 67.7388 128.106V82.5467C67.7403 81.0269 68.3447 79.5697 69.4196 78.4945C70.4944 77.4193 71.952 76.8138 73.4728 76.8107H159.024C160.545 76.8138 162.003 77.4193 163.078 78.4945C164.153 79.5697 164.757 81.0269 164.759 82.5467V128.106C164.757 129.626 164.152 131.082 163.077 132.156C162.002 133.231 160.545 133.835 159.024 133.836ZM73.4728 77.3978C72.1073 77.3993 70.7983 77.9425 69.8333 78.9079C68.8683 79.8734 68.3263 81.1821 68.3263 82.5467V128.106C68.3278 129.47 68.8705 130.777 69.8354 131.741C70.8002 132.705 72.1083 133.248 73.4728 133.249H159.024C160.389 133.248 161.697 132.705 162.662 131.741C163.627 130.777 164.169 129.47 164.171 128.106V82.5467C164.171 81.1821 163.629 79.8734 162.664 78.9079C161.699 77.9425 160.39 77.3993 159.024 77.3978H73.4728Z" fill="#002947"/>
<path d="M131.277 113.393H101.226C100.181 113.393 99.3345 114.24 99.3345 115.284V127.66C99.3345 128.704 100.181 129.551 101.226 129.551H131.277C132.322 129.551 133.169 128.704 133.169 127.66V115.284C133.169 114.24 132.322 113.393 131.277 113.393Z" fill="white"/>
<path d="M131.277 129.844H101.22C100.642 129.843 100.087 129.612 99.6788 129.202C99.2702 128.793 99.0408 128.238 99.0408 127.66V115.278C99.0408 114.7 99.2704 114.146 99.6792 113.738C100.088 113.329 100.642 113.1 101.22 113.1H131.277C131.855 113.1 132.409 113.329 132.818 113.738C133.227 114.146 133.457 114.7 133.457 115.278V127.66C133.457 128.238 133.227 128.793 132.818 129.202C132.41 129.612 131.856 129.843 131.277 129.844ZM101.22 113.687C100.798 113.687 100.393 113.855 100.095 114.153C99.796 114.451 99.6283 114.856 99.6283 115.278V127.66C99.6275 127.87 99.6681 128.077 99.7478 128.271C99.8274 128.464 99.9446 128.641 100.093 128.789C100.24 128.937 100.416 129.055 100.61 129.135C100.803 129.216 101.011 129.257 101.22 129.257H131.277C131.486 129.257 131.694 129.216 131.888 129.135C132.081 129.055 132.257 128.937 132.405 128.789C132.553 128.641 132.67 128.464 132.75 128.271C132.829 128.077 132.87 127.87 132.869 127.66V115.278C132.869 114.856 132.701 114.451 132.403 114.153C132.104 113.855 131.699 113.687 131.277 113.687H101.22Z" fill="#D1D3D4"/>
<path d="M155.852 81.0966H76.6452C74.9775 81.0966 73.6255 82.4477 73.6255 84.1144V105.943C73.6255 107.61 74.9775 108.961 76.6452 108.961H155.852C157.52 108.961 158.872 107.61 158.872 105.943V84.1144C158.872 82.4477 157.52 81.0966 155.852 81.0966Z" fill="white"/>
<path d="M155.852 109.254H76.6453C75.767 109.253 74.9251 108.903 74.304 108.283C73.6829 107.662 73.3333 106.821 73.3318 105.943V84.1202C73.3318 83.2414 73.6807 82.3986 74.3019 81.7767C74.9232 81.1548 75.766 80.8046 76.6453 80.803H155.852C156.731 80.8046 157.574 81.1548 158.195 81.7767C158.817 82.3986 159.166 83.2414 159.166 84.1202V105.943C159.164 106.821 158.814 107.662 158.193 108.283C157.572 108.903 156.73 109.253 155.852 109.254ZM76.6453 81.3901C75.9218 81.3917 75.2284 81.68 74.7174 82.1918C74.2063 82.7036 73.9193 83.3972 73.9193 84.1202V105.943C73.9193 106.666 74.2065 107.358 74.7177 107.869C75.2289 108.38 75.9223 108.667 76.6453 108.667H155.852C156.575 108.667 157.268 108.38 157.78 107.869C158.291 107.358 158.578 106.666 158.578 105.943V84.1202C158.578 83.3972 158.291 82.7036 157.78 82.1918C157.269 81.68 156.576 81.3917 155.852 81.3901H76.6453Z" fill="#D1D3D4"/>
<path d="M75.0239 137.817H95.1047C95.6468 136.499 96.2972 135.229 97.0493 134.019C100.245 129.492 104.646 126.697 107.037 120.31C109.428 113.922 110.233 108.861 108.365 107.927C106.496 106.994 104.252 114.45 101.837 116.317C101.837 116.317 100.022 107.352 101.485 103.36C102.948 99.3674 105.938 96.3731 105.539 93.966C105.139 91.5589 104.029 92.2047 102.243 93.7194C101.309 94.5179 99.7518 97.0894 99.7518 97.0894C99.901 95.7819 100.341 94.5242 101.038 93.4082C102.86 90.7017 98.5533 89.504 95.3573 94.2948C95.3573 94.2948 96.6028 89.3689 94.1823 90.8308C91.7618 92.2927 89.2943 97.9349 89.2943 97.9349C89.2943 97.9349 90.6279 90.4786 87.5671 92.4747C84.5062 94.4709 83.3488 104.058 83.7483 108.327C84.1478 112.595 85.0408 122.482 82.3266 126.034C81.4629 127.196 78.543 131.946 75.0239 137.817Z" fill="white"/>
<path d="M95.1047 138.111H75.0239C74.9719 138.11 74.9209 138.097 74.8756 138.071C74.8304 138.045 74.7925 138.008 74.7654 137.964C74.7379 137.919 74.7234 137.867 74.7234 137.814C74.7234 137.761 74.7379 137.71 74.7654 137.664C78.8779 130.872 81.3219 126.897 82.1151 125.852C84.7941 122.329 83.8423 112.184 83.4839 108.356C83.0609 103.859 84.2359 94.3242 87.4261 92.2399C88.0899 91.8113 88.6481 91.735 89.0828 92.0286C89.9582 92.6157 89.9758 94.6471 89.8407 96.1912C90.7807 94.3829 92.4139 91.5941 94.0531 90.596C94.6406 90.232 95.1223 90.1792 95.4748 90.4434C96.0623 90.8778 96.0271 92.1166 95.8919 93.1089C97.4371 91.2947 99.0644 90.69 100.181 90.7604C100.475 90.7585 100.764 90.8354 101.018 90.9831C101.272 91.1307 101.482 91.3437 101.626 91.6C101.751 91.9312 101.785 92.2896 101.725 92.6384C101.665 92.9872 101.513 93.3138 101.285 93.5844C100.876 94.2112 100.563 94.896 100.357 95.6158C100.839 94.8516 101.407 94.1445 102.049 93.5081C103.283 92.4513 104.135 91.8877 104.834 92.146C105.339 92.328 105.65 92.8916 105.827 93.9073C106.079 95.4279 105.098 97.1071 103.964 99.0563C103.103 100.449 102.366 101.915 101.761 103.436C100.539 106.765 101.679 113.775 102.031 115.724C103.04 114.496 103.902 113.154 104.599 111.726C105.985 109.184 107.19 106.988 108.5 107.616C111.232 108.984 108.576 117.01 107.325 120.362C105.733 124.601 103.265 127.29 100.862 129.885C99.5812 131.228 98.3862 132.649 97.2843 134.142C96.5425 135.336 95.8999 136.589 95.3632 137.888C95.3487 137.947 95.3161 138.001 95.2697 138.041C95.2234 138.081 95.1657 138.105 95.1047 138.111ZM75.5409 137.524H94.9284C95.4593 136.249 96.094 135.019 96.8261 133.848C97.9444 132.335 99.1591 130.896 100.463 129.539C102.813 126.979 105.239 124.337 106.79 120.204C109.275 113.581 109.839 108.978 108.265 108.192C107.46 107.781 106.226 110.041 105.139 112.031C104.158 113.834 103.136 115.701 102.049 116.546C102.01 116.578 101.963 116.599 101.914 116.606C101.864 116.613 101.813 116.607 101.767 116.587C101.72 116.571 101.678 116.543 101.645 116.506C101.612 116.469 101.589 116.424 101.579 116.376C101.508 116.006 99.7636 107.282 101.238 103.26C101.854 101.705 102.607 100.208 103.488 98.7862C104.563 96.9368 105.492 95.3399 105.251 94.0247C105.122 93.2556 104.91 92.7918 104.663 92.692C104.211 92.5335 103.336 93.2028 102.46 93.9543C101.585 94.7058 100.051 97.2304 100.034 97.2538C99.9999 97.3106 99.9477 97.3542 99.8859 97.3776C99.8241 97.401 99.7561 97.403 99.6931 97.383C99.6302 97.3614 99.5761 97.3199 99.539 97.2648C99.5019 97.2097 99.4838 97.144 99.4874 97.0777C99.64 95.7191 100.098 94.4125 100.827 93.2556C100.993 93.0684 101.109 92.8415 101.162 92.5969C101.216 92.3522 101.206 92.0979 101.132 91.8583C101.032 91.6968 100.89 91.5645 100.722 91.4749C100.554 91.3852 100.365 91.3413 100.175 91.3475C99.0879 91.2653 97.2373 92.0521 95.6334 94.4709C95.5949 94.5282 95.5373 94.5701 95.4709 94.5892C95.4046 94.6083 95.3336 94.6033 95.2704 94.5753C95.2073 94.5473 95.1561 94.4979 95.1258 94.4359C95.0954 94.3738 95.088 94.3031 95.1047 94.2361C95.3926 93.0619 95.6041 91.2477 95.1517 90.9131C94.9696 90.778 94.5936 90.9718 94.3879 91.0951C92.0908 92.4983 89.6409 98.0112 89.6174 98.064C89.5888 98.1297 89.5372 98.1826 89.4723 98.2129C89.4074 98.2432 89.3336 98.2487 89.2649 98.2284C89.1967 98.2057 89.1387 98.1597 89.1011 98.0985C89.0635 98.0373 89.0487 97.9648 89.0593 97.8938C89.3824 96.0972 89.5881 93.0501 88.7832 92.5159C88.5658 92.3691 88.1957 92.4396 87.7786 92.7331C84.9292 94.5884 83.6661 103.941 84.0949 108.303C84.4944 112.554 85.4286 122.523 82.6144 126.21C81.8272 127.214 79.4537 131.018 75.5409 137.524Z" fill="#002947"/>
<path d="M131.077 102.661C129.838 101.775 128.416 104.792 129.315 109.231C130.214 113.669 135.53 123.075 139.614 126.979C140.689 128.001 142.304 131.429 144.114 135.927H163.625C158.819 126.85 154.712 119.129 154.36 118.636C153.467 117.392 152.533 109.513 152.779 104.88C152.981 100.643 152.669 96.3967 151.851 92.234C151.223 89.4805 150.23 88.5763 148.849 88.5763C147.468 88.5763 148.156 94.0423 148.156 94.0423C147.533 90.7839 145.4 87.0264 143.52 86.6506C141.64 86.2749 143.938 93.1969 143.938 93.1969C143.186 91.1948 139.085 84.7895 137.264 85.8052C136.676 86.134 135.19 86.5684 137.569 90.9541C139.948 95.3398 139.919 97.7235 139.919 97.7235C134.966 89.2691 131.107 89.5568 129.885 91.3299C128.663 93.1029 131.835 94.1715 134.326 97.9348C136.817 101.698 135.389 111.209 135.389 111.209C132.675 109.407 132.323 103.548 131.077 102.661ZM148.42 95.3633V95.2987V95.3633ZM148.379 95.1519L148.32 94.8349L148.379 95.1519ZM148.285 94.647C148.285 94.5531 148.25 94.4533 148.226 94.3417L148.285 94.647Z" fill="white"/>
<path d="M163.613 136.22H144.102C144.043 136.219 143.986 136.201 143.938 136.168C143.89 136.134 143.853 136.087 143.832 136.032C141.834 131.065 140.342 128.089 139.402 127.19C135.389 123.357 129.955 113.986 129.015 109.284C128.298 105.708 129.015 103.066 130.067 102.391C130.241 102.272 130.448 102.211 130.659 102.216C130.87 102.221 131.074 102.293 131.242 102.42C131.829 102.837 132.176 104.006 132.628 105.485C133.18 107.287 133.856 109.495 135.107 110.634C135.354 108.632 136.094 101.24 134.021 98.0699C133.162 96.8187 132.161 95.672 131.036 94.6529C129.679 93.3436 128.686 92.3984 129.585 91.1302C129.854 90.7492 130.217 90.4445 130.64 90.2459C131.062 90.0473 131.528 89.9616 131.994 89.9971C133.316 90.05 135.965 90.9717 139.373 96.3261C138.921 94.4767 138.215 92.6985 137.275 91.0422C136.147 88.9697 135.742 87.5195 136.018 86.5919C136.096 86.3595 136.223 86.1465 136.39 85.9672C136.557 85.788 136.761 85.6466 136.987 85.5527L137.087 85.494C137.268 85.3997 137.467 85.3475 137.671 85.3414C137.874 85.3353 138.077 85.3754 138.262 85.4588C139.719 85.9931 141.611 88.4824 142.886 90.5549C142.516 88.9638 142.263 87.1849 142.804 86.5743C142.9 86.4686 143.022 86.3909 143.159 86.3495C143.296 86.3081 143.441 86.3047 143.579 86.3394C145.13 86.6506 146.722 88.911 147.692 91.4003C147.692 90.2261 147.803 89.0519 148.244 88.5411C148.316 88.4549 148.406 88.3852 148.507 88.3366C148.609 88.288 148.719 88.2616 148.831 88.2593C150.494 88.2593 151.505 89.4335 152.116 92.1459C152.942 96.3354 153.257 100.609 153.056 104.874C152.803 109.571 153.784 117.327 154.577 118.442C154.894 118.883 157.932 124.548 163.866 135.762C163.89 135.806 163.903 135.856 163.903 135.906C163.903 135.956 163.89 136.006 163.866 136.05C163.842 136.098 163.806 136.139 163.762 136.169C163.718 136.199 163.666 136.216 163.613 136.22ZM144.302 135.633H163.102C156.022 122.253 154.289 119.088 154.084 118.806C153.132 117.474 152.198 109.524 152.45 104.863C152.651 100.653 152.341 96.4342 151.528 92.2986C150.841 89.275 149.766 88.8699 148.814 88.8699C148.781 88.8701 148.749 88.8782 148.721 88.8935C148.692 88.9089 148.668 88.931 148.649 88.9579C148.097 89.5803 148.209 92.3808 148.414 94.0012V94.0423C148.426 94.0826 148.426 94.1253 148.414 94.1656C148.439 94.1982 148.455 94.2366 148.461 94.2771L148.52 94.5824C148.526 94.6135 148.526 94.6453 148.52 94.6764C148.538 94.7051 148.55 94.737 148.555 94.7703L148.62 95.0815C148.604 95.1291 148.604 95.1806 148.62 95.2283H148.579L148.62 95.2811C148.623 95.2966 148.623 95.3125 148.62 95.3281C148.614 95.3898 148.589 95.448 148.547 95.4944C148.506 95.5408 148.451 95.573 148.391 95.5864C148.333 95.5972 148.274 95.5913 148.22 95.5694C148.166 95.5476 148.119 95.5107 148.085 95.4631C148.083 95.4456 148.083 95.4278 148.085 95.4103C148.082 95.3948 148.082 95.3788 148.085 95.3633V95.3104C148.082 95.2851 148.082 95.2595 148.085 95.2341C148.072 95.2102 148.062 95.1845 148.056 95.1578L148.05 94.9582V94.9112C148.047 94.8878 148.047 94.8642 148.05 94.8408C148.026 94.8076 148.01 94.7695 148.003 94.7292L147.944 94.4239C147.938 94.387 147.938 94.3493 147.944 94.3124C147.924 94.2803 147.91 94.2443 147.903 94.2067C147.9 94.1972 147.9 94.1868 147.903 94.1773C147.257 90.8308 145.118 87.3493 143.497 87.0264C143.35 86.997 143.303 87.0264 143.28 87.0792C142.745 87.6663 143.52 90.9952 144.237 93.1616C144.255 93.2328 144.246 93.3082 144.212 93.373C144.177 93.4377 144.119 93.4872 144.05 93.5115C143.981 93.5358 143.905 93.5333 143.837 93.5044C143.77 93.4755 143.715 93.4223 143.685 93.3554C143.027 91.5941 139.984 86.815 138.092 86.1222C137.989 86.0724 137.877 86.0465 137.763 86.0465C137.649 86.0465 137.536 86.0724 137.434 86.1222L137.316 86.1809C137.16 86.2398 137.018 86.3323 136.901 86.4521C136.785 86.5718 136.696 86.7158 136.641 86.8737C136.412 87.6252 136.817 88.9697 137.851 90.8719C140.242 95.2752 140.201 97.6882 140.201 97.788C140.198 97.8518 140.175 97.913 140.135 97.9626C140.095 98.0123 140.04 98.0478 139.978 98.064C139.917 98.0801 139.852 98.0756 139.793 98.0512C139.735 98.0268 139.686 97.9838 139.655 97.9289C136.03 91.7408 133.31 90.731 132.017 90.6782C131.651 90.6451 131.282 90.709 130.947 90.8636C130.613 91.0182 130.326 91.258 130.114 91.5588C129.526 92.3749 130.114 92.9972 131.494 94.3182C132.648 95.3695 133.675 96.5517 134.555 97.8409C137.076 101.657 135.73 110.928 135.666 111.344C135.659 111.393 135.64 111.439 135.61 111.479C135.58 111.518 135.541 111.548 135.495 111.567C135.452 111.591 135.403 111.603 135.354 111.603C135.305 111.603 135.257 111.591 135.213 111.567C133.539 110.452 132.752 107.869 132.117 105.796C131.729 104.534 131.365 103.342 130.942 103.043C130.868 102.983 130.776 102.951 130.681 102.951C130.586 102.951 130.493 102.983 130.419 103.043C129.691 103.518 128.927 105.843 129.626 109.331C130.531 113.851 135.971 123.227 139.843 126.944C140.812 127.725 142.281 130.625 144.302 135.633Z" fill="#002947"/>
<path d="M99.3346 135.927C98.8587 135.927 77.3445 128.623 77.3445 128.623C77.3445 128.623 67.5626 146.277 64.584 151.796L92.8897 156.334L99.3346 135.927Z" fill="#F8A8C3"/>
<path d="M161.128 127.361L138.48 131.582L144.631 153.499L173.377 151.321L161.128 127.361Z" fill="#F8A8C3"/>
<path d="M159.03 20.6656H73.4727C70.4682 20.6656 68.0325 23.0996 68.0325 26.1022V71.6677C68.0325 74.6702 70.4682 77.1043 73.4727 77.1043H159.03C162.035 77.1043 164.471 74.6702 164.471 71.6677V26.1022C164.471 23.0996 162.035 20.6656 159.03 20.6656Z" fill="white"/>
<path d="M159.024 77.3978H73.4728C71.9525 77.3963 70.4949 76.792 69.4199 75.7178C68.3449 74.6435 67.7403 73.1869 67.7388 71.6676V26.1022C67.7465 24.587 68.3539 23.1364 69.4282 22.0672C70.5025 20.998 71.9566 20.397 73.4728 20.3955H159.024C160.545 20.3971 162.002 21.0013 163.077 22.0756C164.152 23.1498 164.757 24.6064 164.759 26.1257V71.6911C164.751 73.2063 164.143 74.6569 163.069 75.7261C161.995 76.7953 160.541 77.3963 159.024 77.3978ZM73.4728 20.9826C72.1083 20.9842 70.8002 21.5265 69.8354 22.4907C68.8705 23.4549 68.3278 24.7621 68.3263 26.1257V71.6911C68.3278 73.0547 68.8705 74.3619 69.8354 75.3261C70.8002 76.2903 72.1083 76.8326 73.4728 76.8342H159.024C160.389 76.8326 161.697 76.2903 162.662 75.3261C163.627 74.3619 164.169 73.0547 164.171 71.6911V26.1022C164.163 24.7427 163.618 23.4415 162.654 22.4824C161.689 21.5233 160.385 20.9841 159.024 20.9826H73.4728Z" fill="#002947"/>
<path d="M160.47 25.4564H72.8267V72.5776H160.47V25.4564Z" fill="#F8A8C3"/>
<path d="M160.47 72.8712H72.8501C72.7722 72.8712 72.6975 72.8403 72.6424 72.7852C72.5873 72.7302 72.5564 72.6555 72.5564 72.5777V25.4564C72.5564 25.3785 72.5873 25.3039 72.6424 25.2488C72.6975 25.1938 72.7722 25.1628 72.8501 25.1628H160.47C160.548 25.1628 160.623 25.1938 160.678 25.2488C160.733 25.3039 160.764 25.3785 160.764 25.4564V72.5777C160.764 72.6555 160.733 72.7302 160.678 72.7852C160.623 72.8403 160.548 72.8712 160.47 72.8712ZM73.1204 72.2841H160.176V25.7499H73.1204V72.2841Z" fill="#002947"/>
<path d="M160.47 31.4331H72.8501C72.7722 31.4331 72.6975 31.4022 72.6424 31.3471C72.5873 31.2921 72.5564 31.2174 72.5564 31.1396C72.5564 31.0617 72.5873 30.987 72.6424 30.932C72.6975 30.8769 72.7722 30.846 72.8501 30.846H160.47C160.548 30.846 160.623 30.8769 160.678 30.932C160.733 30.987 160.764 31.0617 160.764 31.1396C160.764 31.2174 160.733 31.2921 160.678 31.3471C160.623 31.4022 160.548 31.4331 160.47 31.4331Z" fill="#002947"/>
<path d="M76.1696 29.1727C76.7049 29.1727 77.1389 28.739 77.1389 28.204C77.1389 27.669 76.7049 27.2353 76.1696 27.2353C75.6342 27.2353 75.2002 27.669 75.2002 28.204C75.2002 28.739 75.6342 29.1727 76.1696 29.1727Z" fill="#002947"/>
<path d="M76.1694 29.4663C75.9195 29.4663 75.6753 29.3923 75.4676 29.2536C75.2599 29.1149 75.098 28.9178 75.0024 28.6871C74.9068 28.4565 74.8818 28.2027 74.9305 27.9578C74.9793 27.7129 75.0996 27.488 75.2762 27.3115C75.4529 27.135 75.6779 27.0147 75.9229 26.966C76.168 26.9173 76.4219 26.9423 76.6527 27.0379C76.8835 27.1334 77.0808 27.2952 77.2196 27.5028C77.3584 27.7103 77.4325 27.9544 77.4325 28.2041C77.4333 28.37 77.4011 28.5345 77.3379 28.688C77.2747 28.8415 77.1817 28.981 77.0643 29.0984C76.9468 29.2157 76.8073 29.3087 76.6537 29.3718C76.5001 29.435 76.3354 29.4671 76.1694 29.4663ZM76.1694 27.5348C76.0355 27.5348 75.9046 27.5745 75.7934 27.649C75.6822 27.7234 75.5956 27.8292 75.5446 27.9529C75.4937 28.0766 75.4806 28.2127 75.5072 28.3438C75.5337 28.4749 75.5987 28.5952 75.6937 28.6894C75.7888 28.7836 75.9098 28.8475 76.0412 28.8728C76.1726 28.8982 76.3087 28.884 76.432 28.832C76.5554 28.78 76.6605 28.6926 76.734 28.5808C76.8075 28.4689 76.8461 28.3378 76.845 28.2041C76.845 28.1157 76.8275 28.0282 76.7934 27.9466C76.7594 27.865 76.7096 27.7909 76.6467 27.7287C76.5839 27.6665 76.5094 27.6173 76.4275 27.584C76.3455 27.5507 76.2578 27.534 76.1694 27.5348Z" fill="#002947"/>
<path d="M80.5697 29.1727C81.1051 29.1727 81.5391 28.739 81.5391 28.204C81.5391 27.669 81.1051 27.2353 80.5697 27.2353C80.0343 27.2353 79.6003 27.669 79.6003 28.204C79.6003 28.739 80.0343 29.1727 80.5697 29.1727Z" fill="#002947"/>
<path d="M80.5698 29.4663C80.3197 29.4675 80.0749 29.3944 79.8664 29.2564C79.6579 29.1185 79.4951 28.9217 79.3986 28.6912C79.3021 28.4606 79.2763 28.2066 79.3243 27.9614C79.3724 27.7162 79.4923 27.4907 79.6687 27.3136C79.8451 27.1364 80.0701 27.0156 80.3153 26.9665C80.5605 26.9173 80.8148 26.9419 81.0459 27.0373C81.277 27.1327 81.4747 27.2944 81.6137 27.5021C81.7528 27.7099 81.827 27.9541 81.827 28.204C81.827 28.5378 81.6947 28.858 81.4591 29.0945C81.2235 29.3311 80.9038 29.4648 80.5698 29.4663ZM80.5698 27.5347C80.4357 27.5336 80.3042 27.5723 80.1922 27.6461C80.0802 27.7198 79.9927 27.8252 79.9409 27.9488C79.889 28.0724 79.8751 28.2087 79.901 28.3402C79.9269 28.4717 79.9913 28.5925 80.0862 28.6873C80.181 28.7821 80.3019 28.8465 80.4335 28.8724C80.5652 28.8982 80.7015 28.8844 80.8252 28.8325C80.9489 28.7807 81.0543 28.6933 81.1281 28.5813C81.2019 28.4694 81.2407 28.3381 81.2395 28.204C81.238 28.027 81.1669 27.8577 81.0417 27.7325C80.9164 27.6073 80.7469 27.5363 80.5698 27.5347Z" fill="#002947"/>
<path d="M84.9642 29.1727C85.4996 29.1727 85.9336 28.739 85.9336 28.204C85.9336 27.669 85.4996 27.2353 84.9642 27.2353C84.4289 27.2353 83.9949 27.669 83.9949 28.204C83.9949 28.739 84.4289 29.1727 84.9642 29.1727Z" fill="#002947"/>
<path d="M84.9643 29.4663C84.7145 29.4663 84.4703 29.3923 84.2625 29.2536C84.0548 29.1149 83.8929 28.9178 83.7973 28.6871C83.7017 28.4565 83.6767 28.2027 83.7254 27.9578C83.7742 27.7129 83.8945 27.488 84.0711 27.3115C84.2478 27.135 84.4729 27.0147 84.7179 26.966C84.9629 26.9173 85.2169 26.9423 85.4477 27.0379C85.6785 27.1334 85.8758 27.2952 86.0145 27.5028C86.1533 27.7104 86.2274 27.9544 86.2274 28.2041C86.2274 28.5388 86.0943 28.8599 85.8575 29.0966C85.6206 29.3333 85.2993 29.4663 84.9643 29.4663ZM84.9643 27.5348C84.8304 27.5348 84.6996 27.5745 84.5883 27.649C84.4771 27.7234 84.3905 27.8292 84.3396 27.9529C84.2886 28.0766 84.2756 28.2127 84.3021 28.3438C84.3287 28.475 84.3936 28.5952 84.4887 28.6894C84.5838 28.7836 84.7047 28.8475 84.8361 28.8728C84.9676 28.8982 85.1036 28.884 85.2269 28.832C85.3503 28.78 85.4554 28.6926 85.5289 28.5808C85.6025 28.4689 85.6411 28.3378 85.6399 28.2041C85.6384 28.026 85.5665 27.8558 85.44 27.7304C85.3134 27.6051 85.1425 27.5347 84.9643 27.5348Z" fill="#002947"/>
<path d="M79.6004 72.8712C79.5225 72.8712 79.4478 72.8403 79.3927 72.7852C79.3376 72.7302 79.3066 72.6555 79.3066 72.5776V31.1396C79.3066 31.0617 79.3376 30.987 79.3927 30.932C79.4478 30.8769 79.5225 30.846 79.6004 30.846C79.6783 30.846 79.753 30.8769 79.8081 30.932C79.8632 30.987 79.8941 31.0617 79.8941 31.1396V72.5776C79.8941 72.6555 79.8632 72.7302 79.8081 72.7852C79.753 72.8403 79.6783 72.8712 79.6004 72.8712Z" fill="#002947"/>
<path d="M95.6979 34.4861H83.3604C83.2825 34.4861 83.2078 34.4552 83.1527 34.4001C83.0976 34.3451 83.0667 34.2704 83.0667 34.1925C83.0667 34.1147 83.0976 34.04 83.1527 33.985C83.2078 33.9299 83.2825 33.899 83.3604 33.899H95.6979C95.7758 33.899 95.8505 33.9299 95.9056 33.985C95.9607 34.04 95.9916 34.1147 95.9916 34.1925C95.9916 34.2704 95.9607 34.3451 95.9056 34.4001C95.8505 34.4552 95.7758 34.4861 95.6979 34.4861Z" fill="white"/>
<path d="M102.777 34.4861H98.753C98.6751 34.4861 98.6004 34.4552 98.5453 34.4001C98.4902 34.3451 98.4592 34.2704 98.4592 34.1925C98.4592 34.1147 98.4902 34.04 98.5453 33.985C98.6004 33.9299 98.6751 33.899 98.753 33.899H102.777C102.855 33.899 102.93 33.9299 102.985 33.985C103.04 34.04 103.071 34.1147 103.071 34.1925C103.071 34.2704 103.04 34.3451 102.985 34.4001C102.93 34.4552 102.855 34.4861 102.777 34.4861Z" fill="#002947"/>
<path d="M113.705 34.4861H105.192C105.114 34.4861 105.039 34.4552 104.984 34.4001C104.929 34.3451 104.898 34.2704 104.898 34.1925C104.898 34.1147 104.929 34.04 104.984 33.985C105.039 33.9299 105.114 33.899 105.192 33.899H113.705C113.783 33.899 113.857 33.9299 113.913 33.985C113.968 34.04 113.999 34.1147 113.999 34.1925C113.999 34.2311 113.991 34.2693 113.976 34.3049C113.961 34.3405 113.94 34.3729 113.913 34.4001C113.885 34.4274 113.853 34.449 113.817 34.4638C113.782 34.4785 113.743 34.4861 113.705 34.4861Z" fill="#002947"/>
<path d="M91.7617 38.1966H83.337C83.2591 38.1966 83.1843 38.1657 83.1292 38.1106C83.0742 38.0556 83.0432 37.9809 83.0432 37.903C83.0432 37.8252 83.0742 37.7505 83.1292 37.6955C83.1843 37.6404 83.2591 37.6095 83.337 37.6095H91.7617C91.8396 37.6095 91.9144 37.6404 91.9694 37.6955C92.0245 37.7505 92.0555 37.8252 92.0555 37.903C92.054 37.9804 92.0225 38.0542 91.9678 38.109C91.913 38.1637 91.8392 38.1951 91.7617 38.1966Z" fill="white"/>
<path d="M129.092 38.1966H94.3233C94.2459 38.1951 94.172 38.1637 94.1172 38.109C94.0625 38.0542 94.031 37.9804 94.0295 37.903C94.0295 37.8252 94.0605 37.7505 94.1156 37.6955C94.1707 37.6404 94.2454 37.6095 94.3233 37.6095H129.092C129.169 37.6095 129.244 37.6404 129.299 37.6955C129.354 37.7505 129.385 37.8252 129.385 37.903C129.385 37.9416 129.378 37.9798 129.363 38.0154C129.348 38.051 129.327 38.0834 129.299 38.1106C129.272 38.1379 129.24 38.1595 129.204 38.1743C129.168 38.189 129.13 38.1966 129.092 38.1966Z" fill="#002947"/>
<path d="M148.72 38.1966H131.747C131.669 38.1966 131.594 38.1657 131.539 38.1106C131.484 38.0556 131.453 37.9809 131.453 37.903C131.453 37.8252 131.484 37.7505 131.539 37.6955C131.594 37.6404 131.669 37.6095 131.747 37.6095H148.72C148.798 37.6095 148.872 37.6404 148.927 37.6955C148.983 37.7505 149.013 37.8252 149.013 37.903C149.012 37.9804 148.981 38.0542 148.926 38.109C148.871 38.1637 148.797 38.1951 148.72 38.1966Z" fill="white"/>
<path d="M113.705 41.731H83.337C83.2591 41.731 83.1843 41.7001 83.1292 41.6451C83.0742 41.59 83.0432 41.5153 83.0432 41.4375C83.0432 41.3596 83.0742 41.285 83.1292 41.2299C83.1843 41.1749 83.2591 41.1439 83.337 41.1439H113.705C113.783 41.1439 113.857 41.1749 113.913 41.2299C113.968 41.285 113.999 41.3596 113.999 41.4375C113.999 41.5153 113.968 41.59 113.913 41.6451C113.857 41.7001 113.783 41.731 113.705 41.731Z" fill="white"/>
<path d="M126.8 41.731H116.36C116.282 41.731 116.208 41.7001 116.153 41.6451C116.098 41.59 116.067 41.5153 116.067 41.4375C116.068 41.3601 116.1 41.2863 116.154 41.2316C116.209 41.1768 116.283 41.1454 116.36 41.1439H126.8C126.878 41.1439 126.953 41.1749 127.008 41.2299C127.063 41.285 127.094 41.3596 127.094 41.4375C127.094 41.5153 127.063 41.59 127.008 41.6451C126.953 41.7001 126.878 41.731 126.8 41.731Z" fill="#002947"/>
<path d="M87.5376 48.1364H83.3252C83.2473 48.1364 83.1726 48.1054 83.1175 48.0504C83.0624 47.9953 83.0315 47.9207 83.0315 47.8428C83.0315 47.765 83.0624 47.6903 83.1175 47.6352C83.1726 47.5802 83.2473 47.5493 83.3252 47.5493H87.5376C87.615 47.5508 87.6889 47.5822 87.7437 47.6369C87.7984 47.6916 87.8298 47.7654 87.8314 47.8428C87.8314 47.9207 87.8004 47.9953 87.7453 48.0504C87.6902 48.1054 87.6155 48.1364 87.5376 48.1364Z" fill="white"/>
<path d="M100.762 48.1364H90.1109C90.033 48.1364 89.9583 48.1054 89.9032 48.0504C89.8481 47.9953 89.8171 47.9207 89.8171 47.8428C89.8186 47.7654 89.8501 47.6916 89.9048 47.6369C89.9596 47.5822 90.0335 47.5508 90.1109 47.5493H100.762C100.84 47.5493 100.915 47.5802 100.97 47.6352C101.025 47.6903 101.056 47.765 101.056 47.8428C101.056 47.9207 101.025 47.9953 100.97 48.0504C100.915 48.1054 100.84 48.1364 100.762 48.1364Z" fill="#002947"/>
<path d="M92.3081 51.4359H83.337C83.2591 51.4359 83.1843 51.405 83.1292 51.35C83.0742 51.2949 83.0432 51.2202 83.0432 51.1424C83.0432 51.0645 83.0742 50.9899 83.1292 50.9348C83.1843 50.8797 83.2591 50.8488 83.337 50.8488H92.3081C92.386 50.8488 92.4607 50.8797 92.5158 50.9348C92.5709 50.9899 92.6019 51.0645 92.6019 51.1424C92.6019 51.2202 92.5709 51.2949 92.5158 51.35C92.4607 51.405 92.386 51.4359 92.3081 51.4359Z" fill="white"/>
<path d="M111.707 51.4359H94.3233C94.2459 51.4344 94.172 51.403 94.1172 51.3483C94.0625 51.2936 94.031 51.2198 94.0295 51.1424C94.0295 51.0645 94.0605 50.9899 94.1156 50.9348C94.1707 50.8797 94.2454 50.8488 94.3233 50.8488H111.707C111.785 50.8488 111.86 50.8797 111.915 50.9348C111.97 50.9899 112.001 51.0645 112.001 51.1424C112.001 51.2202 111.97 51.2949 111.915 51.35C111.86 51.405 111.785 51.4359 111.707 51.4359Z" fill="#002947"/>
<path d="M123.563 51.4359H114.163C114.086 51.4344 114.012 51.403 113.957 51.3483C113.902 51.2936 113.871 51.2198 113.869 51.1424C113.869 51.0645 113.9 50.9899 113.955 50.9348C114.011 50.8797 114.085 50.8488 114.163 50.8488H123.563C123.641 50.8488 123.716 50.8797 123.771 50.9348C123.826 50.9899 123.857 51.0645 123.857 51.1424C123.857 51.2202 123.826 51.2949 123.771 51.35C123.716 51.405 123.641 51.4359 123.563 51.4359Z" fill="white"/>
<path d="M96.0975 54.9703H83.337C83.2591 54.9703 83.1843 54.9393 83.1292 54.8843C83.0742 54.8292 83.0432 54.7546 83.0432 54.6767C83.0432 54.5989 83.0742 54.5242 83.1292 54.4692C83.1843 54.4141 83.2591 54.3832 83.337 54.3832H96.0975C96.1749 54.3847 96.2488 54.4161 96.3035 54.4708C96.3583 54.5255 96.3897 54.5993 96.3912 54.6767C96.3912 54.7546 96.3603 54.8292 96.3052 54.8843C96.2501 54.9393 96.1754 54.9703 96.0975 54.9703Z" fill="white"/>
<path d="M120.026 54.9703H98.753C98.6751 54.9703 98.6004 54.9393 98.5453 54.8843C98.4902 54.8292 98.4592 54.7546 98.4592 54.6767C98.4592 54.5989 98.4902 54.5242 98.5453 54.4692C98.6004 54.4141 98.6751 54.3832 98.753 54.3832H120.026C120.104 54.3847 120.178 54.4161 120.232 54.4708C120.287 54.5255 120.319 54.5993 120.32 54.6767C120.32 54.7546 120.289 54.8292 120.234 54.8843C120.179 54.9393 120.104 54.9703 120.026 54.9703Z" fill="#002947"/>
<path d="M140.23 54.9703H123.075C122.998 54.9703 122.923 54.9393 122.868 54.8843C122.813 54.8292 122.782 54.7546 122.782 54.6767C122.783 54.5993 122.815 54.5255 122.869 54.4708C122.924 54.4161 122.998 54.3847 123.075 54.3832H140.23C140.308 54.3832 140.383 54.4141 140.438 54.4692C140.493 54.5242 140.524 54.5989 140.524 54.6767C140.524 54.7546 140.493 54.8292 140.438 54.8843C140.383 54.9393 140.308 54.9703 140.23 54.9703Z" fill="white"/>
<path d="M96.0975 61.2875H83.337C83.2591 61.2875 83.1843 61.2566 83.1292 61.2016C83.0742 61.1465 83.0432 61.0718 83.0432 60.994C83.0432 60.9161 83.0742 60.8415 83.1292 60.7864C83.1843 60.7314 83.2591 60.7004 83.337 60.7004H96.0975C96.1754 60.7004 96.2501 60.7314 96.3052 60.7864C96.3603 60.8415 96.3912 60.9161 96.3912 60.994C96.3897 61.0714 96.3583 61.1452 96.3035 61.1999C96.2488 61.2546 96.1749 61.286 96.0975 61.2875Z" fill="white"/>
<path d="M103.018 61.2875H98.5237C98.4458 61.2875 98.3711 61.2566 98.316 61.2016C98.2609 61.1465 98.23 61.0718 98.23 60.994C98.23 60.9161 98.2609 60.8415 98.316 60.7864C98.3711 60.7314 98.4458 60.7004 98.5237 60.7004H103.018C103.096 60.7004 103.171 60.7314 103.226 60.7864C103.281 60.8415 103.312 60.9161 103.312 60.994C103.31 61.0714 103.279 61.1452 103.224 61.1999C103.169 61.2546 103.096 61.286 103.018 61.2875Z" fill="#002947"/>
<path d="M114.163 61.2875H105.192C105.114 61.2875 105.039 61.2566 104.984 61.2016C104.929 61.1465 104.898 61.0718 104.898 60.994C104.898 60.9161 104.929 60.8415 104.984 60.7864C105.039 60.7314 105.114 60.7004 105.192 60.7004H114.163C114.241 60.7004 114.316 60.7314 114.371 60.7864C114.426 60.8415 114.457 60.9161 114.457 60.994C114.457 61.0718 114.426 61.1465 114.371 61.2016C114.316 61.2566 114.241 61.2875 114.163 61.2875Z" fill="#002947"/>
<path d="M91.7617 64.5813H83.337C83.2591 64.5813 83.1843 64.5503 83.1292 64.4953C83.0742 64.4402 83.0432 64.3656 83.0432 64.2877C83.0432 64.2098 83.0742 64.1352 83.1292 64.0801C83.1843 64.0251 83.2591 63.9941 83.337 63.9941H91.7617C91.8396 63.9941 91.9144 64.0251 91.9694 64.0801C92.0245 64.1352 92.0555 64.2098 92.0555 64.2877C92.054 64.3651 92.0225 64.4389 91.9678 64.4936C91.913 64.5483 91.8392 64.5798 91.7617 64.5813Z" fill="white"/>
<path d="M129.092 64.5813H93.959C93.8811 64.5813 93.8064 64.5503 93.7513 64.4953C93.6962 64.4402 93.6653 64.3656 93.6653 64.2877C93.6653 64.2098 93.6962 64.1352 93.7513 64.0801C93.8064 64.0251 93.8811 63.9941 93.959 63.9941H129.092C129.169 63.9941 129.244 64.0251 129.299 64.0801C129.354 64.1352 129.385 64.2098 129.385 64.2877C129.385 64.3262 129.378 64.3644 129.363 64.4C129.348 64.4357 129.327 64.468 129.299 64.4953C129.272 64.5225 129.24 64.5442 129.204 64.5589C129.168 64.5737 129.13 64.5813 129.092 64.5813Z" fill="#002947"/>
<path d="M149.812 64.5813H131.747C131.669 64.5813 131.594 64.5503 131.539 64.4953C131.484 64.4402 131.453 64.3656 131.453 64.2877C131.453 64.2098 131.484 64.1352 131.539 64.0801C131.594 64.0251 131.669 63.9941 131.747 63.9941H149.812C149.89 63.9941 149.965 64.0251 150.02 64.0801C150.075 64.1352 150.106 64.2098 150.106 64.2877C150.105 64.3651 150.073 64.4389 150.019 64.4936C149.964 64.5483 149.89 64.5798 149.812 64.5813Z" fill="#002947"/>
<path d="M113.705 68.2683H82.6673C82.5894 68.2683 82.5147 68.2373 82.4596 68.1823C82.4045 68.1272 82.3735 68.0526 82.3735 67.9747C82.3735 67.8969 82.4045 67.8222 82.4596 67.7671C82.5147 67.7121 82.5894 67.6812 82.6673 67.6812H113.705C113.783 67.6812 113.858 67.7121 113.913 67.7671C113.968 67.8222 113.999 67.8969 113.999 67.9747C113.999 68.0133 113.991 68.0514 113.976 68.087C113.962 68.1227 113.94 68.155 113.913 68.1823C113.885 68.2095 113.853 68.2312 113.817 68.2459C113.782 68.2607 113.743 68.2683 113.705 68.2683Z" fill="white"/>
<path d="M125.884 68.2683H116.36C116.282 68.2683 116.208 68.2373 116.153 68.1823C116.098 68.1272 116.067 68.0526 116.067 67.9747C116.068 67.8973 116.1 67.8235 116.154 67.7688C116.209 67.7141 116.283 67.6827 116.36 67.6812H125.884C125.962 67.6812 126.036 67.7121 126.091 67.7671C126.147 67.8222 126.178 67.8969 126.178 67.9747C126.178 68.0526 126.147 68.1272 126.091 68.1823C126.036 68.2373 125.962 68.2683 125.884 68.2683Z" fill="#002947"/>
<path d="M75.9344 35.3726C76.4666 35.3726 76.8979 34.9415 76.8979 34.4098C76.8979 33.878 76.4666 33.4469 75.9344 33.4469C75.4023 33.4469 74.9709 33.878 74.9709 34.4098C74.9709 34.9415 75.4023 35.3726 75.9344 35.3726Z" fill="white"/>
<path d="M75.9344 38.8659C76.4666 38.8659 76.8979 38.4348 76.8979 37.903C76.8979 37.3713 76.4666 36.9402 75.9344 36.9402C75.4023 36.9402 74.9709 37.3713 74.9709 37.903C74.9709 38.4348 75.4023 38.8659 75.9344 38.8659Z" fill="white"/>
<path d="M75.9344 42.3592C76.4666 42.3592 76.8979 41.9281 76.8979 41.3963C76.8979 40.8646 76.4666 40.4335 75.9344 40.4335C75.4023 40.4335 74.9709 40.8646 74.9709 41.3963C74.9709 41.9281 75.4023 42.3592 75.9344 42.3592Z" fill="white"/>
<path d="M75.9344 48.8702C76.4666 48.8702 76.8979 48.4391 76.8979 47.9074C76.8979 47.3756 76.4666 46.9445 75.9344 46.9445C75.4023 46.9445 74.9709 47.3756 74.9709 47.9074C74.9709 48.4391 75.4023 48.8702 75.9344 48.8702Z" fill="white"/>
<path d="M75.9344 52.3635C76.4666 52.3635 76.8979 51.9324 76.8979 51.4007C76.8979 50.8689 76.4666 50.4378 75.9344 50.4378C75.4023 50.4378 74.9709 50.8689 74.9709 51.4007C74.9709 51.9324 75.4023 52.3635 75.9344 52.3635Z" fill="white"/>
<path d="M75.9344 55.8568C76.4666 55.8568 76.8979 55.4257 76.8979 54.8939C76.8979 54.3622 76.4666 53.9311 75.9344 53.9311C75.4023 53.9311 74.9709 54.3622 74.9709 54.8939C74.9709 55.4257 75.4023 55.8568 75.9344 55.8568Z" fill="white"/>
<path d="M75.9344 61.9569C76.4666 61.9569 76.8979 61.5258 76.8979 60.994C76.8979 60.4623 76.4666 60.0312 75.9344 60.0312C75.4023 60.0312 74.9709 60.4623 74.9709 60.994C74.9709 61.5258 75.4023 61.9569 75.9344 61.9569Z" fill="white"/>
<path d="M75.9344 65.4502C76.4666 65.4502 76.8979 65.0191 76.8979 64.4873C76.8979 63.9556 76.4666 63.5245 75.9344 63.5245C75.4023 63.5245 74.9709 63.9556 74.9709 64.4873C74.9709 65.0191 75.4023 65.4502 75.9344 65.4502Z" fill="white"/>
<path d="M75.9344 68.9376C76.4666 68.9376 76.8979 68.5065 76.8979 67.9747C76.8979 67.4429 76.4666 67.0118 75.9344 67.0118C75.4023 67.0118 74.9709 67.4429 74.9709 67.9747C74.9709 68.5065 75.4023 68.9376 75.9344 68.9376Z" fill="white"/>
<path d="M58.8852 28.0279H35.0562V49.2871H58.8852V28.0279Z" fill="white"/>
<path d="M58.8855 49.5807H35.0564C34.9785 49.5807 34.9038 49.5497 34.8487 49.4947C34.7936 49.4396 34.7627 49.365 34.7627 49.2871V28.0279C34.7627 27.9501 34.7936 27.8754 34.8487 27.8204C34.9038 27.7653 34.9785 27.7344 35.0564 27.7344H58.8855C58.9629 27.7359 59.0367 27.7673 59.0915 27.822C59.1463 27.8767 59.1777 27.9505 59.1792 28.0279V49.2871C59.1792 49.365 59.1483 49.4396 59.0932 49.4947C59.0381 49.5497 58.9634 49.5807 58.8855 49.5807ZM35.3502 48.9936H58.5917V28.3215H35.3502V48.9936Z" fill="#D1D3D4"/>
<path d="M42.7526 42.9816C42.6808 42.9807 42.6118 42.9535 42.5587 42.9052L38.3933 39.2358C38.3338 39.181 38.298 39.1052 38.2935 39.0245C38.2927 38.9461 38.3222 38.8704 38.3757 38.8131L42.5411 34.4274C42.5684 34.3999 42.6009 34.3781 42.6367 34.3632C42.6725 34.3482 42.7109 34.3406 42.7497 34.3406C42.7884 34.3406 42.8268 34.3482 42.8626 34.3632C42.8984 34.3781 42.9309 34.3999 42.9582 34.4274C42.9856 34.4542 43.0073 34.4862 43.0221 34.5214C43.037 34.5567 43.0446 34.5946 43.0446 34.6329C43.0446 34.6712 43.037 34.7091 43.0221 34.7443C43.0073 34.7796 42.9856 34.8116 42.9582 34.8384L39.0102 38.9951L42.9465 42.4649C43.0048 42.5169 43.0405 42.5895 43.0459 42.6674C43.0514 42.7452 43.0263 42.8222 42.9758 42.8818C42.9475 42.9129 42.9131 42.9378 42.8746 42.955C42.8362 42.9721 42.7947 42.9812 42.7526 42.9816Z" fill="#D1D3D4"/>
<path d="M50.3663 42.9815C50.3055 42.9834 50.2456 42.9663 50.1949 42.9327C50.1442 42.8991 50.1052 42.8506 50.0833 42.7939C50.0614 42.7372 50.0576 42.6751 50.0725 42.6161C50.0874 42.5572 50.1203 42.5043 50.1665 42.4649L54.1028 38.9951L50.1489 34.8325C50.1215 34.8057 50.0998 34.7737 50.085 34.7384C50.0701 34.7031 50.0625 34.6652 50.0625 34.627C50.0625 34.5887 50.0701 34.5508 50.085 34.5155C50.0998 34.4802 50.1215 34.4483 50.1489 34.4215C50.2048 34.3673 50.2796 34.337 50.3575 34.337C50.4353 34.337 50.5101 34.3673 50.566 34.4215L54.7314 38.8072C54.7583 38.8351 54.7789 38.8683 54.7921 38.9047C54.8053 38.9412 54.8106 38.9799 54.8078 39.0185C54.808 39.0584 54.7997 39.0979 54.7835 39.1343C54.7673 39.1707 54.7435 39.2033 54.7138 39.2299L50.5484 42.8993C50.4992 42.9472 50.4347 42.9762 50.3663 42.9815Z" fill="#D1D3D4"/>
<path d="M43.8512 44.1264C43.8038 44.1267 43.7572 44.1146 43.716 44.0912C43.6817 44.0739 43.6512 44.0498 43.6264 44.0205C43.6015 43.9912 43.5828 43.9572 43.5713 43.9205C43.5598 43.8839 43.5557 43.8453 43.5594 43.807C43.5631 43.7688 43.5744 43.7317 43.5927 43.6978L48.7627 33.764C48.7791 33.7273 48.803 33.6943 48.8328 33.6672C48.8626 33.6401 48.8976 33.6194 48.9357 33.6064C48.9738 33.5934 49.0142 33.5883 49.0543 33.5916C49.0945 33.5948 49.1335 33.6063 49.169 33.6253C49.2046 33.6442 49.2358 33.6703 49.2608 33.7018C49.2858 33.7333 49.3041 33.7697 49.3145 33.8086C49.3249 33.8475 49.3271 33.8881 49.3211 33.9279C49.3151 33.9677 49.301 34.0058 49.2797 34.0399L44.1097 43.9679C44.0851 44.0153 44.048 44.0552 44.0025 44.0831C43.9569 44.111 43.9046 44.126 43.8512 44.1264Z" fill="#D1D3D4"/>
<path d="M209.226 29.0612H172.378V83.3452H209.226V29.0612Z" fill="white"/>
<path d="M209.221 83.6387H172.378C172.301 83.6387 172.226 83.6078 172.171 83.5528C172.116 83.4977 172.085 83.423 172.085 83.3452V29.0612C172.085 28.9833 172.116 28.9087 172.171 28.8536C172.226 28.7986 172.301 28.7676 172.378 28.7676H209.221C209.298 28.7676 209.373 28.7986 209.428 28.8536C209.483 28.9087 209.514 28.9833 209.514 29.0612V83.3452C209.514 83.423 209.483 83.4977 209.428 83.5528C209.373 83.6078 209.298 83.6387 209.221 83.6387ZM172.672 83.0516H208.927V29.3547H172.672V83.0516Z" fill="#D1D3D4"/>
<path d="M209.221 32.9361H172.378C172.301 32.9361 172.226 32.9052 172.171 32.8501C172.116 32.7951 172.085 32.7204 172.085 32.6425C172.085 32.5647 172.116 32.49 172.171 32.435C172.226 32.3799 172.301 32.349 172.378 32.349H209.221C209.298 32.349 209.373 32.3799 209.428 32.435C209.483 32.49 209.514 32.5647 209.514 32.6425C209.514 32.7204 209.483 32.7951 209.428 32.8501C209.373 32.9052 209.298 32.9361 209.221 32.9361Z" fill="#D1D3D4"/>
<path d="M188.987 42.87H177.314C177.236 42.87 177.161 42.8391 177.106 42.784C177.051 42.729 177.02 42.6543 177.02 42.5765V36.0478C177.02 35.97 177.051 35.8953 177.106 35.8403C177.161 35.7852 177.236 35.7543 177.314 35.7543H188.987C189.065 35.7543 189.14 35.7852 189.195 35.8403C189.25 35.8953 189.281 35.97 189.281 36.0478V42.5765C189.281 42.6543 189.25 42.729 189.195 42.784C189.14 42.8391 189.065 42.87 188.987 42.87ZM177.607 42.2829H188.693V36.3414H177.607V42.2829Z" fill="#D1D3D4"/>
<path d="M205.408 58.0937H193.734C193.656 58.0937 193.582 58.0628 193.526 58.0077C193.471 57.9527 193.44 57.878 193.44 57.8002V51.2715C193.44 51.1937 193.471 51.119 193.526 51.064C193.582 51.0089 193.656 50.978 193.734 50.978H205.408C205.486 50.978 205.56 51.0089 205.615 51.064C205.671 51.119 205.702 51.1937 205.702 51.2715V57.8002C205.702 57.878 205.671 57.9527 205.615 58.0077C205.56 58.0628 205.486 58.0937 205.408 58.0937ZM194.028 57.5066H205.114V51.5651H194.028V57.5066Z" fill="#D1D3D4"/>
<path d="M188.987 61.3581H177.314C177.236 61.3581 177.161 61.3271 177.106 61.2721C177.051 61.217 177.02 61.1424 177.02 61.0645V54.5359C177.02 54.458 177.051 54.3833 177.106 54.3283C177.161 54.2732 177.236 54.2423 177.314 54.2423H188.987C189.065 54.2438 189.138 54.2752 189.193 54.33C189.248 54.3847 189.279 54.4585 189.281 54.5359V61.0645C189.281 61.1424 189.25 61.217 189.195 61.2721C189.14 61.3271 189.065 61.3581 188.987 61.3581ZM177.607 60.7709H188.693V54.8294H177.607V60.7709Z" fill="#D1D3D4"/>
<path d="M197.758 78.5192H186.085C186.007 78.5192 185.932 78.4882 185.877 78.4332C185.822 78.3781 185.791 78.3035 185.791 78.2256V71.7087C185.791 71.6309 185.822 71.5562 185.877 71.5011C185.932 71.4461 186.007 71.4152 186.085 71.4152H197.758C197.836 71.4167 197.91 71.4481 197.964 71.5028C198.019 71.5575 198.051 71.6313 198.052 71.7087V78.2374C198.049 78.3132 198.017 78.3848 197.962 78.4374C197.907 78.4899 197.834 78.5192 197.758 78.5192ZM186.379 77.9321H197.465V72.0023H186.379V77.9321Z" fill="#D1D3D4"/>
<path d="M199.574 51.5651C199.496 51.5651 199.421 51.5341 199.366 51.4791C199.311 51.424 199.28 51.3494 199.28 51.2715V47.9015H183.147C183.069 47.9015 182.995 47.8706 182.94 47.8155C182.884 47.7605 182.854 47.6858 182.854 47.608V42.5765C182.854 42.4986 182.884 42.4239 182.94 42.3689C182.995 42.3138 183.069 42.2829 183.147 42.2829C183.225 42.2829 183.3 42.3138 183.355 42.3689C183.41 42.4239 183.441 42.4986 183.441 42.5765V47.3144H199.574C199.651 47.3159 199.725 47.3473 199.78 47.4021C199.835 47.4568 199.866 47.5306 199.868 47.608V51.2715C199.868 51.3101 199.86 51.3482 199.845 51.3839C199.83 51.4195 199.809 51.4518 199.782 51.4791C199.754 51.5064 199.722 51.528 199.686 51.5427C199.651 51.5575 199.612 51.5651 199.574 51.5651Z" fill="#D1D3D4"/>
<path d="M183.147 54.8294C183.069 54.8294 182.995 54.7984 182.94 54.7434C182.884 54.6883 182.854 54.6137 182.854 54.5358V47.6079C182.855 47.5306 182.886 47.4568 182.941 47.402C182.996 47.3473 183.07 47.3159 183.147 47.3144C183.225 47.3144 183.3 47.3453 183.355 47.4004C183.41 47.4554 183.441 47.5301 183.441 47.6079V54.5358C183.441 54.5744 183.433 54.6125 183.419 54.6481C183.404 54.6838 183.382 54.7161 183.355 54.7434C183.328 54.7706 183.295 54.7923 183.26 54.807C183.224 54.8218 183.186 54.8294 183.147 54.8294Z" fill="#D1D3D4"/>
<path d="M192.412 71.7028C192.334 71.7028 192.26 71.6719 192.204 71.6168C192.149 71.5618 192.118 71.4871 192.118 71.4093V67.1469H183.147C183.069 67.1469 182.995 67.1159 182.94 67.0609C182.884 67.0058 182.854 66.9312 182.854 66.8533V61.0644C182.855 60.987 182.886 60.9132 182.941 60.8585C182.996 60.8038 183.07 60.7724 183.147 60.7709C183.225 60.7709 183.3 60.8018 183.355 60.8569C183.41 60.9119 183.441 60.9866 183.441 61.0644V66.5598H192.412C192.49 66.5598 192.565 66.5907 192.62 66.6457C192.675 66.7008 192.706 66.7755 192.706 66.8533V71.4093C192.706 71.4871 192.675 71.5618 192.62 71.6168C192.565 71.6719 192.49 71.7028 192.412 71.7028Z" fill="#D1D3D4"/>
<path d="M58.8855 31.1807H35.0564C34.9785 31.1807 34.9038 31.1497 34.8487 31.0947C34.7936 31.0396 34.7627 30.965 34.7627 30.8871C34.7627 30.8093 34.7936 30.7346 34.8487 30.6795C34.9038 30.6245 34.9785 30.5936 35.0564 30.5936H58.8855C58.9629 30.5951 59.0367 30.6265 59.0915 30.6812C59.1463 30.7359 59.1777 30.8097 59.1792 30.8871C59.1792 30.965 59.1483 31.0396 59.0932 31.0947C59.0381 31.1497 58.9634 31.1807 58.8855 31.1807Z" fill="#D1D3D4"/>
<path d="M62.4927 62.0038H25.7798V100.195H62.4927V62.0038Z" fill="white"/>
<path d="M62.4866 100.489H25.7796C25.7017 100.489 25.627 100.458 25.5719 100.403C25.5168 100.348 25.4858 100.273 25.4858 100.195V62.0332C25.4858 61.9553 25.5168 61.8807 25.5719 61.8256C25.627 61.7706 25.7017 61.7396 25.7796 61.7396H62.4866C62.5645 61.7396 62.6392 61.7706 62.6943 61.8256C62.7494 61.8807 62.7803 61.9553 62.7803 62.0332V100.195C62.7803 100.273 62.7494 100.348 62.6943 100.403C62.6392 100.458 62.5645 100.489 62.4866 100.489ZM26.0616 99.9017H62.1811V62.3267H26.0733L26.0616 99.9017Z" fill="#D1D3D4"/>
<path d="M62.4866 66.0725H25.7796C25.7017 66.0725 25.627 66.0416 25.5719 65.9865C25.5168 65.9315 25.4858 65.8568 25.4858 65.779C25.4858 65.7011 25.5168 65.6264 25.5719 65.5714C25.627 65.5163 25.7017 65.4854 25.7796 65.4854H62.4866C62.5645 65.4854 62.6392 65.5163 62.6943 65.5714C62.7494 65.6264 62.7803 65.7011 62.7803 65.779C62.7803 65.8568 62.7494 65.9315 62.6943 65.9865C62.6392 66.0416 62.5645 66.0725 62.4866 66.0725Z" fill="#D1D3D4"/>
<path d="M33.4878 69.1254H28.9935C28.9155 69.1254 28.8408 69.0945 28.7857 69.0394C28.7307 68.9844 28.6997 68.9097 28.6997 68.8319C28.6997 68.754 28.7307 68.6794 28.7857 68.6243C28.8408 68.5693 28.9155 68.5383 28.9935 68.5383H33.4878C33.5657 68.5383 33.6405 68.5693 33.6955 68.6243C33.7506 68.6794 33.7816 68.754 33.7816 68.8319C33.7816 68.9097 33.7506 68.9844 33.6955 69.0394C33.6405 69.0945 33.5657 69.1254 33.4878 69.1254Z" fill="#D1D3D4"/>
<path d="M44.7853 69.1254H35.8377C35.7598 69.1254 35.6851 69.0945 35.63 69.0394C35.5749 68.9844 35.5439 68.9097 35.5439 68.8319C35.5454 68.7545 35.5769 68.6807 35.6316 68.626C35.6864 68.5712 35.7603 68.5398 35.8377 68.5383H44.7853C44.8632 68.5383 44.9379 68.5693 44.993 68.6243C45.0481 68.6794 45.0791 68.754 45.0791 68.8319C45.0791 68.9097 45.0481 68.9844 44.993 69.0394C44.9379 69.0945 44.8632 69.1254 44.7853 69.1254Z" fill="#D1D3D4"/>
<path d="M47.4816 72.5248H38.534C38.4561 72.5248 38.3814 72.4939 38.3263 72.4388C38.2712 72.3838 38.2402 72.3091 38.2402 72.2312C38.2402 72.1534 38.2712 72.0787 38.3263 72.0237C38.3814 71.9686 38.4561 71.9377 38.534 71.9377H47.4816C47.5595 71.9377 47.6342 71.9686 47.6893 72.0237C47.7444 72.0787 47.7754 72.1534 47.7754 72.2312C47.7754 72.3091 47.7444 72.3838 47.6893 72.4388C47.6342 72.4939 47.5595 72.5248 47.4816 72.5248Z" fill="#D1D3D4"/>
<path d="M34.5332 72.5248H30.0447C29.9668 72.5248 29.8921 72.4939 29.837 72.4388C29.7819 72.3838 29.751 72.3091 29.751 72.2312C29.7525 72.1538 29.7839 72.0801 29.8387 72.0253C29.8934 71.9706 29.9673 71.9392 30.0447 71.9377H34.5332C34.6107 71.9392 34.6845 71.9706 34.7393 72.0253C34.794 72.0801 34.8255 72.1538 34.827 72.2312C34.827 72.3091 34.796 72.3838 34.7409 72.4388C34.6858 72.4939 34.6111 72.5248 34.5332 72.5248Z" fill="#D1D3D4"/>
<path d="M34.7037 75.9242H31.0965C31.0186 75.9242 30.9439 75.8933 30.8888 75.8382C30.8337 75.7832 30.8027 75.7085 30.8027 75.6306C30.8042 75.5533 30.8357 75.4795 30.8904 75.4247C30.9452 75.37 31.019 75.3386 31.0965 75.3371H34.7037C34.7812 75.3386 34.855 75.37 34.9098 75.4247C34.9645 75.4795 34.996 75.5533 34.9975 75.6306C34.9975 75.7085 34.9665 75.7832 34.9114 75.8382C34.8564 75.8933 34.7816 75.9242 34.7037 75.9242Z" fill="#D1D3D4"/>
<path d="M49.0799 75.9242H37.8821C37.8042 75.9242 37.7295 75.8933 37.6744 75.8382C37.6193 75.7832 37.5884 75.7085 37.5884 75.6306C37.5884 75.5528 37.6193 75.4781 37.6744 75.4231C37.7295 75.368 37.8042 75.3371 37.8821 75.3371H49.0799C49.1578 75.3371 49.2325 75.368 49.2876 75.4231C49.3427 75.4781 49.3736 75.5528 49.3736 75.6306C49.3736 75.7085 49.3427 75.7832 49.2876 75.8382C49.2325 75.8933 49.1578 75.9242 49.0799 75.9242Z" fill="#D1D3D4"/>
<path d="M36.6367 79.3235H32.1541C32.0762 79.3235 32.0015 79.2926 31.9464 79.2375C31.8913 79.1825 31.8604 79.1078 31.8604 79.03C31.8604 78.9521 31.8913 78.8774 31.9464 78.8224C32.0015 78.7673 32.0762 78.7364 32.1541 78.7364H36.6367C36.7146 78.7364 36.7893 78.7673 36.8444 78.8224C36.8995 78.8774 36.9305 78.9521 36.9305 79.03C36.9305 79.1078 36.8995 79.1825 36.8444 79.2375C36.7893 79.2926 36.7146 79.3235 36.6367 79.3235Z" fill="#D1D3D4"/>
<path d="M51.4005 79.3235H38.0818C38.0039 79.3235 37.9292 79.2926 37.8741 79.2375C37.819 79.1825 37.7881 79.1078 37.7881 79.03C37.7881 78.9521 37.819 78.8774 37.8741 78.8224C37.9292 78.7673 38.0039 78.7364 38.0818 78.7364H51.4005C51.4779 78.7379 51.5518 78.7693 51.6065 78.824C51.6613 78.8788 51.6927 78.9526 51.6942 79.03C51.6942 79.1078 51.6633 79.1825 51.6082 79.2375C51.5531 79.2926 51.4784 79.3235 51.4005 79.3235Z" fill="#D1D3D4"/>
<path d="M35.4439 82.7229H30.9612C30.8833 82.7229 30.8086 82.6919 30.7535 82.6369C30.6984 82.5818 30.6675 82.5072 30.6675 82.4293C30.6675 82.3514 30.6984 82.2768 30.7535 82.2217C30.8086 82.1667 30.8833 82.1357 30.9612 82.1357H35.4439C35.5218 82.1357 35.5965 82.1667 35.6516 82.2217C35.7067 82.2768 35.7376 82.3514 35.7376 82.4293C35.7376 82.5072 35.7067 82.5818 35.6516 82.6369C35.5965 82.6919 35.5218 82.7229 35.4439 82.7229Z" fill="#D1D3D4"/>
<path d="M44.3857 82.7229H37.1653C37.0874 82.7229 37.0127 82.6919 36.9576 82.6369C36.9025 82.5818 36.8716 82.5072 36.8716 82.4293C36.8716 82.3514 36.9025 82.2768 36.9576 82.2217C37.0127 82.1667 37.0874 82.1357 37.1653 82.1357H44.3857C44.4636 82.1357 44.5383 82.1667 44.5934 82.2217C44.6485 82.2768 44.6795 82.3514 44.6795 82.4293C44.6795 82.5072 44.6485 82.5818 44.5934 82.6369C44.5383 82.6919 44.4636 82.7229 44.3857 82.7229Z" fill="#D1D3D4"/>
<path d="M54.3672 82.7229H47.1468C47.0689 82.7229 46.9942 82.6919 46.9391 82.6369C46.884 82.5818 46.853 82.5072 46.853 82.4293C46.853 82.3514 46.884 82.2768 46.9391 82.2217C46.9942 82.1667 47.0689 82.1357 47.1468 82.1357H54.3672C54.4451 82.1357 54.5198 82.1667 54.5749 82.2217C54.63 82.2768 54.6609 82.3514 54.6609 82.4293C54.6609 82.5072 54.63 82.5818 54.5749 82.6369C54.5198 82.6919 54.4451 82.7229 54.3672 82.7229Z" fill="#D1D3D4"/>
<path d="M32.5064 86.1516H30.9612C30.8833 86.1516 30.8086 86.1207 30.7535 86.0656C30.6984 86.0106 30.6675 85.9359 30.6675 85.8581C30.6675 85.7802 30.6984 85.7056 30.7535 85.6505C30.8086 85.5954 30.8833 85.5645 30.9612 85.5645H32.5064C32.5843 85.5645 32.659 85.5954 32.7141 85.6505C32.7692 85.7056 32.8001 85.7802 32.8001 85.8581C32.8001 85.9359 32.7692 86.0106 32.7141 86.0656C32.659 86.1207 32.5843 86.1516 32.5064 86.1516Z" fill="#D1D3D4"/>
<path d="M44.3857 86.1516H35.1385C35.0606 86.1516 34.9859 86.1207 34.9308 86.0656C34.8757 86.0106 34.8447 85.9359 34.8447 85.8581C34.8462 85.7807 34.8777 85.7069 34.9324 85.6522C34.9872 85.5974 35.061 85.566 35.1385 85.5645H44.3857C44.4636 85.5645 44.5383 85.5954 44.5934 85.6505C44.6485 85.7056 44.6795 85.7802 44.6795 85.8581C44.6795 85.9359 44.6485 86.0106 44.5934 86.0656C44.5383 86.1207 44.4636 86.1516 44.3857 86.1516Z" fill="#D1D3D4"/>
<path d="M48.0281 86.1516H45.449C45.3711 86.1516 45.2964 86.1207 45.2413 86.0656C45.1862 86.0106 45.1553 85.9359 45.1553 85.8581C45.1553 85.7802 45.1862 85.7056 45.2413 85.6505C45.2964 85.5954 45.3711 85.5645 45.449 85.5645H48.0281C48.106 85.5645 48.1808 85.5954 48.2359 85.6505C48.2909 85.7056 48.3219 85.7802 48.3219 85.8581C48.3219 85.9359 48.2909 86.0106 48.2359 86.0656C48.1808 86.1207 48.106 86.1516 48.0281 86.1516Z" fill="#D1D3D4"/>
<path d="M33.3876 89.5216H30.9612C30.8833 89.5216 30.8086 89.4907 30.7535 89.4356C30.6984 89.3806 30.6675 89.3059 30.6675 89.2281C30.6675 89.1502 30.6984 89.0755 30.7535 89.0205C30.8086 88.9654 30.8833 88.9345 30.9612 88.9345H33.3876C33.4655 88.9345 33.5402 88.9654 33.5953 89.0205C33.6504 89.0755 33.6814 89.1502 33.6814 89.2281C33.6814 89.3059 33.6504 89.3806 33.5953 89.4356C33.5402 89.4907 33.4655 89.5216 33.3876 89.5216Z" fill="#D1D3D4"/>
<path d="M46.6476 89.5216H35.6731C35.5952 89.5216 35.5205 89.4907 35.4654 89.4356C35.4103 89.3806 35.3794 89.3059 35.3794 89.2281C35.3809 89.1507 35.4123 89.0769 35.4671 89.0222C35.5219 88.9674 35.5957 88.936 35.6731 88.9345H46.6476C46.7255 88.9345 46.8003 88.9654 46.8554 89.0205C46.9104 89.0755 46.9414 89.1502 46.9414 89.2281C46.9414 89.3059 46.9104 89.3806 46.8554 89.4356C46.8003 89.4907 46.7255 89.5216 46.6476 89.5216Z" fill="#D1D3D4"/>
<path d="M52.2173 89.5216H47.7347C47.6568 89.5216 47.582 89.4907 47.527 89.4356C47.4719 89.3806 47.4409 89.3059 47.4409 89.2281C47.4409 89.1502 47.4719 89.0755 47.527 89.0205C47.582 88.9654 47.6568 88.9345 47.7347 88.9345H52.2173C52.2952 88.9345 52.3699 88.9654 52.425 89.0205C52.4801 89.0755 52.511 89.1502 52.511 89.2281C52.511 89.3059 52.4801 89.3806 52.425 89.4356C52.3699 89.4907 52.2952 89.5216 52.2173 89.5216Z" fill="#D1D3D4"/>
<path d="M32.3123 92.9209H29.9095C29.8316 92.9209 29.7568 92.89 29.7018 92.835C29.6467 92.7799 29.6157 92.7052 29.6157 92.6274C29.6157 92.5495 29.6467 92.4748 29.7018 92.4198C29.7568 92.3647 29.8316 92.3338 29.9095 92.3338H32.3123C32.3898 92.3353 32.4636 92.3667 32.5184 92.4214C32.5732 92.4762 32.6046 92.55 32.6061 92.6274C32.6061 92.7052 32.5752 92.7799 32.5201 92.835C32.465 92.89 32.3903 92.9209 32.3123 92.9209Z" fill="#D1D3D4"/>
<path d="M45.4493 92.9209H35.0564C34.9785 92.9209 34.9038 92.89 34.8487 92.835C34.7936 92.7799 34.7627 92.7052 34.7627 92.6274C34.7642 92.55 34.7956 92.4762 34.8504 92.4214C34.9052 92.3667 34.979 92.3353 35.0564 92.3338H45.4493C45.5272 92.3338 45.602 92.3647 45.657 92.4198C45.7121 92.4748 45.7431 92.5495 45.7431 92.6274C45.7431 92.7052 45.7121 92.7799 45.657 92.835C45.602 92.89 45.5272 92.9209 45.4493 92.9209Z" fill="#D1D3D4"/>
<path d="M34.3921 96.3203H29.9095C29.8316 96.3203 29.7568 96.2893 29.7018 96.2343C29.6467 96.1792 29.6157 96.1046 29.6157 96.0267C29.6157 95.9489 29.6467 95.8742 29.7018 95.8191C29.7568 95.7641 29.8316 95.7332 29.9095 95.7332H34.3921C34.47 95.7332 34.5447 95.7641 34.5998 95.8191C34.6549 95.8742 34.6858 95.9489 34.6858 96.0267C34.6858 96.1046 34.6549 96.1792 34.5998 96.2343C34.5447 96.2893 34.47 96.3203 34.3921 96.3203Z" fill="#D1D3D4"/>
<path d="M59.2728 79.3235H53.2098C53.1319 79.3235 53.0571 79.2926 53.0021 79.2375C52.947 79.1825 52.916 79.1078 52.916 79.03C52.916 78.9521 52.947 78.8774 53.0021 78.8224C53.0571 78.7673 53.1319 78.7364 53.2098 78.7364H59.2728C59.3507 78.7364 59.4254 78.7673 59.4805 78.8224C59.5356 78.8774 59.5665 78.9521 59.5665 79.03C59.5665 79.1078 59.5356 79.1825 59.4805 79.2375C59.4254 79.2926 59.3507 79.3235 59.2728 79.3235Z" fill="#D1D3D4"/>
<path d="M50.1959 69.1255C47.1585 69.1255 47.0939 69.1255 47.0586 69.1255C46.9849 69.1024 46.9233 69.0513 46.887 68.9832C46.8507 68.9151 46.8427 68.8354 46.8648 68.7615C46.884 68.6936 46.9276 68.6351 46.9872 68.5972C47.0468 68.5593 47.1182 68.5447 47.1879 68.556C47.5463 68.556 53.4154 68.556 57.2929 68.556C57.3708 68.556 57.4455 68.5869 57.5006 68.642C57.5557 68.697 57.5866 68.7717 57.5866 68.8495C57.5866 68.9274 57.5557 69.002 57.5006 69.0571C57.4455 69.1122 57.3708 69.1431 57.2929 69.1431C53.95 69.1255 51.6999 69.1255 50.1959 69.1255Z" fill="#D1D3D4"/>
<path d="M51.1891 92.9209H46.6478C46.5698 92.9209 46.4951 92.89 46.44 92.835C46.385 92.7799 46.354 92.7052 46.354 92.6274C46.3555 92.55 46.3869 92.4762 46.4417 92.4214C46.4965 92.3667 46.5703 92.3353 46.6478 92.3338H51.1891C51.2666 92.3353 51.3404 92.3667 51.3952 92.4214C51.45 92.4762 51.4814 92.55 51.4829 92.6274C51.4829 92.7052 51.4519 92.7799 51.3968 92.835C51.3418 92.89 51.267 92.9209 51.1891 92.9209Z" fill="#D1D3D4"/>
<path d="M40.7782 96.3203H37.4354C37.3574 96.3203 37.2827 96.2893 37.2276 96.2343C37.1725 96.1792 37.1416 96.1046 37.1416 96.0267C37.1431 95.9493 37.1745 95.8755 37.2293 95.8208C37.2841 95.7661 37.3579 95.7347 37.4354 95.7332H40.7782C40.8557 95.7347 40.9295 95.7661 40.9843 95.8208C41.039 95.8755 41.0705 95.9493 41.072 96.0267C41.072 96.1046 41.041 96.1792 40.9859 96.2343C40.9308 96.2893 40.8561 96.3203 40.7782 96.3203Z" fill="#D1D3D4"/>
<path d="M49.9789 96.3203H42.0418C41.9639 96.3203 41.8892 96.2893 41.8341 96.2343C41.779 96.1792 41.748 96.1046 41.748 96.0267C41.7496 95.9493 41.781 95.8755 41.8358 95.8208C41.8905 95.7661 41.9644 95.7347 42.0418 95.7332H49.9789C50.0563 95.7347 50.1302 95.7661 50.185 95.8208C50.2397 95.8755 50.2712 95.9493 50.2727 96.0267C50.2727 96.1046 50.2417 96.1792 50.1866 96.2343C50.1315 96.2893 50.0568 96.3203 49.9789 96.3203Z" fill="#D1D3D4"/>
<path d="M189.281 119.681C197.464 119.681 204.098 113.052 204.098 104.874C204.098 96.6968 197.464 90.0676 189.281 90.0676C181.098 90.0676 174.464 96.6968 174.464 104.874C174.464 113.052 181.098 119.681 189.281 119.681Z" fill="white"/>
<path d="M189.281 119.975C186.292 119.975 183.371 119.089 180.886 117.43C178.401 115.771 176.464 113.412 175.321 110.653C174.177 107.894 173.878 104.858 174.461 101.929C175.044 98.9993 176.483 96.3087 178.596 94.1969C180.709 92.085 183.402 90.6469 186.333 90.0642C189.264 89.4816 192.302 89.7806 195.063 90.9235C197.825 92.0664 200.184 94.0019 201.845 96.4851C203.505 98.9684 204.391 101.888 204.391 104.874C204.387 108.878 202.793 112.716 199.961 115.547C197.128 118.378 193.287 119.97 189.281 119.975ZM189.281 90.367C186.408 90.367 183.6 91.2184 181.212 92.8134C178.823 94.4084 176.962 96.6754 175.863 99.3277C174.764 101.98 174.477 104.898 175.037 107.714C175.598 110.529 176.982 113.115 179.014 115.145C181.045 117.174 183.634 118.556 186.451 119.115C189.269 119.675 192.189 119.387 194.843 118.287C197.496 117.188 199.764 115.327 201.359 112.939C202.954 110.552 203.805 107.745 203.804 104.874C203.799 101.027 202.267 97.3391 199.545 94.6192C196.822 91.8994 193.131 90.3701 189.281 90.367Z" fill="#002947"/>
<path d="M195.789 115.688L195.794 115.685C196.49 115.282 196.727 114.391 196.324 113.695L194.537 110.618C194.133 109.922 193.242 109.686 192.546 110.089L192.54 110.092C191.844 110.496 191.608 111.387 192.011 112.082L193.798 115.16C194.202 115.855 195.093 116.092 195.789 115.688Z" fill="white"/>
<path d="M195.05 116.182C194.897 116.183 194.745 116.163 194.598 116.123C194.375 116.065 194.166 115.963 193.984 115.823C193.801 115.683 193.648 115.507 193.534 115.307L191.772 112.237C191.541 111.834 191.477 111.357 191.596 110.909C191.715 110.46 192.006 110.077 192.406 109.841C192.809 109.61 193.286 109.547 193.735 109.666C194.184 109.785 194.568 110.076 194.803 110.475L196.566 113.552C196.797 113.955 196.859 114.433 196.739 114.881C196.619 115.33 196.327 115.713 195.925 115.947C195.659 116.1 195.357 116.181 195.05 116.182ZM193.288 110.223C193.082 110.223 192.88 110.276 192.7 110.376C192.433 110.532 192.239 110.788 192.16 111.087C192.081 111.386 192.123 111.704 192.277 111.973L194.04 115.043C194.213 115.272 194.464 115.429 194.746 115.485C195.027 115.541 195.319 115.492 195.567 115.347C195.815 115.203 196.002 114.973 196.091 114.7C196.181 114.428 196.168 114.132 196.055 113.869L194.292 110.798C194.138 110.531 193.885 110.335 193.587 110.252C193.489 110.231 193.388 110.221 193.288 110.223Z" fill="#002947"/>
<path d="M189.281 113.769C194.417 113.769 198.581 109.608 198.581 104.475C198.581 99.3423 194.417 95.1813 189.281 95.1813C184.145 95.1813 179.981 99.3423 179.981 104.475C179.981 109.608 184.145 113.769 189.281 113.769Z" fill="white"/>
<path d="M189.298 114.069C188.463 114.068 187.632 113.96 186.825 113.746C185.605 113.425 184.461 112.867 183.459 112.102C182.456 111.337 181.616 110.381 180.985 109.29C179.926 107.464 179.499 105.34 179.771 103.247C180.043 101.154 180.998 99.2091 182.489 97.7141C183.98 96.2191 185.922 95.2573 188.016 94.978C190.109 94.6986 192.236 95.1174 194.067 96.1692C195.898 97.221 197.33 98.8471 198.142 100.795C198.954 102.744 199.1 104.905 198.557 106.945C198.014 108.984 196.813 110.788 195.141 112.076C193.468 113.364 191.416 114.064 189.304 114.069H189.298ZM189.298 95.4807C187.718 95.4824 186.166 95.8998 184.798 96.691C183.431 97.4822 182.296 98.6192 181.507 99.9879C180.719 101.357 180.305 102.909 180.307 104.488C180.309 106.067 180.728 107.618 181.52 108.984C182.311 110.353 183.449 111.489 184.819 112.278C186.19 113.068 187.744 113.483 189.325 113.481C190.907 113.48 192.46 113.063 193.829 112.271C195.198 111.479 196.334 110.341 197.123 108.971C197.912 107.601 198.327 106.048 198.324 104.468C198.322 102.887 197.903 101.335 197.11 99.9675C196.317 98.6 195.177 97.4654 193.806 96.6778C192.435 95.8902 190.88 95.4773 189.298 95.4807Z" fill="#002947"/>
<path d="M189.281 112.102C193.496 112.102 196.912 108.687 196.912 104.475C196.912 100.263 193.496 96.8487 189.281 96.8487C185.066 96.8487 181.649 100.263 181.649 104.475C181.649 108.687 185.066 112.102 189.281 112.102Z" fill="#002947"/>
</svg>
