<svg width="235" height="177" viewBox="0 0 235 177" fill="none" xmlns="http://www.w3.org/2000/svg">
<path d="M201.9 24.746H57.4985V123.832H201.9V24.746Z" fill="white"/>
<path d="M201.9 124.132H57.4983C57.4204 124.132 57.3457 124.101 57.2906 124.046C57.2355 123.991 57.2046 123.916 57.2046 123.838V24.7459C57.2046 24.6681 57.2355 24.5934 57.2906 24.5384C57.3457 24.4833 57.4204 24.4524 57.4983 24.4524H201.9C201.977 24.4539 202.051 24.4853 202.106 24.54C202.161 24.5948 202.192 24.6686 202.194 24.7459V123.838C202.192 123.915 202.161 123.989 202.106 124.044C202.051 124.099 201.977 124.13 201.9 124.132ZM57.7921 123.544H201.606V25.0395H57.7921V123.544Z" fill="#002947"/>
<path d="M201.9 18.6047H57.4985V24.7459H201.9V18.6047Z" fill="white"/>
<path d="M201.9 25.0395H57.4983C57.4204 25.0395 57.3457 25.0086 57.2906 24.9535C57.2355 24.8984 57.2046 24.8238 57.2046 24.7459V18.6341C57.2046 18.5563 57.2355 18.4816 57.2906 18.4266C57.3457 18.3715 57.4204 18.3406 57.4983 18.3406H201.9C201.978 18.3406 202.053 18.3715 202.108 18.4266C202.163 18.4816 202.194 18.5563 202.194 18.6341V24.7459C202.194 24.8238 202.163 24.8984 202.108 24.9535C202.053 25.0086 201.978 25.0395 201.9 25.0395ZM57.7921 24.4524H201.606V18.9042H57.7921V24.4524Z" fill="#002947"/>
<path d="M114.045 86.4334H113.975C107.483 84.7249 107.26 72.4602 106.978 56.9371V56.8549C106.772 45.4122 103.558 45.2419 103.529 45.2419C103.452 45.2404 103.378 45.209 103.323 45.1543C103.268 45.0995 103.237 45.0257 103.235 44.9483C103.234 44.9104 103.24 44.8724 103.253 44.8369C103.267 44.8013 103.287 44.7689 103.314 44.7414C103.34 44.714 103.372 44.6922 103.407 44.6773C103.442 44.6624 103.479 44.6548 103.517 44.6548C103.768 44.6707 104.013 44.7365 104.238 44.8485C104.463 44.9604 104.664 45.1161 104.827 45.3065C106.002 46.422 107.43 49.3282 107.565 56.8431V56.9253C107.841 72.1901 108.065 84.2728 114.128 85.8639C114.202 85.8845 114.266 85.9337 114.304 86.0007C114.343 86.0678 114.353 86.1473 114.333 86.222C114.316 86.2845 114.278 86.3394 114.226 86.3777C114.174 86.4161 114.11 86.4357 114.045 86.4334Z" fill="#D1D3D4"/>
<path d="M106.925 107.387C106.861 107.389 106.799 107.368 106.749 107.329C106.688 107.281 106.648 107.212 106.637 107.135C106.626 107.058 106.645 106.98 106.69 106.918C106.725 106.871 110.021 102.485 110.021 93.0853C110.021 87.2612 114.134 87.0909 114.134 87.0909C114.21 87.0922 114.283 87.1218 114.338 87.1739C114.393 87.226 114.427 87.2969 114.433 87.3728C114.435 87.4118 114.429 87.4507 114.415 87.4873C114.401 87.5239 114.38 87.5574 114.354 87.5859C114.327 87.6143 114.295 87.6371 114.259 87.6529C114.223 87.6688 114.184 87.6773 114.145 87.6781C114.004 87.6781 110.585 87.8542 110.585 93.0853C110.585 102.702 107.278 107.094 107.137 107.276C107.11 107.307 107.078 107.333 107.042 107.353C107.006 107.372 106.966 107.384 106.925 107.387Z" fill="#D1D3D4"/>
<path d="M150.435 100.5H150.4C146.064 99.6022 144.319 88.9814 143.573 84.4489C143.461 83.762 143.373 83.2336 143.309 82.9166C142.85 80.7912 140.224 79.9223 140.195 79.9106C140.117 79.8864 140.052 79.8324 140.014 79.7603C139.976 79.6881 139.968 79.6039 139.992 79.526C140.016 79.4482 140.071 79.3831 140.143 79.3451C140.215 79.3071 140.299 79.2993 140.377 79.3235C140.5 79.3646 143.356 80.3157 143.902 82.7639C143.967 83.0868 144.055 83.627 144.172 84.3256C144.836 88.3591 146.593 99.0797 150.535 99.8957C150.574 99.8996 150.611 99.911 150.645 99.9293C150.679 99.9476 150.71 99.9725 150.734 100.002C150.759 100.032 150.777 100.067 150.788 100.104C150.799 100.141 150.803 100.18 150.799 100.219C150.795 100.257 150.784 100.295 150.766 100.329C150.747 100.363 150.723 100.393 150.693 100.418C150.663 100.442 150.628 100.461 150.591 100.472C150.554 100.483 150.515 100.487 150.476 100.483L150.435 100.5Z" fill="#D1D3D4"/>
<path d="M141.147 78.6658C140.831 78.6661 140.518 78.6063 140.224 78.4897C140.154 78.4554 140.1 78.3954 140.072 78.3223C140.045 78.2491 140.047 78.1683 140.077 78.0964C140.093 78.0613 140.116 78.0298 140.144 78.0036C140.172 77.9775 140.205 77.9572 140.242 77.9441C140.278 77.931 140.316 77.9252 140.355 77.9272C140.393 77.9291 140.431 77.9387 140.465 77.9554C140.893 78.1163 141.365 78.1163 141.793 77.9554C142.124 77.7994 142.421 77.5788 142.667 77.3066C142.912 77.0344 143.1 76.7161 143.221 76.3703C143.702 75.2665 143.902 71.9552 144.155 67.7633C144.495 62.1446 144.918 55.1581 146.234 49.3398C147.169 45.2301 151.751 42.5881 151.945 42.4765C152.014 42.4405 152.094 42.4326 152.168 42.4546C152.243 42.4765 152.306 42.5264 152.344 42.5939C152.383 42.6617 152.392 42.7418 152.371 42.8166C152.35 42.8915 152.301 42.9549 152.233 42.9932C152.186 42.9932 147.686 45.5882 146.804 49.4514C145.5 55.2226 145.083 62.1857 144.742 67.7809C144.484 72.0315 144.278 75.4133 143.755 76.5875C143.605 77.0072 143.372 77.3922 143.069 77.7192C142.766 78.0461 142.4 78.3083 141.993 78.4897C141.724 78.6002 141.437 78.6599 141.147 78.6658Z" fill="#D1D3D4"/>
<path d="M140.16 62.8727H114.11V106.647H140.16V62.8727Z" fill="white"/>
<path d="M140.166 106.941H114.11C114.032 106.941 113.958 106.91 113.902 106.855C113.847 106.8 113.816 106.725 113.816 106.647V62.8727C113.818 62.7953 113.849 62.7215 113.904 62.6667C113.959 62.612 114.033 62.5806 114.11 62.5791H140.166C140.243 62.5806 140.317 62.612 140.372 62.6667C140.427 62.7215 140.458 62.7953 140.46 62.8727V106.647C140.46 106.725 140.429 106.8 140.374 106.855C140.318 106.91 140.244 106.941 140.166 106.941ZM114.404 106.354H139.872V63.1662H114.404V106.354Z" fill="#002947"/>
<path d="M176.385 73.2352H150.335V117.01H176.385V73.2352Z" fill="white"/>
<path d="M176.391 117.304H150.335C150.257 117.304 150.183 117.273 150.128 117.218C150.072 117.163 150.042 117.088 150.042 117.01V73.2352C150.042 73.1573 150.072 73.0827 150.128 73.0276C150.183 72.9726 150.257 72.9417 150.335 72.9417H176.391C176.469 72.9417 176.544 72.9726 176.599 73.0276C176.654 73.0827 176.685 73.1573 176.685 73.2352V117.01C176.685 117.088 176.654 117.163 176.599 117.218C176.544 117.273 176.469 117.304 176.391 117.304ZM150.629 116.716H176.097V73.5288H150.629V116.716Z" fill="#002947"/>
<path d="M103.365 33.4998H77.3149V77.2745H103.365V33.4998Z" fill="white"/>
<path d="M103.4 77.5681H77.315C77.2371 77.5681 77.1624 77.5371 77.1073 77.4821C77.0522 77.427 77.0212 77.3524 77.0212 77.2745V33.4997C77.0212 33.4219 77.0522 33.3472 77.1073 33.2922C77.1624 33.2371 77.2371 33.2062 77.315 33.2062H103.4C103.478 33.2062 103.553 33.2371 103.608 33.2922C103.663 33.3472 103.694 33.4219 103.694 33.4997V77.2745C103.694 77.3524 103.663 77.427 103.608 77.4821C103.553 77.5371 103.478 77.5681 103.4 77.5681ZM77.6381 76.9809H103.106V33.7933H77.6087L77.6381 76.9809Z" fill="#002947"/>
<path d="M99.5695 62.6672H81.8917C81.8137 62.6672 81.739 62.6363 81.6839 62.5812C81.6289 62.5262 81.5979 62.4515 81.5979 62.3736C81.5979 62.2958 81.6289 62.2211 81.6839 62.1661C81.739 62.111 81.8137 62.0801 81.8917 62.0801H99.5695C99.6474 62.0801 99.7221 62.111 99.7772 62.1661C99.8323 62.2211 99.8633 62.2958 99.8633 62.3736C99.8633 62.4515 99.8323 62.5262 99.7772 62.5812C99.7221 62.6363 99.6474 62.6672 99.5695 62.6672Z" fill="#002947"/>
<path d="M106.713 93.9777H79.5828V116.793H106.713V93.9777Z" fill="white"/>
<path d="M106.714 117.086H79.5828C79.5049 117.086 79.4302 117.055 79.3751 117C79.32 116.945 79.2891 116.87 79.2891 116.793V93.9776C79.2891 93.8998 79.32 93.8251 79.3751 93.7701C79.4302 93.715 79.5049 93.6841 79.5828 93.6841H106.714C106.791 93.6856 106.865 93.717 106.92 93.7717C106.974 93.8265 107.006 93.9003 107.007 93.9776V116.793C107.007 116.87 106.976 116.945 106.921 117C106.866 117.055 106.791 117.086 106.714 117.086ZM79.8766 116.499H106.42V94.2712H79.9001L79.8766 116.499Z" fill="#002947"/>
<path d="M179.276 32.7072H152.145V55.5222H179.276V32.7072Z" fill="white"/>
<path d="M179.275 55.8098H152.162C152.084 55.8098 152.01 55.7789 151.955 55.7238C151.9 55.6688 151.869 55.5941 151.869 55.5162V32.7247C151.869 32.6469 151.9 32.5722 151.955 32.5171C152.01 32.4621 152.084 32.4312 152.162 32.4312H179.293C179.371 32.4312 179.446 32.4621 179.501 32.5171C179.556 32.5722 179.587 32.6469 179.587 32.7247V55.5162C179.587 55.5563 179.579 55.596 179.563 55.6328C179.547 55.6696 179.524 55.7028 179.495 55.7303C179.466 55.7578 179.431 55.779 179.393 55.7927C179.356 55.8064 179.316 55.8122 179.275 55.8098ZM152.439 55.2227H178.982V33.0006H152.439V55.2227Z" fill="#002947"/>
<path d="M177.484 38.2612H154.325C154.247 38.2612 154.172 38.2302 154.117 38.1752C154.062 38.1201 154.031 38.0455 154.031 37.9676C154.031 37.8898 154.062 37.8151 154.117 37.7601C154.172 37.705 154.247 37.6741 154.325 37.6741H177.484C177.561 37.6756 177.635 37.707 177.69 37.7617C177.745 37.8164 177.776 37.8902 177.777 37.9676C177.777 38.0455 177.747 38.1201 177.691 38.1752C177.636 38.2302 177.562 38.2612 177.484 38.2612Z" fill="#D1D3D4"/>
<path d="M172.766 44.2438H158.983C158.905 44.2438 158.831 44.2129 158.775 44.1579C158.72 44.1028 158.689 44.0281 158.689 43.9503C158.689 43.8724 158.72 43.7978 158.775 43.7427C158.831 43.6877 158.905 43.6567 158.983 43.6567H172.766C172.844 43.6567 172.919 43.6877 172.974 43.7427C173.029 43.7978 173.06 43.8724 173.06 43.9503C173.06 44.0281 173.029 44.1028 172.974 44.1579C172.919 44.2129 172.844 44.2438 172.766 44.2438Z" fill="#D1D3D4"/>
<path d="M169.682 47.4904H158.983C158.905 47.4904 158.831 47.4595 158.775 47.4044C158.72 47.3494 158.689 47.2747 158.689 47.1969C158.689 47.119 158.72 47.0444 158.775 46.9893C158.831 46.9342 158.905 46.9033 158.983 46.9033H169.682C169.759 46.9048 169.833 46.9362 169.888 46.991C169.942 47.0457 169.974 47.1195 169.975 47.1969C169.975 47.2747 169.944 47.3494 169.889 47.4044C169.834 47.4595 169.76 47.4904 169.682 47.4904Z" fill="#D1D3D4"/>
<path d="M173.7 77.7266H153.026V108.145H173.7V77.7266Z" fill="white"/>
<path d="M173.7 108.462H153.026C152.948 108.462 152.874 108.431 152.818 108.376C152.763 108.321 152.732 108.246 152.732 108.168V77.756C152.732 77.6781 152.763 77.6034 152.818 77.5484C152.874 77.4933 152.948 77.4624 153.026 77.4624H173.7C173.778 77.4624 173.853 77.4933 173.908 77.5484C173.963 77.6034 173.994 77.6781 173.994 77.756V108.168C173.994 108.246 173.963 108.321 173.908 108.376C173.853 108.431 173.778 108.462 173.7 108.462ZM153.338 107.875H173.424V78.0495H153.338V107.875Z" fill="#D1D3D4"/>
<path d="M168.466 111.573H158.037C157.959 111.573 157.885 111.542 157.83 111.487C157.775 111.432 157.744 111.358 157.744 111.28C157.745 111.202 157.777 111.129 157.831 111.074C157.886 111.019 157.96 110.988 158.037 110.986H168.46C168.538 110.986 168.612 111.017 168.667 111.072C168.722 111.127 168.753 111.202 168.753 111.28C168.753 111.357 168.723 111.43 168.669 111.485C168.616 111.54 168.542 111.572 168.466 111.573Z" fill="#D1D3D4"/>
<path d="M168.466 113.558H158.037C157.959 113.558 157.885 113.527 157.83 113.472C157.775 113.417 157.744 113.342 157.744 113.264C157.745 113.187 157.777 113.113 157.831 113.058C157.886 113.004 157.96 112.972 158.037 112.971H168.46C168.538 112.971 168.612 113.002 168.667 113.057C168.722 113.112 168.753 113.186 168.753 113.264C168.753 113.341 168.723 113.415 168.669 113.47C168.616 113.525 168.542 113.556 168.466 113.558Z" fill="#D1D3D4"/>
<path d="M134.884 94.694H119.921C118.837 94.694 117.958 95.5719 117.958 96.6549V98.1873C117.958 99.2703 118.837 100.148 119.921 100.148H134.884C135.968 100.148 136.846 99.2703 136.846 98.1873V96.6549C136.846 95.5719 135.968 94.694 134.884 94.694Z" fill="#F8A8C3"/>
<path d="M134.884 86.6506H119.921C118.837 86.6506 117.958 87.5286 117.958 88.6116V90.1439C117.958 91.2269 118.837 92.1049 119.921 92.1049H134.884C135.968 92.1049 136.846 91.2269 136.846 90.1439V88.6116C136.846 87.5286 135.968 86.6506 134.884 86.6506Z" fill="white"/>
<path d="M134.884 92.3984H119.926C119.328 92.3984 118.753 92.1611 118.329 91.7384C117.905 91.3158 117.666 90.7424 117.665 90.1439V88.6174C117.666 88.0184 117.905 87.4444 118.329 87.0208C118.753 86.5972 119.327 86.3586 119.926 86.3571H134.884C135.483 86.3586 136.057 86.5974 136.48 87.0212C136.903 87.4449 137.14 88.0189 137.14 88.6174V90.1439C137.14 90.7418 136.902 91.3153 136.479 91.7381C136.056 92.1609 135.483 92.3984 134.884 92.3984ZM119.926 86.9442C119.483 86.9457 119.058 87.1225 118.744 87.436C118.431 87.7494 118.254 88.1741 118.252 88.6174V90.1439C118.254 90.5867 118.431 91.0108 118.745 91.3233C119.058 91.6358 119.483 91.8113 119.926 91.8113H134.884C135.327 91.8113 135.751 91.6356 136.064 91.3229C136.377 91.0102 136.553 90.5861 136.553 90.1439V88.6174C136.553 88.1747 136.377 87.75 136.064 87.4363C135.752 87.1227 135.327 86.9457 134.884 86.9442H119.926Z" fill="#D1D3D4"/>
<path d="M134.884 78.6072H119.921C118.837 78.6072 117.958 79.4851 117.958 80.5681V82.1005C117.958 83.1835 118.837 84.0614 119.921 84.0614H134.884C135.968 84.0614 136.846 83.1835 136.846 82.1005V80.5681C136.846 79.4851 135.968 78.6072 134.884 78.6072Z" fill="white"/>
<path d="M134.884 84.3549H119.926C119.328 84.3549 118.753 84.1176 118.329 83.695C117.905 83.2723 117.666 82.6989 117.665 82.1005V80.5681C117.666 79.9696 117.905 79.3962 118.329 78.9736C118.753 78.5509 119.328 78.3136 119.926 78.3136H134.884C135.483 78.3136 136.056 78.5511 136.479 78.9739C136.902 79.3967 137.14 79.9702 137.14 80.5681V82.1005C137.14 82.6984 136.902 83.2718 136.479 83.6946C136.056 84.1174 135.483 84.3549 134.884 84.3549ZM119.926 78.9007C119.483 78.9007 119.058 79.0762 118.745 79.3887C118.431 79.7012 118.254 80.1253 118.252 80.5681V82.1005C118.254 82.5432 118.431 82.9673 118.745 83.2798C119.058 83.5924 119.483 83.7678 119.926 83.7678H134.884C135.327 83.7678 135.751 83.5922 136.064 83.2795C136.377 82.9668 136.553 82.5427 136.553 82.1005V80.5681C136.553 80.1259 136.377 79.7018 136.064 79.3891C135.751 79.0764 135.327 78.9007 134.884 78.9007H119.926Z" fill="#D1D3D4"/>
<path d="M134.884 70.5638H119.921C118.837 70.5638 117.958 71.4418 117.958 72.5248V74.0571C117.958 75.1401 118.837 76.0181 119.921 76.0181H134.884C135.968 76.0181 136.846 75.1401 136.846 74.0571V72.5248C136.846 71.4418 135.968 70.5638 134.884 70.5638Z" fill="white"/>
<path d="M134.884 76.3116H119.926C119.327 76.31 118.753 76.0714 118.329 75.6478C117.905 75.2243 117.666 74.6502 117.665 74.0512V72.5247C117.666 71.9263 117.905 71.3529 118.329 70.9302C118.753 70.5076 119.328 70.2703 119.926 70.2703H134.884C135.483 70.2703 136.056 70.5078 136.479 70.9306C136.902 71.3534 137.14 71.9268 137.14 72.5247V74.0512C137.14 74.6497 136.903 75.2237 136.48 75.6474C136.057 76.0712 135.483 76.31 134.884 76.3116ZM119.926 70.8867C119.483 70.8867 119.058 71.0622 118.745 71.3747C118.431 71.6873 118.254 72.1113 118.252 72.5541V74.0806C118.254 74.5239 118.431 74.9486 118.744 75.262C119.058 75.5755 119.483 75.7523 119.926 75.7538H134.884C135.327 75.7523 135.752 75.5753 136.064 75.2617C136.377 74.948 136.553 74.5233 136.553 74.0806V72.5541C136.553 72.1119 136.377 71.6878 136.064 71.3751C135.751 71.0624 135.327 70.8867 134.884 70.8867H119.926Z" fill="#D1D3D4"/>
<path d="M133.069 67.2761H121.612C121.534 67.2761 121.46 67.2452 121.405 67.1901C121.35 67.1351 121.319 67.0604 121.319 66.9825C121.319 66.9047 121.35 66.83 121.405 66.7749C121.46 66.7199 121.534 66.689 121.612 66.689H133.069C133.147 66.689 133.221 66.7199 133.276 66.7749C133.331 66.83 133.362 66.9047 133.362 66.9825C133.361 67.0599 133.329 67.1337 133.275 67.1884C133.22 67.2432 133.146 67.2746 133.069 67.2761Z" fill="#D1D3D4"/>
<path d="M99.3227 37.6682H80.793V53.0446H99.3227V37.6682Z" fill="white"/>
<path d="M99.3228 53.3322H80.793C80.7151 53.3322 80.6404 53.3013 80.5853 53.2463C80.5302 53.1912 80.4993 53.1165 80.4993 53.0387V37.6682C80.4993 37.5903 80.5302 37.5157 80.5853 37.4606C80.6404 37.4056 80.7151 37.3746 80.793 37.3746H99.3228C99.4007 37.3746 99.4754 37.4056 99.5305 37.4606C99.5856 37.5157 99.6165 37.5903 99.6165 37.6682V53.0387C99.6165 53.1165 99.5856 53.1912 99.5305 53.2463C99.4754 53.3013 99.4007 53.3322 99.3228 53.3322ZM81.1103 52.7451H99.0525V37.9617H81.075L81.1103 52.7451Z" fill="#D1D3D4"/>
<path d="M104.281 96.8428H81.7859V113.816H104.281V96.8428Z" fill="white"/>
<path d="M104.287 114.11H81.7859C81.708 114.11 81.6333 114.079 81.5782 114.024C81.5231 113.969 81.4922 113.894 81.4922 113.816V96.8427C81.4937 96.7654 81.5251 96.6916 81.5799 96.6368C81.6347 96.5821 81.7085 96.5507 81.7859 96.5492H104.287C104.365 96.5507 104.438 96.5821 104.493 96.6368C104.548 96.6916 104.579 96.7654 104.581 96.8427V113.816C104.581 113.894 104.55 113.969 104.495 114.024C104.44 114.079 104.365 114.11 104.287 114.11ZM82.0797 113.522H103.988V97.1363H82.0738L82.0797 113.522Z" fill="#D1D3D4"/>
<path d="M81.7859 109.847L91.0508 99.9309L100.98 109.19" fill="white"/>
<path d="M81.7859 110.141C81.7278 110.143 81.6705 110.127 81.6215 110.096C81.5724 110.065 81.5339 110.02 81.5111 109.967C81.4882 109.913 81.482 109.854 81.4933 109.797C81.5046 109.74 81.5329 109.688 81.5744 109.648L90.8392 99.7314C90.8942 99.6776 90.968 99.6475 91.0449 99.6475C91.1218 99.6475 91.1956 99.6776 91.2505 99.7314L101.179 108.99C101.207 109.017 101.23 109.049 101.246 109.084C101.262 109.119 101.27 109.157 101.272 109.196C101.273 109.235 101.266 109.273 101.252 109.309C101.238 109.346 101.218 109.379 101.191 109.407C101.164 109.435 101.132 109.458 101.097 109.473C101.062 109.489 101.024 109.498 100.985 109.499C100.946 109.5 100.908 109.494 100.871 109.48C100.835 109.466 100.802 109.445 100.774 109.419L91.0625 100.348L81.9974 110.053C81.9413 110.109 81.8653 110.141 81.7859 110.141Z" fill="#D1D3D4"/>
<path d="M97.4485 105.99L100.533 102.244L104.287 106.43" fill="white"/>
<path d="M104.287 106.73C104.245 106.729 104.203 106.72 104.165 106.703C104.127 106.686 104.092 106.661 104.064 106.63L100.539 102.696L97.666 106.178C97.6421 106.208 97.6123 106.233 97.5785 106.251C97.5447 106.27 97.5075 106.281 97.4691 106.285C97.4307 106.289 97.392 106.285 97.3552 106.274C97.3184 106.262 97.2842 106.244 97.2548 106.219C97.1951 106.17 97.1574 106.099 97.1497 106.022C97.142 105.945 97.165 105.868 97.2136 105.808L100.304 102.056C100.331 102.025 100.365 102 100.402 101.981C100.439 101.963 100.48 101.953 100.521 101.951C100.608 101.952 100.69 101.988 100.75 102.05L104.499 106.236C104.553 106.292 104.583 106.367 104.583 106.445C104.583 106.523 104.553 106.597 104.499 106.653C104.44 106.703 104.364 106.73 104.287 106.73Z" fill="#D1D3D4"/>
<path d="M194.774 55.3284H185.95V64.2524H194.774V55.3284Z" fill="white"/>
<path d="M194.774 64.5459H185.961C185.883 64.5459 185.809 64.515 185.754 64.46C185.698 64.4049 185.667 64.3302 185.667 64.2524V55.3283C185.667 55.2505 185.698 55.1758 185.754 55.1208C185.809 55.0657 185.883 55.0348 185.961 55.0348H194.774C194.852 55.0348 194.926 55.0657 194.981 55.1208C195.037 55.1758 195.067 55.2505 195.067 55.3283V64.2524C195.067 64.3302 195.037 64.4049 194.981 64.46C194.926 64.515 194.852 64.5459 194.774 64.5459ZM186.243 63.9588H194.468V55.6219H186.237L186.243 63.9588Z" fill="#D1D3D4"/>
<path d="M192.7 57.9704H188.07C187.992 57.9704 187.918 57.9395 187.863 57.8844C187.808 57.8294 187.777 57.7547 187.777 57.6769C187.777 57.599 187.808 57.5243 187.863 57.4693C187.918 57.4142 187.992 57.3833 188.07 57.3833H192.7C192.778 57.3833 192.852 57.4142 192.908 57.4693C192.963 57.5243 192.994 57.599 192.994 57.6769C192.994 57.7547 192.963 57.8294 192.908 57.8844C192.852 57.9395 192.778 57.9704 192.7 57.9704Z" fill="#D1D3D4"/>
<path d="M192.7 59.8902H188.07C187.992 59.8902 187.918 59.8593 187.863 59.8042C187.808 59.7492 187.777 59.6745 187.777 59.5967C187.777 59.5188 187.808 59.4441 187.863 59.3891C187.918 59.334 187.992 59.3031 188.07 59.3031H192.7C192.778 59.3031 192.852 59.334 192.908 59.3891C192.963 59.4441 192.994 59.5188 192.994 59.5967C192.994 59.6745 192.963 59.7492 192.908 59.8042C192.852 59.8593 192.778 59.8902 192.7 59.8902Z" fill="#D1D3D4"/>
<path d="M191.272 62.174H188.047C187.969 62.174 187.894 62.1431 187.839 62.088C187.784 62.033 187.753 61.9583 187.753 61.8805C187.753 61.8026 187.784 61.7279 187.839 61.6729C187.894 61.6178 187.969 61.5869 188.047 61.5869H191.272C191.35 61.5869 191.425 61.6178 191.48 61.6729C191.535 61.7279 191.566 61.8026 191.566 61.8805C191.566 61.9583 191.535 62.033 191.48 62.088C191.425 62.1431 191.35 62.174 191.272 62.174Z" fill="#D1D3D4"/>
<path d="M190.403 56.4322C190.325 56.4322 190.25 56.4012 190.195 56.3462C190.14 56.2911 190.109 56.2165 190.109 56.1386V54.3773C190.109 54.2994 190.14 54.2248 190.195 54.1697C190.25 54.1147 190.325 54.0837 190.403 54.0837C190.481 54.0837 190.556 54.1147 190.611 54.1697C190.666 54.2248 190.697 54.2994 190.697 54.3773V56.1386C190.697 56.2165 190.666 56.2911 190.611 56.3462C190.556 56.4012 190.481 56.4322 190.403 56.4322Z" fill="#D1D3D4"/>
<path d="M127.288 35.6544H118.463V44.5785H127.288V35.6544Z" fill="white"/>
<path d="M127.282 44.872H118.469C118.391 44.872 118.317 44.841 118.262 44.786C118.206 44.7309 118.176 44.6563 118.176 44.5784V35.6603C118.176 35.5824 118.206 35.5077 118.262 35.4527C118.317 35.3976 118.391 35.3667 118.469 35.3667H127.282C127.36 35.3667 127.434 35.3976 127.489 35.4527C127.545 35.5077 127.576 35.5824 127.576 35.6603V44.5843C127.574 44.6611 127.542 44.7343 127.487 44.7881C127.433 44.8419 127.359 44.872 127.282 44.872ZM118.757 44.2849H126.982V35.9479H118.757V44.2849Z" fill="#D1D3D4"/>
<path d="M125.19 38.3199H120.555C120.477 38.3199 120.402 38.289 120.347 38.2339C120.292 38.1789 120.261 38.1042 120.261 38.0263C120.261 37.9485 120.292 37.8738 120.347 37.8188C120.402 37.7637 120.477 37.7328 120.555 37.7328H125.19C125.268 37.7328 125.343 37.7637 125.398 37.8188C125.453 37.8738 125.484 37.9485 125.484 38.0263C125.484 38.1042 125.453 38.1789 125.398 38.2339C125.343 38.289 125.268 38.3199 125.19 38.3199Z" fill="#D1D3D4"/>
<path d="M125.19 40.2163H120.555C120.477 40.2163 120.402 40.1853 120.347 40.1303C120.292 40.0752 120.261 40.0006 120.261 39.9227C120.261 39.8449 120.292 39.7702 120.347 39.7151C120.402 39.6601 120.477 39.6292 120.555 39.6292H125.19C125.268 39.6292 125.343 39.6601 125.398 39.7151C125.453 39.7702 125.484 39.8449 125.484 39.9227C125.484 40.0006 125.453 40.0752 125.398 40.1303C125.343 40.1853 125.268 40.2163 125.19 40.2163Z" fill="#D1D3D4"/>
<path d="M123.78 42.5059H120.555C120.478 42.5044 120.404 42.473 120.349 42.4183C120.294 42.3636 120.263 42.2898 120.261 42.2124C120.261 42.1345 120.292 42.0599 120.347 42.0048C120.402 41.9498 120.477 41.9188 120.555 41.9188H123.78C123.858 41.9188 123.933 41.9498 123.988 42.0048C124.043 42.0599 124.074 42.1345 124.074 42.2124C124.074 42.2902 124.043 42.3649 123.988 42.42C123.933 42.475 123.858 42.5059 123.78 42.5059Z" fill="#D1D3D4"/>
<path d="M122.911 36.7641C122.833 36.7626 122.76 36.7312 122.705 36.6764C122.65 36.6217 122.619 36.5479 122.617 36.4705V34.7092C122.617 34.6313 122.648 34.5567 122.703 34.5016C122.758 34.4466 122.833 34.4156 122.911 34.4156C122.989 34.4156 123.064 34.4466 123.119 34.5016C123.174 34.5567 123.205 34.6313 123.205 34.7092V36.4705C123.205 36.5484 123.174 36.623 123.119 36.6781C123.064 36.7332 122.989 36.7641 122.911 36.7641Z" fill="#D1D3D4"/>
<path d="M204.703 41.6077H195.878V50.5317H204.703V41.6077Z" fill="white"/>
<path d="M204.697 50.8252H195.884C195.806 50.8252 195.732 50.7943 195.677 50.7393C195.622 50.6842 195.591 50.6095 195.591 50.5317V41.6076C195.591 41.5298 195.622 41.4551 195.677 41.4001C195.732 41.345 195.806 41.3141 195.884 41.3141H204.697C204.775 41.3141 204.849 41.345 204.905 41.4001C204.96 41.4551 204.991 41.5298 204.991 41.6076V50.5317C204.991 50.6095 204.96 50.6842 204.905 50.7393C204.849 50.7943 204.775 50.8252 204.697 50.8252ZM196.172 50.2381H204.397V41.9012H196.172V50.2381Z" fill="#D1D3D4"/>
<path d="M202.605 44.2732H197.987C197.91 44.2716 197.836 44.2402 197.781 44.1855C197.727 44.1308 197.695 44.057 197.694 43.9796C197.694 43.9017 197.725 43.8271 197.78 43.772C197.835 43.717 197.909 43.686 197.987 43.686H202.623C202.701 43.686 202.775 43.717 202.83 43.772C202.886 43.8271 202.916 43.9017 202.916 43.9796C202.916 44.0194 202.907 44.0587 202.891 44.0951C202.875 44.1316 202.852 44.1644 202.823 44.1918C202.794 44.2191 202.759 44.2404 202.722 44.2544C202.685 44.2683 202.645 44.2747 202.605 44.2732Z" fill="#D1D3D4"/>
<path d="M202.605 46.1695H197.987C197.91 46.168 197.836 46.1366 197.781 46.0819C197.727 46.0271 197.695 45.9533 197.694 45.8759C197.694 45.7981 197.725 45.7234 197.78 45.6684C197.835 45.6133 197.909 45.5824 197.987 45.5824H202.623C202.701 45.5824 202.775 45.6133 202.83 45.6684C202.886 45.7234 202.916 45.7981 202.916 45.8759C202.916 45.9158 202.907 45.9551 202.891 45.9915C202.875 46.0279 202.852 46.0608 202.823 46.0881C202.794 46.1154 202.759 46.1367 202.722 46.1507C202.685 46.1647 202.645 46.1711 202.605 46.1695Z" fill="#D1D3D4"/>
<path d="M200.337 42.7056C200.26 42.7056 200.185 42.6747 200.13 42.6196C200.075 42.5646 200.044 42.4899 200.044 42.4121V40.6507C200.045 40.5733 200.077 40.4995 200.131 40.4448C200.186 40.3901 200.26 40.3587 200.337 40.3572C200.415 40.3572 200.49 40.3881 200.545 40.4432C200.6 40.4982 200.631 40.5729 200.631 40.6507V42.4121C200.631 42.4899 200.6 42.5646 200.545 42.6196C200.49 42.6747 200.415 42.7056 200.337 42.7056Z" fill="#D1D3D4"/>
<path d="M145.036 112.924H133.456C133.378 112.924 133.304 112.893 133.249 112.838C133.194 112.783 133.163 112.708 133.163 112.63C133.164 112.553 133.196 112.479 133.25 112.424C133.305 112.369 133.379 112.338 133.456 112.337H145.036C145.114 112.337 145.189 112.367 145.244 112.423C145.299 112.478 145.33 112.552 145.33 112.63C145.33 112.708 145.299 112.783 145.244 112.838C145.189 112.893 145.114 112.924 145.036 112.924Z" fill="#D1D3D4"/>
<path d="M145.036 115.9H133.456C133.378 115.9 133.304 115.869 133.249 115.814C133.194 115.759 133.163 115.685 133.163 115.607C133.164 115.529 133.196 115.455 133.25 115.401C133.305 115.346 133.379 115.315 133.456 115.313H145.036C145.114 115.313 145.189 115.344 145.244 115.399C145.299 115.454 145.33 115.529 145.33 115.607C145.33 115.685 145.299 115.759 145.244 115.814C145.189 115.869 145.114 115.9 145.036 115.9Z" fill="#D1D3D4"/>
<path d="M136.435 52.4222H127.17C127.092 52.4222 127.018 52.3912 126.962 52.3362C126.907 52.2811 126.876 52.2065 126.876 52.1286C126.878 52.0512 126.909 51.9775 126.964 51.9227C127.019 51.868 127.093 51.8366 127.17 51.8351H136.435C136.513 51.8351 136.588 51.866 136.643 51.9211C136.698 51.9761 136.729 52.0508 136.729 52.1286C136.729 52.1672 136.721 52.2053 136.706 52.241C136.692 52.2766 136.67 52.3089 136.643 52.3362C136.616 52.3635 136.583 52.3851 136.548 52.3998C136.512 52.4146 136.474 52.4222 136.435 52.4222Z" fill="#D1D3D4"/>
<path d="M133.128 55.7276H125.848C125.771 55.7276 125.696 55.6967 125.641 55.6416C125.586 55.5866 125.555 55.5119 125.555 55.4341C125.556 55.3567 125.588 55.2829 125.642 55.2281C125.697 55.1734 125.771 55.142 125.848 55.1405H133.128C133.205 55.1405 133.28 55.1714 133.335 55.2265C133.39 55.2815 133.421 55.3562 133.421 55.4341C133.421 55.5119 133.39 55.5866 133.335 55.6416C133.28 55.6967 133.205 55.7276 133.128 55.7276Z" fill="#D1D3D4"/>
<path d="M217.246 135.739H17.7542C17.6763 135.739 17.6016 135.708 17.5465 135.653C17.4914 135.598 17.4604 135.523 17.4604 135.445C17.4604 135.367 17.4914 135.293 17.5465 135.238C17.6016 135.183 17.6763 135.152 17.7542 135.152H217.246C217.324 135.152 217.398 135.183 217.453 135.238C217.508 135.293 217.539 135.367 217.539 135.445C217.539 135.523 217.508 135.598 217.453 135.653C217.398 135.708 217.324 135.739 217.246 135.739Z" fill="#D1D3D4"/>
<path d="M36.4251 146.436C36.4251 146.436 34.5509 151.561 35.3793 152.06C36.2077 152.559 52.7458 152.06 51.7529 151.068C50.7601 150.076 46.3479 146.77 46.3479 146.77" fill="white"/>
<path d="M39.157 152.53C37.0479 152.53 35.4558 152.454 35.2149 152.307C34.316 151.767 35.4088 148.338 36.1373 146.336C36.1653 146.265 36.22 146.207 36.2897 146.176C36.3593 146.145 36.4386 146.142 36.5105 146.168C36.5824 146.194 36.6413 146.247 36.6747 146.315C36.7082 146.384 36.7135 146.463 36.6895 146.536C35.7671 149.06 35.2208 151.526 35.5145 151.82C36.6601 152.324 49.5616 151.726 51.377 151.121C50.155 149.994 46.2246 147.046 46.1776 147.011C46.1166 146.964 46.0764 146.894 46.0654 146.817C46.0545 146.741 46.0736 146.663 46.1189 146.6C46.142 146.569 46.171 146.543 46.2042 146.524C46.2374 146.504 46.2742 146.491 46.3123 146.486C46.3505 146.48 46.3894 146.482 46.4268 146.492C46.4642 146.501 46.4993 146.518 46.5301 146.541C46.7123 146.676 50.9716 149.87 51.9704 150.863C52.0439 150.931 52.089 151.025 52.0966 151.125C52.1043 151.225 52.0739 151.324 52.0115 151.403C51.4005 152.154 43.9393 152.53 39.157 152.53Z" fill="#002947"/>
<path d="M53.145 48.5766C52.3636 48.5414 51.5823 48.4063 50.6716 48.33C49.761 48.2537 48.7388 47.9425 48.727 47.0971C48.727 46.3691 49.5789 45.7761 49.3909 45.0774C49.3236 44.8901 49.222 44.7168 49.0912 44.5667C47.8868 42.9487 47.3544 40.9284 47.6051 38.9274C47.8558 36.9265 48.8702 35.0997 50.4366 33.8285C50.2016 33.9107 49.949 33.6758 49.9255 33.4292C49.9199 33.1681 50.0169 32.9152 50.1958 32.7247C50.8244 32.0319 51.6408 31.5363 52.5458 31.298C55.4051 30.4173 58.4636 30.4173 61.323 31.298C63.5144 31.938 66.1464 33.6876 65.8585 36.3295C65.8277 36.8155 65.6294 37.2758 65.2974 37.6322C64.9654 37.9886 64.5201 38.2191 64.0373 38.2846C63.5496 41.1145 62.0633 43.0519 60.195 45.1009C58.9414 46.5077 57.3591 47.5827 55.589 48.2302C54.8049 48.5045 53.9745 48.6221 53.145 48.5766Z" fill="white"/>
<path d="M53.4918 48.8819H53.1335C52.6635 48.8819 52.2052 48.8056 51.7176 48.7469C51.3768 48.7058 51.0243 48.6647 50.6483 48.6295C49.2736 48.5179 48.4452 47.9484 48.4335 47.1148C48.4574 46.7188 48.594 46.3379 48.8271 46.0169C49.0151 45.6998 49.1796 45.4298 49.1091 45.1656C49.0557 45.029 48.9803 44.9021 48.8858 44.7898C47.6714 43.1849 47.0991 41.1853 47.2805 39.1813C47.4619 37.1774 48.3841 35.3129 49.867 33.9518C49.733 33.8225 49.6497 33.6497 49.632 33.4645C49.6118 33.1366 49.7215 32.8139 49.9375 32.5662C50.6067 31.8336 51.4706 31.3062 52.4285 31.0456C55.3441 30.1531 58.4604 30.1531 61.3761 31.0456C63.9493 31.7971 66.411 33.7463 66.1172 36.3942C66.074 36.9011 65.8728 37.3817 65.5418 37.7682C65.2109 38.1548 64.7669 38.4278 64.2725 38.5489C63.685 41.4844 62.0458 43.4806 60.395 45.3006C59.117 46.7404 57.5023 47.8417 55.695 48.5062C54.9885 48.7604 54.2426 48.8876 53.4918 48.8819ZM50.3957 33.5291C50.4515 33.5294 50.5063 33.5442 50.5547 33.572C50.6031 33.5998 50.6434 33.6396 50.6718 33.6876C50.7085 33.7461 50.7239 33.8154 50.7153 33.8838C50.7068 33.9523 50.6748 34.0157 50.6248 34.0633C49.1184 35.288 48.1444 37.0475 47.9067 38.9735C47.6691 40.8996 48.1863 42.8428 49.35 44.3964C49.5017 44.5684 49.6193 44.7677 49.6966 44.9835C49.7351 45.2166 49.7242 45.4552 49.6644 45.6838C49.6047 45.9124 49.4976 46.1259 49.35 46.3104C49.178 46.5403 49.0706 46.8119 49.0386 47.0971C49.0386 47.8604 50.4368 48.0189 50.713 48.0424C51.1007 48.0424 51.4591 48.1187 51.8057 48.1598C52.2816 48.2126 52.7281 48.2655 53.1746 48.289C53.9724 48.3356 54.7715 48.2218 55.5246 47.9543C57.2475 47.3239 58.7876 46.2771 60.0072 44.9072C62.0517 42.6527 63.3266 40.8444 63.779 38.2318C63.7934 38.1723 63.8261 38.1189 63.8724 38.0789C63.9188 38.0389 63.9765 38.0143 64.0375 38.0087C64.442 37.9438 64.8128 37.7445 65.0899 37.443C65.3671 37.1415 65.5345 36.7555 65.565 36.3472C65.8528 33.7052 62.9858 32.1376 61.241 31.6503C58.4386 30.7898 55.4423 30.7898 52.64 31.6503C51.7881 31.867 51.0195 32.3307 50.431 32.9831C50.3037 33.1073 50.2281 33.2751 50.2195 33.4528C50.2312 33.5087 50.2624 33.5586 50.3076 33.5937C50.3321 33.5662 50.3621 33.5442 50.3957 33.5291Z" fill="#002947"/>
<path d="M91.9848 54.2716L99.8867 60.5478L100.098 60.9177L101.15 62.7436L99.1347 62.133L98.7234 62.0097L90.8215 55.7335L91.9848 54.2716Z" fill="#002947"/>
<path d="M101.15 63.0371H101.067L98.6411 62.3032C98.6045 62.2928 98.5704 62.2748 98.5412 62.2503L90.6394 55.9624C90.6088 55.9392 90.5831 55.9101 90.564 55.8768C90.5448 55.8436 90.5325 55.8068 90.5278 55.7687C90.5228 55.6909 90.5458 55.6139 90.5924 55.5514L91.7674 54.0895C91.7909 54.0589 91.8203 54.0334 91.854 54.0144C91.8876 53.9953 91.9247 53.9833 91.963 53.9789C92.0014 53.9745 92.0403 53.9779 92.0773 53.9888C92.1143 53.9998 92.1488 54.0181 92.1786 54.0426L100.069 60.3188C100.098 60.3405 100.122 60.3686 100.139 60.401L101.402 62.5967C101.435 62.6453 101.453 62.7025 101.453 62.7611C101.453 62.8197 101.435 62.877 101.402 62.9255C101.372 62.963 101.334 62.9927 101.29 63.0121C101.246 63.0315 101.198 63.0401 101.15 63.0371ZM98.8585 61.7454L100.533 62.2503L99.6634 60.7415L92.0259 54.6825L91.2269 55.6865L98.8585 61.7454Z" fill="#002947"/>
<path d="M89.0256 53.9857L89.8808 52.91C89.9188 52.8623 89.9657 52.8226 90.019 52.793C90.0723 52.7635 90.1309 52.7447 90.1914 52.7378C90.252 52.7308 90.3133 52.7359 90.3719 52.7527C90.4305 52.7694 90.4852 52.7976 90.533 52.8354L94.2863 55.8158L92.85 57.6223L89.1012 54.6456C89.0522 54.6077 89.0113 54.5604 88.9809 54.5065C88.9505 54.4525 88.9312 54.393 88.9242 54.3315C88.9171 54.27 88.9225 54.2078 88.9399 54.1484C88.9573 54.0889 88.9864 54.0336 89.0256 53.9857Z" fill="#002947"/>
<path d="M92.8543 57.9175C92.7881 57.9167 92.7241 57.894 92.6722 57.8529L88.9181 54.8704C88.8398 54.8093 88.7745 54.7331 88.7261 54.6464C88.6777 54.5597 88.6471 54.4642 88.6361 54.3655C88.6208 54.262 88.627 54.1565 88.6543 54.0555C88.6816 53.9545 88.7294 53.8602 88.7947 53.7784L89.0238 53.9604L88.7947 53.7784L89.6524 52.704C89.7136 52.6258 89.7898 52.5606 89.8766 52.5122C89.9634 52.4638 90.0589 52.4332 90.1577 52.4222C90.3573 52.3996 90.5579 52.4566 90.7158 52.5807L94.4699 55.6219C94.5004 55.6461 94.5255 55.6763 94.5437 55.7107C94.5619 55.745 94.5728 55.7828 94.5757 55.8215C94.5808 55.8589 94.5783 55.897 94.5682 55.9333C94.5581 55.9697 94.5406 56.0036 94.5169 56.0329L93.0834 57.8353C93.0602 57.8659 93.0311 57.8915 92.9978 57.9107C92.9645 57.9298 92.9277 57.9421 92.8895 57.9469L92.8543 57.9175ZM90.2458 53.0328C90.2198 53.0321 90.1939 53.0376 90.1705 53.0488C90.147 53.0601 90.1265 53.0767 90.1107 53.0974L89.2529 54.1718C89.2386 54.1898 89.2281 54.2106 89.2221 54.2328C89.216 54.255 89.2145 54.2782 89.2177 54.3009C89.22 54.323 89.227 54.3444 89.2381 54.3636C89.2493 54.3828 89.2643 54.3995 89.2823 54.4125L92.8073 57.213L93.8765 55.8685L90.3516 53.068C90.3207 53.0459 90.2838 53.0336 90.2458 53.0328Z" fill="#002947"/>
<path d="M91.8321 58.3343C91.7659 58.3335 91.7019 58.3108 91.65 58.2697C91.4443 58.1112 89.676 56.7198 89.4292 56.5084C89.1054 55.9685 88.8917 55.3699 88.8006 54.7471C88.7849 54.6685 88.8007 54.5869 88.8447 54.5199C88.8887 54.4529 88.9572 54.4059 89.0356 54.3889C89.0746 54.3804 89.1149 54.3797 89.1542 54.3869C89.1934 54.3941 89.2308 54.4091 89.2642 54.431C89.2976 54.4529 89.3263 54.4812 89.3486 54.5143C89.3709 54.5474 89.3863 54.5846 89.394 54.6238C89.4822 55.1302 89.6341 55.6233 89.8463 56.0916C90.0402 56.2677 91.4796 57.4067 92.0201 57.8529C92.0522 57.8765 92.0792 57.9064 92.0993 57.9408C92.1195 57.9752 92.1325 58.0133 92.1374 58.0529C92.1424 58.0924 92.1392 58.1326 92.1281 58.1709C92.117 58.2092 92.0983 58.2448 92.073 58.2756C92.0393 58.302 92.0004 58.3209 91.9589 58.331C91.9173 58.3411 91.8741 58.3423 91.8321 58.3343Z" fill="#002947"/>
<path d="M41.3601 65.6027C41.3601 65.6027 35.25 78.0024 35.7377 81.801C36.2253 85.5996 48.8096 84.1142 48.8096 84.1142L48.1751 65.2739L41.3601 65.6027Z" fill="white"/>
<path d="M43.61 84.6955H42.435C38.017 84.5546 35.6611 83.5976 35.4379 81.8598C34.9326 78.0142 40.837 66.0079 41.0896 65.4912C41.1125 65.4444 41.1474 65.4045 41.1907 65.3756C41.2341 65.3467 41.2844 65.3299 41.3364 65.3268L48.1161 64.9981C48.1556 64.9955 48.1953 65.0009 48.2326 65.014C48.27 65.0271 48.3043 65.0477 48.3335 65.0744C48.39 65.1283 48.4236 65.2019 48.4275 65.2799L49.0855 84.126C49.0889 84.1995 49.064 84.2715 49.0159 84.3272C48.9678 84.3828 48.9002 84.418 48.827 84.4254C47.0939 84.6068 45.3525 84.697 43.61 84.6955ZM41.5479 65.9081C40.8488 67.3524 35.5789 78.343 36.0313 81.7893C36.3955 84.5957 44.9084 84.2728 48.5039 83.8794L47.8635 65.6028L41.5479 65.9081Z" fill="#002947"/>
<path d="M65.6765 144.011L66.0114 152.06C66.0114 152.06 81.116 152.166 80.2348 151.068C79.3535 149.97 72.515 145.115 72.515 145.115L71.4105 139.161L65.6765 144.011Z" fill="white"/>
<path d="M67.9443 152.36H66.0056C65.9311 152.357 65.8604 152.327 65.8072 152.274C65.7539 152.222 65.722 152.152 65.7177 152.078L65.3828 144.029C65.3823 143.984 65.3915 143.94 65.4097 143.9C65.428 143.859 65.4549 143.823 65.4886 143.794L71.2226 138.944C71.2623 138.912 71.3095 138.89 71.3598 138.881C71.4101 138.872 71.4619 138.876 71.5105 138.892C71.5588 138.91 71.6018 138.94 71.6356 138.979C71.6694 139.018 71.6931 139.064 71.7043 139.115L72.7853 144.95C73.6548 145.573 79.618 149.829 80.464 150.886C80.518 150.947 80.5525 151.022 80.563 151.103C80.5735 151.184 80.5595 151.266 80.5227 151.338C80.1056 152.195 73.1555 152.36 67.9443 152.36ZM66.2935 151.773C72.3388 151.808 78.7896 151.579 79.8882 151.127C78.913 150.105 74.6007 146.952 72.3447 145.361C72.2834 145.316 72.2415 145.249 72.2272 145.174L71.2167 139.719L65.9762 144.152L66.2935 151.773Z" fill="#002947"/>
<path d="M68.4143 87.4608L74.2893 146.219L64.5838 146.436L53.5506 104.939L47.4405 146.776L36.1958 146.224C36.1958 146.224 38.1522 122.858 39.1744 113.963C40.1967 105.068 41.7712 89.6742 41.7712 89.6742L68.4143 87.4608Z" fill="#002947"/>
<path d="M64.8013 42.4003C64.8013 42.4003 66.8282 45.735 66.3523 46.3867C65.8764 47.0384 64.4253 46.5394 64.4253 46.5394" fill="white"/>
<path d="M65.4769 47.0208C65.0774 47.0133 64.6814 46.946 64.3019 46.8212C64.2285 46.7946 64.1685 46.7405 64.1345 46.6703C64.1004 46.6001 64.0952 46.5195 64.1197 46.4455C64.1451 46.3726 64.1982 46.3127 64.2675 46.2786C64.3367 46.2446 64.4166 46.2391 64.4899 46.2635C64.9011 46.4044 65.8294 46.5746 66.0879 46.2165C66.3464 45.8584 65.5004 44.2145 64.5251 42.553C64.5047 42.5207 64.491 42.4846 64.4847 42.447C64.4784 42.4093 64.4797 42.3708 64.4884 42.3337C64.4972 42.2965 64.5132 42.2615 64.5357 42.2306C64.5581 42.1997 64.5865 42.1736 64.6191 42.1537C64.6519 42.1332 64.6884 42.1194 64.7265 42.113C64.7646 42.1067 64.8037 42.1079 64.8413 42.1166C64.879 42.1253 64.9145 42.1414 64.946 42.1639C64.9774 42.1864 65.0041 42.2148 65.0245 42.2477C65.6649 43.2986 67.0925 45.8231 66.5637 46.557C66.4319 46.7144 66.2648 46.8384 66.0759 46.919C65.887 46.9996 65.6818 47.0345 65.4769 47.0208Z" fill="#002947"/>
<path d="M64.5076 38.0909C65.8354 39.2651 65.3477 41.6135 65.2772 43.1341C65.1774 45.2947 65.0246 47.4435 64.8249 49.5923C64.7015 50.9544 61.1589 50.8487 60.5479 50.4143L60.8945 55.8333L53.5625 52.6864L54.0501 46.4748C54.0501 46.4748 56.4001 46.5805 57.8689 43.8798C59.3376 41.1791 59.4669 36.8345 59.4669 36.8345C59.4669 36.8345 63.2151 36.9519 64.5076 38.0909Z" fill="white"/>
<path d="M60.8945 56.1327C60.8558 56.141 60.8158 56.141 60.777 56.1327L53.4627 52.9741C53.4078 52.9477 53.3618 52.9059 53.3305 52.8537C53.2992 52.8015 53.2838 52.7413 53.2864 52.6805L53.7623 46.4513C53.7683 46.3755 53.8035 46.305 53.8605 46.2547C53.9175 46.2043 53.9918 46.178 54.0678 46.1812C54.1559 46.1812 56.2474 46.24 57.628 43.7095C59.0674 41.0734 59.1908 36.8697 59.1908 36.8286C59.1921 36.7899 59.2011 36.7517 59.2172 36.7165C59.2333 36.6812 59.2563 36.6495 59.2848 36.6231C59.312 36.5949 59.345 36.573 59.3815 36.5588C59.418 36.5446 59.4572 36.5385 59.4963 36.5409C59.6549 36.5409 63.3679 36.676 64.7191 37.8737C65.9353 38.9422 65.7766 40.8092 65.6474 42.3239C65.6474 42.6175 65.6004 42.9111 65.5886 43.1518C65.4888 45.3065 65.336 47.4846 65.1363 49.61C65.1056 49.8432 65.0101 50.0631 64.8605 50.2448C64.711 50.4264 64.5134 50.5624 64.2903 50.6374C63.1995 51.0301 62.0188 51.1015 60.8886 50.8429L61.2059 55.8098C61.2091 55.8598 61.1995 55.9098 61.1779 55.955C61.1563 56.0002 61.1234 56.0392 61.0825 56.0681C61.0288 56.11 60.9626 56.1327 60.8945 56.1327ZM53.8445 52.5161L60.542 55.3812L60.2248 50.4378C60.2227 50.3822 60.2358 50.3272 60.2627 50.2786C60.2897 50.2299 60.3293 50.1896 60.3775 50.1618C60.4244 50.1333 60.4783 50.1182 60.5332 50.1182C60.5881 50.1182 60.642 50.1333 60.6889 50.1618C61.7694 50.4986 62.93 50.476 63.9965 50.0973C64.3138 49.9524 64.4841 49.7704 64.5076 49.5512C64.7015 47.42 64.8543 45.2477 64.9541 43.0931C64.9541 42.8289 64.9894 42.547 65.0129 42.2476C65.1304 40.8679 65.2773 39.1594 64.2844 38.2846C63.2915 37.4099 60.6067 37.1691 59.7195 37.1104C59.6667 38.1437 59.3964 41.5842 58.098 43.9561C56.7997 46.328 54.9902 46.6627 54.2852 46.7214L53.8445 52.5161Z" fill="#002947"/>
<path d="M75.7875 67.4932C75.7875 67.4932 67.116 58.3343 63.6791 54.8939C60.4949 51.7 51.2241 48.7997 47.0117 53.3674C47.0117 53.3674 40.0616 63.0429 38.7397 68.6615L42.7935 71.1391C41.9039 77.8006 41.3783 84.5055 41.219 91.2241C48.8565 97.2772 68.4379 87.4607 68.4379 87.4607L66.6754 73.6754L69.842 76.8341L75.7875 67.4932Z" fill="#F8A8C3"/>
<path d="M64.8363 47.9895C64.8363 47.9895 63.1267 48.9582 62.2983 47.191L64.8363 47.9895Z" fill="white"/>
<path d="M63.8083 48.5414C63.609 48.5435 63.4106 48.5138 63.2208 48.4533C62.9521 48.3534 62.708 48.1967 62.5053 47.9941C62.3025 47.7915 62.1458 47.5477 62.0458 47.2791C62.029 47.2445 62.0194 47.2069 62.0175 47.1685C62.0155 47.1301 62.0213 47.0918 62.0344 47.0556C62.0476 47.0195 62.0678 46.9864 62.094 46.9582C62.1202 46.9301 62.1517 46.9074 62.1868 46.8916C62.2218 46.8748 62.2599 46.8651 62.2987 46.8631C62.3376 46.861 62.3764 46.8668 62.413 46.8799C62.4497 46.893 62.4833 46.9132 62.512 46.9394C62.5408 46.9656 62.564 46.9973 62.5804 47.0325C62.6533 47.2221 62.7652 47.3943 62.9089 47.5379C63.0526 47.6816 63.2249 47.7934 63.4146 47.8662C63.8513 47.9671 64.3097 47.9088 64.7071 47.7018C64.7749 47.6638 64.8551 47.6542 64.93 47.6751C65.0048 47.696 65.0684 47.7457 65.1066 47.8134C65.1432 47.8815 65.1519 47.961 65.1311 48.0354C65.1103 48.1098 65.0616 48.1733 64.995 48.2126C64.631 48.4145 64.2243 48.5271 63.8083 48.5414Z" fill="#002947"/>
<path d="M60.6125 43.6274C60.5731 43.0855 60.384 42.5652 60.0662 42.1244C59.8743 41.7538 59.6288 41.4135 59.3377 41.1145C59.185 40.9632 58.9999 40.8486 58.7963 40.7794C58.5927 40.7102 58.376 40.6883 58.1627 40.7153C57.9809 40.7531 57.8094 40.8292 57.6594 40.9385C57.5095 41.0479 57.3846 41.1879 57.2932 41.3494C57.1125 41.6761 57.0081 42.0394 56.9877 42.412C56.9212 43.222 57.0692 44.0352 57.4167 44.77C57.7642 45.5048 58.2991 46.1353 58.9675 46.5981L58.85 46.4631" fill="white"/>
<path d="M58.9672 46.8916C58.9082 46.892 58.8505 46.8735 58.8027 46.8388C58.0918 46.3453 57.5228 45.6741 57.1527 44.8921C56.7826 44.1102 56.6243 43.2448 56.6936 42.3826C56.7209 41.9696 56.8414 41.5682 57.0461 41.2084C57.1603 41.0106 57.3152 40.8392 57.5005 40.7056C57.6858 40.572 57.8974 40.4793 58.1212 40.4334C58.3742 40.4019 58.6311 40.4284 58.8723 40.5108C59.1135 40.5932 59.3328 40.7293 59.5136 40.909C59.8367 41.2226 60.1083 41.5852 60.3185 41.9834C60.6638 42.4725 60.8672 43.0475 60.906 43.6449C60.906 43.6837 60.8982 43.7221 60.883 43.7578C60.8678 43.7934 60.8455 43.8257 60.8176 43.8526C60.7896 43.8794 60.7564 43.9004 60.7201 43.9141C60.6838 43.9279 60.6451 43.9341 60.6064 43.9326C60.5678 43.9318 60.5297 43.9235 60.4944 43.908C60.459 43.8925 60.4271 43.8703 60.4004 43.8425C60.3736 43.8146 60.3526 43.7819 60.3386 43.7459C60.3245 43.71 60.3177 43.6717 60.3185 43.6331C60.2768 43.1453 60.102 42.6783 59.8132 42.2828C59.6297 41.9373 59.3961 41.6207 59.12 41.3434C59.0034 41.2261 58.8625 41.1358 58.7072 41.079C58.5518 41.0222 58.3859 41.0002 58.2211 41.0146C58.0827 41.0496 57.9534 41.1138 57.8419 41.2029C57.7304 41.2921 57.6394 41.404 57.5749 41.5313C57.4144 41.8177 57.322 42.1371 57.3046 42.4648C57.2448 43.2054 57.3754 43.949 57.6838 44.6251C57.9923 45.3012 58.4684 45.8874 59.0671 46.328L59.1846 46.4571C59.2317 46.5107 59.2577 46.5796 59.2577 46.6509C59.2577 46.7222 59.2317 46.7911 59.1846 46.8446C59.1209 46.8876 59.043 46.9044 58.9672 46.8916Z" fill="#002947"/>
<path d="M60.5475 50.4201C59.506 50.0422 58.596 49.3714 57.9272 48.4885C57.9272 48.4885 57.9272 51.7763 60.7003 52.8331L60.5475 50.4201Z" fill="#002947"/>
<path d="M60.7005 53.1267C60.6655 53.1323 60.6298 53.1323 60.5947 53.1267C57.6572 52.0112 57.6572 48.5414 57.6572 48.5061C57.6572 48.4426 57.6778 48.3808 57.716 48.33C57.7541 48.2792 57.8077 48.2421 57.8687 48.2243C57.9295 48.2057 57.9947 48.2077 58.0542 48.23C58.1137 48.2523 58.1642 48.2936 58.1977 48.3476C58.833 49.1748 59.691 49.8041 60.6711 50.1618C60.726 50.1798 60.7741 50.2142 60.8087 50.2604C60.8434 50.3066 60.863 50.3624 60.865 50.4201L61.0177 52.8331C61.0217 52.8818 61.013 52.9306 60.9924 52.9749C60.9718 53.0191 60.94 53.0573 60.9002 53.0856C60.8413 53.1242 60.7699 53.1389 60.7005 53.1267ZM58.3505 49.422C58.4543 50.0315 58.6914 50.6105 59.0447 51.1179C59.3981 51.6253 59.8592 52.0486 60.395 52.3576L60.2834 50.5962C59.572 50.3167 58.9127 49.9198 58.3329 49.422H58.3505Z" fill="#002947"/>
<path d="M70.2239 75.5836C73.0247 78.0175 76.5166 79.516 80.2114 79.8695C83.7775 80.122 93.0012 71.3975 95.4159 68.7144C97.6307 66.2368 99.3404 63.6301 99.2699 60.1603C99.2769 59.7296 99.1944 59.3021 99.0275 58.9049C98.8606 58.5078 98.6131 58.1495 98.3005 57.8529C98.0009 57.5946 97.6131 57.3715 97.5426 56.9899C97.5426 56.849 97.5426 56.7022 97.5074 56.5672C97.451 56.4197 97.347 56.2952 97.2119 56.2133C97.0768 56.1314 96.9182 56.0969 96.7612 56.1151C96.4475 56.1652 96.1532 56.2991 95.9094 56.5026C94.672 57.3563 93.6092 58.4384 92.778 59.6906C92.5519 60.1278 92.3746 60.5885 92.2492 61.0644C91.7557 62.6731 91.509 64.2935 90.3516 65.5323C89.1942 66.7711 82.6671 72.6481 80.1115 71.556C76.9625 70.2057 74.5949 68.9434 74.5949 68.9434" fill="white"/>
<path d="M80.3818 80.1865H80.2114C76.4394 79.846 72.8726 78.3187 70.0241 75.8243C69.9966 75.797 69.9748 75.7646 69.9598 75.7288C69.9449 75.693 69.9373 75.6547 69.9373 75.6159C69.9373 75.5771 69.9449 75.5388 69.9598 75.503C69.9748 75.4672 69.9966 75.4348 70.0241 75.4075C70.051 75.3801 70.0829 75.3584 70.1182 75.3436C70.1536 75.3288 70.1915 75.3211 70.2298 75.3211C70.2681 75.3211 70.306 75.3288 70.3413 75.3436C70.3766 75.3584 70.4086 75.3801 70.4354 75.4075C73.1971 77.7919 76.6315 79.2607 80.2643 79.6112C83.5836 79.846 92.4255 71.6735 95.2338 68.5324C97.2371 66.2897 99.0819 63.724 99.0114 60.1779C99.0187 59.7831 98.9424 59.3912 98.7875 59.028C98.6326 58.6647 98.4026 58.3383 98.1125 58.0702C98.0564 58.0181 97.9976 57.9691 97.9363 57.9234C97.6061 57.7249 97.3644 57.4077 97.2606 57.0369C97.2519 56.9569 97.2519 56.8762 97.2606 56.7962C97.2645 56.7414 97.2645 56.6865 97.2606 56.6318C97.2195 56.4791 97.0021 56.3911 96.8259 56.4028C96.5676 56.4481 96.3263 56.5616 96.1268 56.7316C94.9246 57.5639 93.8885 58.6133 93.0718 59.8256C92.861 60.2466 92.6918 60.687 92.5665 61.1408C92.4725 61.4578 92.3903 61.769 92.3021 62.0801C91.9496 63.3542 91.5854 64.6751 90.6101 65.7261C89.6349 66.777 82.8845 73.0473 80.0351 71.8261C76.9096 70.4875 74.5185 69.2135 74.495 69.2017C74.4265 69.1644 74.3756 69.1013 74.3535 69.0265C74.3315 68.9516 74.3401 68.871 74.3775 68.8025C74.4149 68.734 74.478 68.6831 74.5529 68.6611C74.6279 68.6391 74.7085 68.6477 74.777 68.6851C74.777 68.6851 77.1681 69.9591 80.2701 71.286C82.4674 72.2195 88.5656 67.0882 90.2048 65.3268C91.0801 64.3816 91.4091 63.1898 91.7616 61.9216C91.8439 61.6046 91.932 61.2875 92.0319 60.9705C92.1639 60.4745 92.349 59.9942 92.5841 59.538C93.4261 58.2527 94.5047 57.139 95.7625 56.256C96.051 56.0242 96.3954 55.8723 96.7613 55.8157C96.987 55.7882 97.2153 55.8399 97.4071 55.9619C97.599 56.084 97.7424 56.2689 97.8129 56.485C97.8349 56.5833 97.8467 56.6837 97.8481 56.7844C97.8452 56.8333 97.8452 56.8823 97.8481 56.9312C97.8834 57.1308 98.0949 57.2893 98.3123 57.4655L98.5061 57.624C98.8534 57.9452 99.1287 58.3362 99.314 58.7713C99.4993 59.2064 99.5904 59.6758 99.5813 60.1485C99.6576 63.906 97.6425 66.6831 95.6568 68.9023C93.4948 71.333 84.2769 80.1865 80.3818 80.1865Z" fill="#002947"/>
<path d="M66.8926 74.6384C66.8133 74.6382 66.7372 74.6065 66.6811 74.5503C64.4799 72.2804 62.4029 69.8933 60.4595 67.3993C60.4367 67.3681 60.4202 67.3327 60.4111 67.2952C60.402 67.2576 60.4004 67.2186 60.4064 67.1804C60.4124 67.1422 60.4259 67.1056 60.4461 67.0726C60.4663 67.0397 60.4928 67.011 60.5241 66.9883C60.5542 66.9646 60.5888 66.9472 60.6258 66.9373C60.6629 66.9273 60.7015 66.925 60.7395 66.9305C60.7774 66.936 60.8138 66.9492 60.8465 66.9692C60.8792 66.9893 60.9074 67.0157 60.9295 67.0471C62.8586 69.5205 64.9178 71.8899 67.0983 74.1452C67.1394 74.1855 67.1675 74.2371 67.1789 74.2934C67.1904 74.3498 67.1847 74.4083 67.1626 74.4614C67.1404 74.5145 67.1029 74.5597 67.0548 74.5913C67.0067 74.6228 66.9502 74.6392 66.8926 74.6384Z" fill="#002947"/>
<path d="M53.386 104.076C53.3171 104.075 53.2507 104.05 53.198 104.006C53.0512 103.882 49.6202 100.964 49.6025 96.3731C49.6025 96.2963 49.6327 96.2225 49.6865 96.1676C49.7403 96.1127 49.8135 96.0811 49.8904 96.0796C49.9287 96.0796 49.9666 96.0872 50.002 96.102C50.0373 96.1169 50.0693 96.1386 50.0961 96.1659C50.1229 96.1933 50.144 96.2257 50.1581 96.2612C50.1722 96.2968 50.1791 96.3349 50.1783 96.3731C50.1783 100.7 53.5329 103.548 53.5682 103.577C53.6136 103.616 53.6461 103.668 53.6613 103.725C53.6766 103.783 53.6738 103.844 53.6533 103.9C53.6329 103.957 53.5958 104.005 53.547 104.04C53.4982 104.074 53.44 104.093 53.3802 104.094L53.386 104.076Z" fill="white"/>
<path d="M63.9309 40.9222C64.0179 40.5064 63.9545 40.1414 63.7894 40.1069C63.6242 40.0724 63.4198 40.3814 63.3328 40.7972C63.2458 41.213 63.3092 41.578 63.4743 41.6125C63.6395 41.647 63.8439 41.338 63.9309 40.9222Z" fill="#002947"/>
<path d="M42.6876 69.4483H42.6406C42.5636 69.4339 42.4951 69.3906 42.4492 69.3273C42.4033 69.2639 42.3834 69.1853 42.3938 69.1078C42.4643 68.6909 44.0799 58.7747 45.9188 55.4575C45.9377 55.4236 45.9631 55.3937 45.9936 55.3696C46.024 55.3455 46.0589 55.3276 46.0963 55.317C46.1337 55.3063 46.1728 55.3032 46.2114 55.3076C46.25 55.3121 46.2873 55.3241 46.3212 55.343C46.3552 55.3619 46.3851 55.3873 46.4092 55.4177C46.4333 55.4482 46.4512 55.483 46.4619 55.5204C46.4725 55.5577 46.4757 55.5968 46.4712 55.6354C46.4667 55.6739 46.4547 55.7113 46.4358 55.7452C44.6733 58.9684 43.0107 69.1019 42.9931 69.2017C42.9828 69.2738 42.9456 69.3394 42.8889 69.3851C42.8322 69.4309 42.7603 69.4535 42.6876 69.4483Z" fill="#002947"/>
<path d="M199.615 103.142C199.694 101.921 199.434 100.702 198.863 99.6198C198.387 98.833 197.658 98.2048 197.265 97.3711C196.595 95.9327 197.065 94.236 196.906 92.6743C196.771 91.346 196.187 90.1034 195.25 89.1516C194.421 88.3179 193.352 87.7426 192.565 86.8736C191.266 85.4411 190.89 83.4273 190.156 81.6425C189.11 79.1191 187.297 76.9875 184.974 75.5483C186.384 78.3899 183.165 82.0065 184.622 84.8246C185.086 85.7171 185.973 86.3687 186.308 87.314C187.13 89.6037 184.399 92.0813 185.274 94.3593C185.709 95.4924 186.925 96.15 187.489 97.2244C188.247 98.6687 187.653 100.43 187.712 102.062C187.8 104.317 189.175 106.336 190.802 107.898C191.819 108.873 192.953 109.712 194.051 110.593C195.361 111.644 195.919 112.748 197.077 111.057C198.673 108.721 199.555 105.971 199.615 103.142Z" fill="#002947"/>
<path d="M201.078 104.434C200.661 102.673 200.355 100.8 201.078 99.1501C201.883 97.289 203.892 95.968 204.127 93.9542C204.28 92.6332 203.61 91.3005 203.874 89.9971C204.139 88.6937 205.202 87.8013 206.083 86.8443C208.103 84.6202 209.305 81.7751 209.491 78.7775C210.76 80.4507 212.046 82.1592 212.734 84.1436C213.421 86.1281 213.439 88.4589 212.264 90.1967C211.926 90.6029 211.649 91.0558 211.441 91.5412C211.048 92.827 212.146 94.0247 212.716 95.2458C213.054 95.9416 213.194 96.7164 213.123 97.4864C213.051 98.2563 212.77 98.992 212.311 99.6139C211.136 101.052 208.933 101.616 208.369 103.366C208.225 104.019 208.158 104.687 208.169 105.356C208.044 106.513 207.578 107.606 206.83 108.498C206.082 109.39 205.086 110.039 203.968 110.364C202.599 110.693 202.629 110.153 202.382 109.008C202.041 107.464 201.454 105.972 201.078 104.434Z" fill="#002947"/>
<path d="M196.736 91.8817C195.767 88.5293 195.379 85.0301 194.357 81.6895C193.487 79.0817 192.425 76.5423 191.178 74.0923L195.344 75.8536C196.677 76.4407 198.122 77.0807 198.751 78.384C199.844 80.6562 197.876 83.5623 199.027 85.8051C199.433 86.5918 200.161 87.1554 200.678 87.8717C201.9 89.5919 201.712 91.9815 201.042 93.9541C200.755 94.8172 199.491 99.2381 198.363 98.0287C197.911 97.5355 197.876 95.6802 197.688 95.0168C197.4 93.9541 197.036 92.9267 196.736 91.8817Z" fill="#002947"/>
<path d="M199.074 136.414C198.246 130.936 195.649 111.62 195.62 111.427L196.207 111.35C196.237 111.544 198.833 130.854 199.662 136.326L199.074 136.414Z" fill="#002947"/>
<path d="M199.92 141.598H199.333C199.386 134.664 202.206 110.129 203.645 108.556L204.074 108.955C202.834 110.311 199.973 134.136 199.92 141.598Z" fill="#002947"/>
<path d="M201.33 140.353H200.743C201.366 126.321 198.393 96.8545 198.358 96.5551L198.945 96.4963C198.969 96.7723 201.953 126.28 201.33 140.353Z" fill="#002947"/>
<path d="M191.877 120.72H207.387L206.306 138.334C206.118 141.375 203.862 143.735 201.142 143.735H198.146C195.426 143.735 193.17 141.387 192.982 138.334L191.877 120.72Z" fill="white"/>
<path d="M201.125 144.005H198.129C195.262 144.005 192.841 141.51 192.659 138.322L191.578 120.709C191.575 120.668 191.581 120.627 191.595 120.588C191.609 120.55 191.631 120.515 191.66 120.486C191.688 120.456 191.722 120.433 191.759 120.417C191.797 120.401 191.837 120.392 191.878 120.392H207.388C207.471 120.393 207.551 120.426 207.611 120.486C207.64 120.515 207.662 120.55 207.676 120.588C207.69 120.627 207.696 120.668 207.693 120.709L206.606 138.322C206.395 141.51 203.992 144.005 201.125 144.005ZM192.201 121.026L193.288 138.287C193.47 141.152 195.602 143.4 198.152 143.4H201.148C203.698 143.4 205.848 141.152 206.007 138.287L207.07 121.026H192.201Z" fill="#002947"/>
</svg>
