<svg width="1500" height="1500" viewBox="0 0 1500 1500" fill="none" xmlns="http://www.w3.org/2000/svg">
<circle cx="750" cy="750" r="750" fill="#F4ABC4"/>
<mask id="mask0_101_8" style="mask-type:alpha" maskUnits="userSpaceOnUse" x="0" y="0" width="1500" height="1500">
<circle cx="750" cy="750" r="750" fill="#C4C4C4"/>
</mask>
<g mask="url(#mask0_101_8)">
<path fill-rule="evenodd" clip-rule="evenodd" d="M1159.53 1526.93C1156.55 1499.66 1154.71 1472.2 1153.66 1444.79C1152.61 1417.41 1153.99 1389.7 1154.59 1362.31C1155.82 1306.6 1157.82 1250.75 1153.32 1195.12C1149.07 1142.55 1139.3 1090.34 1123.9 1039.82C1116.39 1015.22 1108.48 989.631 1096.14 966.899C1083.73 944.045 1064.08 928.825 1042.49 914.868C1019.5 900.008 996.693 884.867 973.794 869.868C954.572 857.279 919.981 842.626 904.21 825.796C887.614 808.086 884.495 764.188 873.443 743.209C862.68 722.775 832.214 709.446 808.756 709.446C769.927 709.446 740.507 707.49 708.58 742.891C692.65 760.554 705.324 778.41 688.627 795.363C673.276 810.95 634.018 826.968 614.232 836.012C590.535 846.844 566.24 856.408 541.592 864.926C516.45 873.617 490.674 880.094 465.39 888.296C441.155 896.157 409.509 928.561 390.695 945.706C373.204 961.647 368.863 959.862 355.565 979.227C326.381 1021.73 297.165 1064.71 273.925 1110.73C262.349 1133.65 251.14 1157.76 246.94 1183.21C242.46 1210.36 246.902 1236.6 254.167 1262.88C261.563 1289.63 285.047 1315.1 292.698 1341.79C296.224 1354.08 284.121 1367.5 289.688 1379.09C292.469 1384.88 295.97 1390.03 299.956 1395.07C303.028 1398.96 315.006 1398.1 316.555 1402.85C318.121 1407.66 309.455 1417.62 309.326 1422.6C309.144 1429.71 308.856 1436.82 308.619 1443.94L307.219 1485.99C306.299 1513.63 305.379 1541.27 304.46 1568.9C304.159 1577.92 303.72 1586.74 305.915 1595.3C305.123 1594.57 304.37 1593.78 303.682 1592.9C301.669 1590.31 297.401 1592.51 299.109 1595.53C301.96 1600.59 306.061 1604.15 310.879 1606.71C316.478 1614.84 1164.37 1633.01 1168.55 1609.23C1170.89 1595.88 1166.63 1581.6 1164.92 1568.34C1163.15 1554.53 1161.04 1540.78 1159.53 1526.93Z" fill="white"/>
<path fill-rule="evenodd" clip-rule="evenodd" d="M298.228 1183.26C300.303 1177.4 309.791 1179.94 307.702 1185.83C296.964 1216.15 304.581 1249.14 316.19 1278.08C318.52 1283.88 309.015 1286.38 306.717 1280.65C294.505 1250.21 286.95 1215.1 298.228 1183.26ZM370.23 1356.42C400.514 1360.62 430.823 1363.21 461.316 1365.3C462.68 1365.4 463.859 1365.2 464.878 1364.76C463.969 1378.52 463.232 1392.3 462.655 1406.07C454.341 1405.84 445.855 1406.39 437.615 1406.17C426.844 1405.88 416.086 1405.35 405.341 1404.54C384.537 1402.98 363.77 1400.52 343.2 1397.1C335.512 1395.83 325.749 1395.06 316.992 1392.54C308.715 1390.16 301.347 1386.21 297.478 1378.78C294.187 1372.48 293.585 1364.77 293.585 1357.81C293.585 1353.02 294.42 1348.15 294.924 1343.32C295.55 1342.89 296.115 1342.37 296.569 1341.79C305.706 1344.63 315.187 1346.63 324.471 1348.57C339.589 1351.74 354.928 1354.3 370.23 1356.42ZM353.15 1244.5C353.317 1253.76 355.914 1262.16 360.967 1269.95C364.386 1275.22 355.88 1280.07 352.484 1274.84C346.535 1265.66 343.521 1255.37 343.325 1244.5C343.212 1238.26 353.037 1238.28 353.15 1244.5ZM1129.45 1345.43C1133.56 1345.66 1137.68 1345.79 1141.79 1346.01C1145.42 1349.07 1150.44 1350.63 1155.03 1349.66C1155.19 1350.05 1155.33 1350.49 1155.47 1351C1156.28 1354.11 1156.68 1357.45 1157.15 1360.62C1157.61 1363.74 1157.97 1366.89 1158.22 1370.04C1158.34 1371.62 1159.11 1375.21 1158.13 1376.59C1157.25 1377.83 1155.29 1377.72 1153.94 1377.88C1150.31 1378.27 1146.62 1378.45 1142.96 1378.75C1136.05 1379.35 1129.14 1379.94 1122.23 1380.53C1115.47 1381.11 1108.04 1380.93 1101.42 1382.69C1100.29 1369.6 1099.26 1356.52 1098.3 1343.42C1108.55 1344.91 1119.27 1344.87 1129.45 1345.43ZM269.65 1323.73C273.776 1331.58 277.583 1339.31 285.48 1344.03C286.511 1344.63 287.666 1344.96 288.845 1345.04C287.96 1348.78 287.408 1352.61 286.917 1356.14C285.836 1363.93 285.603 1371.97 287.58 1379.65C289.508 1387.12 292.701 1393.79 298.964 1398.57C301.875 1400.8 305.055 1402.49 308.396 1403.83C307.831 1405.39 307.499 1406.94 307.671 1408.65C306.873 1412.61 306.345 1416.64 305.768 1420.5C304.503 1429.07 303.238 1437.65 302.243 1446.27C300.254 1463.41 298.694 1480.55 297.38 1497.75C296.066 1514.9 295.12 1532.08 294.334 1549.26C293.929 1558.05 293.573 1566.84 293.241 1575.64C292.91 1584.68 291.424 1593.93 295.476 1602.32C298.743 1609.09 309.783 1608.71 313.173 1602.32C317.471 1594.19 316.206 1584.55 316.317 1575.64C316.427 1567.25 316.575 1558.85 316.759 1550.46C317.127 1533.29 317.668 1516.12 318.098 1498.95C318.515 1482.18 319.031 1465.43 319.375 1448.67C319.547 1439.89 319.559 1431.11 319.608 1422.34C319.633 1417.47 319.841 1412.28 319.473 1407.21C322.543 1407.92 325.638 1408.53 328.696 1409.15C352.042 1413.87 375.633 1417.3 399.372 1419.43C411.297 1420.5 423.258 1421.25 435.22 1421.67C444.013 1421.99 453.125 1422.59 462.053 1422.27C461.353 1443.28 461.034 1464.3 461.071 1485.33C461.095 1500.5 461.304 1515.66 461.685 1530.83C461.894 1538.8 462.066 1546.78 462.311 1554.76C462.422 1558.34 462.422 1561.96 462.667 1565.53C462.741 1566.64 462.901 1567.72 463.109 1568.79C462.299 1571.05 461.624 1573.29 461.071 1575.38C458.369 1585.55 458.369 1595.32 459.573 1605.68C460.604 1614.47 468.108 1622.61 478.018 1619.53C479.627 1619.03 481.236 1618.51 482.832 1617.98C497.422 1619.61 512.098 1619.99 526.896 1620.26C548.523 1620.68 570.161 1620.81 591.8 1620.92C634.243 1621.14 676.697 1621.25 719.152 1621.37C804.467 1621.61 889.782 1621.84 975.097 1622.08C998.774 1622.15 1022.45 1622.21 1046.13 1622.29C1058.39 1622.32 1070.62 1622.33 1082.86 1622.8C1088.57 1623.01 1094.29 1623.32 1100.01 1623.4C1106.62 1623.51 1112.48 1621.63 1118.81 1619.93C1122.38 1618.95 1123.79 1615.41 1123.03 1612.42C1128.75 1613.76 1135.69 1610.91 1137.65 1604.55C1139.07 1599.94 1138.54 1594.94 1136.42 1590.67V1590.66C1132.32 1565.13 1127.11 1539.72 1123.02 1514.18C1118.54 1486.21 1114.23 1458.18 1110.43 1430.1C1107.58 1408.89 1105.24 1423.92 1103.21 1402.62C1112.04 1403.3 1122.02 1400.65 1130.77 1399.52C1137.04 1398.73 1143.37 1398.08 1149.66 1397.24C1149.19 1403.48 1149.32 1409.85 1149.15 1415.84C1148.82 1427.74 1148.97 1439.59 1149.28 1451.49C1149.87 1474.45 1151.18 1461.08 1153.28 1483.95C1155.4 1506.98 1158.01 1529.93 1161.16 1552.86C1162.78 1564.66 1164.52 1576.45 1166.35 1588.23C1167.19 1593.72 1168.07 1599.21 1168.96 1604.7C1170.03 1611.17 1170.37 1617.31 1175.3 1622.18C1179.04 1625.87 1186.7 1625.55 1189.18 1620.41C1192.32 1613.91 1190.9 1608.34 1189.73 1601.52C1188.78 1596.03 1187.87 1590.55 1186.98 1585.07C1185.06 1573.31 1183.24 1561.55 1181.54 1549.77C1178.25 1527.08 1175.14 1504.34 1172.36 1481.59C1169.56 1458.65 1166.67 1472.05 1163.91 1449.11C1162.53 1437.54 1161.14 1425.99 1159.52 1414.46C1158.7 1408.53 1158.18 1402.21 1157.1 1396.1C1157.44 1396.05 1157.79 1395.99 1158.13 1395.93C1165.6 1394.58 1171.97 1390.43 1173.85 1382.86C1175.64 1375.61 1173.51 1367.27 1172 1360.15C1170.71 1354.09 1169.54 1346.35 1165.58 1341.16C1179.53 1323.64 1188.61 1301.6 1194.39 1280.41C1200.7 1257.33 1203.34 1233.24 1203.9 1209.38C1204.55 1181.74 1202.43 1154.27 1197.63 1127.25C1197.51 1121.52 1197.25 1115.8 1196.81 1110.08C1192.59 1053.97 1174.86 987.55 1118.64 961.332C1118.41 961.224 1118.18 961.126 1117.95 961.029C1113.54 955.837 1108.04 951.164 1103.59 946.796C1095.72 939.048 1087.49 931.641 1078.77 924.814C1061.5 911.295 1042.57 900.498 1022.88 890.777C1002.97 880.937 982.772 871.702 963.32 860.965C946.372 851.596 931.119 840.315 916.64 827.582C900.368 813.263 888.787 793.957 884.243 772.884C884.01 771.783 882.352 772.086 882.328 773.138C881.136 811.762 907.589 845.895 938.033 867.489C974.434 893.284 1018.39 905.496 1055.3 930.504C1064.48 936.713 1073.06 943.722 1081.23 951.164C1068.71 949.906 1055.98 950.704 1044.25 954.118C1039.63 953.839 1034.99 953.756 1030.36 953.537C1019.77 953.016 1009.18 952.533 998.578 952.072C976.976 951.129 955.362 950.27 933.747 949.519C891.342 948.042 848.924 946.928 806.506 946.191C721.265 944.701 635.913 944.41 550.684 946.844C527.572 947.498 406.041 942.959 394.791 944.241C411.334 930.128 429.485 918.606 449.441 909.127C474.408 897.301 500.21 889.409 526.872 882.195C581.779 867.344 638.799 853.025 682.74 815.296C693.657 805.916 703.359 795.132 711.305 783.185C718.894 771.783 727.331 757.185 727.54 743.277C727.687 733.401 713.736 729.805 708.775 738.266C705.693 743.507 704.17 749.257 701.652 754.752C699.147 760.199 696.175 765.452 692.871 770.476C686.375 780.353 678.319 789.164 669.55 797.116C650.859 814.086 628.213 826.517 604.781 835.922C551.581 857.261 493.394 866.267 442.981 894.398C420.925 906.706 399.814 923.689 386.563 945.354C384.426 945.682 382.302 946.069 380.177 946.504C381.761 944.531 383.358 942.56 384.967 940.598C386.023 939.315 384.389 937.621 383.1 938.758C358.035 960.739 334.947 984.475 314.02 1010.35C294.003 1035.12 275.336 1061.07 262.122 1090.07C238.371 1142.17 233.139 1201.75 245.407 1257.46C248.748 1272.64 253.464 1287.5 259.469 1301.87C262.564 1309.29 265.916 1316.6 269.65 1323.73Z" fill="#060931"/>
<path fill-rule="evenodd" clip-rule="evenodd" d="M810.766 237.233C880.498 237.233 967.833 315.632 993.394 348.994C1014.88 377.043 1011.84 521.542 1011.84 607.259C1011.84 625.187 1003.62 659.116 1000.64 676.264C989.7 739.102 942.047 791.802 847.732 791.802C770.937 791.802 711.839 767.828 654.69 706.51C641.652 692.521 577.978 742.601 564.956 724.566C530.942 724.566 502.501 411.34 569.282 317.39C636.064 223.441 741.035 237.233 810.766 237.233Z" fill="white"/>
<path fill-rule="evenodd" clip-rule="evenodd" d="M601.183 259.295C641.476 223.165 695.155 205.783 749.314 207.066C777.363 207.732 805.314 212.997 831.804 222.015C845.055 226.542 857.888 232.448 870.157 239.13C874.578 241.532 878.654 244.347 882.578 247.336L883.555 248.087H883.568C894.092 251.815 903.487 258.508 912.01 266.34C929.093 264.996 946.31 266.509 962.828 271.702C985.818 278.94 1007.1 292.194 1022.05 311.016C1039.46 332.928 1045.24 359.507 1043.18 386.945L1042.8 391.606C1040.75 415.844 1037.1 447.02 1016.91 462.946C1015.38 464.156 1013.68 465.076 1011.93 465.633C1024.93 487.59 1035.6 511.967 1041.99 536.587C1066.37 630.624 1047.63 728.691 1018.31 819.326C1015.91 826.794 1004.45 831.757 998.614 824.458C988.2 811.41 973.07 801.46 956.049 799.596C945.549 798.446 935.098 800.528 925.175 795.832C921.282 793.98 917.524 790.954 914.822 787.274C898.071 793.532 880.031 796.486 862.138 795.759C832.774 794.573 801.384 784.551 781.182 762.57C777.94 759.042 777.119 755.08 777.865 751.509C780.399 750.618 783 749.955 785.68 749.54C811.298 764.421 839.536 774.364 869.884 774.989C887.42 775.349 904.525 772.932 918.744 762.14C921.82 759.804 924.649 757.218 927.265 754.439C956.993 735.59 977.953 703.576 987.918 669.284C997.202 637.305 996.06 604.007 992.867 571.205L991.182 553.895C988.727 528.49 986.449 503.009 985.81 477.495L986.003 477.485C992.281 477.086 992.327 467.399 986.003 467.802C969.646 468.846 953.414 466.201 937.107 467.353C936.971 459.755 936.416 452.192 934.15 444.864C932.857 440.677 925.46 439.851 924.676 444.864C923.628 451.569 923.245 458.238 923.13 464.973C898.727 464.654 874.347 462.63 849.94 463.462C845.438 458.729 844.005 450.337 841.899 444.499C841.592 443.64 841.285 442.793 840.966 441.933C839.115 450.276 836.492 458.435 833.041 466.422L827.055 466.442C793.093 466.599 758.439 467.6 725.275 474.551C722.97 472.807 721.598 469.764 721.228 467.001C718.822 449.019 715.389 431.516 709.304 414.38L708.433 411.962C708.362 411.762 708.287 411.549 708.209 411.325C703.725 418.458 698.375 425.106 692.541 431.298C689.102 434.947 685.496 438.437 681.796 441.827C678.202 445.761 674.487 449.635 670.886 453.581C671.027 454.299 671.15 455.028 671.25 455.77C672.351 463.958 672.465 472.263 671.658 480.482C670.199 495.343 665.943 509.662 659.105 522.908L658.889 524.235C657.85 530.443 656.373 536.858 652.923 541.533C657.229 546.287 660.546 551.967 662.469 558.276C664.181 563.894 656.295 568.762 652.206 564.165C648.957 560.513 645.348 557.491 641.384 555.08C641.133 555.415 640.681 555.58 640.174 555.3C629.134 549.26 610.381 551.088 599.353 556.777C585.635 563.846 580.281 578.358 581.803 593.065C583.265 607.118 589.503 623.543 601.6 630.745C607.151 634.049 611.474 634.327 617.369 632.742C619.253 632.237 621.59 630.69 622.593 629.921L623.58 629.141C627.445 626.131 631.044 624.07 635.606 623.991C640.271 622.557 644.961 624.546 646.745 629.368L646.855 629.68C647.69 632.137 649.213 635.223 648.881 638.975C648.537 642.994 646.671 646.649 643.883 649.591C643.404 650.099 642.888 650.607 642.36 651.08C690.378 702.316 696.543 782.154 671.92 846.161C670.852 848.969 669.709 851.741 668.518 854.488C664.404 863.905 648.562 860.988 646.548 851.656C645.946 848.86 645.283 846.076 644.558 843.316C643.227 838.216 641.701 833.164 639.981 828.186L639.327 826.322C637.865 822.207 636.502 818.055 635.028 813.94L634.881 813.469C634.826 813.283 634.764 813.068 634.697 812.826L632.204 818.188L624.627 834.371C621.081 841.923 609.815 837.819 609.396 830.542L609.386 830.292C609.349 828.949 609.3 827.617 609.214 826.298C608.674 816.409 606.942 806.798 604.191 797.393L603.199 798.609C588.42 816.617 571.076 833.496 547.282 837.652C541.314 838.692 534.559 832.544 538.661 826.601C540.356 824.143 541.989 821.626 543.536 819.072C542.198 818.454 540.933 817.813 539.766 817.159C530.74 812.16 523.224 805.043 517.01 796.97C503.832 779.855 499.117 758.309 497.962 737.224C496.734 714.941 498.724 691.447 504.901 669.95C507.578 660.654 511.201 651.733 515.389 643.079C515.094 642.304 514.812 641.529 514.529 640.755C510.01 628.336 506.301 615.639 503.218 602.796C497.004 576.87 493.664 550.12 493.259 523.478C492.522 475.752 500.873 427.263 518.471 382.757C536.647 336.858 563.984 292.642 601.183 259.295ZM578.549 676.571C575.211 671.391 566.861 676.059 569.96 681.274L570.075 681.461C575.368 689.679 577.849 699.024 580.895 708.186C582.847 714.081 592.34 711.564 590.363 705.608L589.709 703.62C586.678 694.328 583.913 684.885 578.549 676.571ZM607.618 577.705L609.835 576.647C616.829 573.357 622.958 571.117 631.221 573.989C642.286 577.826 654.137 590.039 646.658 601.888C643.907 606.258 639.02 608.001 633.985 606.972C625.496 605.237 623.306 597.703 618.998 591.519L618.257 590.471C615.63 586.729 612.309 581.556 607.937 580.089C606.942 579.75 606.525 578.225 607.618 577.705ZM613.855 326.111L614.569 325.48C619.321 321.341 612.346 314.514 607.618 318.629C585.979 337.475 578.463 366.973 567.238 392.113C564.721 397.766 573.182 402.704 575.724 397.003C586.432 373.013 593.539 344.316 613.855 326.111ZM873.89 317.867C868.236 315.356 863.29 323.465 868.725 326.135L868.929 326.231C888.038 334.74 896.168 354.009 903.954 371.899C906.435 377.612 914.896 372.686 912.44 367.021L911.035 363.811C902.911 345.375 893.435 326.583 873.89 317.867ZM903.843 306.223C897.85 304.177 895.284 313.521 901.228 315.567C917.426 321.123 928.54 333.106 937.91 346.808C941.423 351.94 949.933 347.098 946.384 341.918C935.503 326.013 922.584 312.662 903.843 306.223Z" fill="black"/>
<path fill-rule="evenodd" clip-rule="evenodd" d="M870.955 706.809C862.699 703.489 855.333 697.952 849.948 690.879C848.076 688.42 847.59 685.824 847.983 683.449C848.425 680.779 850.028 678.358 852.214 676.735C854.406 675.107 857.149 674.304 859.801 674.713C862.105 675.069 864.399 676.312 866.214 678.891L866.594 679.407C869.795 683.676 873.967 687.179 878.721 689.436C883.303 691.612 888.427 692.628 893.73 692.037C903.83 690.913 910.791 685.53 918.19 678.219C919.107 677.296 920.024 676.344 920.947 675.377C921.529 674.5 922.337 673.937 923.234 673.641C924.231 673.313 925.358 673.331 926.39 673.686C927.386 674.029 928.276 674.678 928.872 675.541C929.44 676.362 929.761 677.376 929.657 678.543C928.98 686.119 924.961 692.88 919.252 698.189C912.913 704.086 904.508 708.165 896.596 709.596C887.88 711.172 878.998 710.042 870.955 706.809ZM900.708 589.933C909.982 595.488 924.113 608.443 914.136 622.217C902.393 634.362 885.485 620.437 877.154 614.139C869.428 609.259 860.748 621.811 867.916 627.51C928.121 671.442 952.554 591.385 905.399 583.4C900.207 582.52 898.279 588.214 900.708 589.933ZM792.82 538.828C793.845 526.293 813.215 523.446 815.142 535.851C816.867 546.962 814.836 557.17 809.758 567.174C804.906 576.731 792.71 572.272 791.788 563.569C790.552 551.903 792.183 546.626 792.82 538.828ZM940.268 533.279C942.969 529.793 946.868 527.413 951.54 528.758C966.135 532.962 961.833 553.385 956.707 563.326C953.922 568.724 944.919 570.093 940.85 565.34C934.219 557.589 931.043 542.109 939.474 534.473C939.702 534.079 939.956 533.681 940.268 533.279ZM809.552 483.978L811.858 483.58C818.99 482.364 827.859 481.196 832.904 486.848C835.58 489.844 836.501 495.415 832.904 498.283C826.577 503.331 819.582 501.375 812 501.802C805.751 502.156 799.746 503.175 793.727 504.87C780.523 508.59 769.764 515.38 758.486 522.837C757.006 523.815 755.496 521.949 756.202 520.585C762.712 508.018 775.328 497.694 787.965 491.401C794.71 488.042 802.091 485.256 809.552 483.978ZM926.963 478.348L928.728 478.704C947.932 482.66 972.882 490.563 981.976 509.155C982.322 511.783 981.956 512.347 981.658 512.715L981.559 512.837C981.314 513.152 981.118 513.585 979.962 513.943C979.641 513.867 979.317 513.788 978.99 513.703C974.821 512.626 971.523 511.143 968.33 509.604L964.868 507.923C960.852 505.982 956.8 504.112 952.506 502.731C943.342 499.785 933.916 497.709 924.344 496.601C922.269 496.361 920.271 495.671 918.695 494.488C917.199 493.366 916.056 491.811 915.535 489.745C914.86 487.071 915.054 485.047 916.509 482.635C917.604 480.823 919.17 479.568 920.968 478.847C922.801 478.112 924.889 477.938 926.963 478.348Z" fill="black"/>
<path fill-rule="evenodd" clip-rule="evenodd" d="M1004.26 600.767C995.991 611.715 980.662 615.202 966.523 613.998C936.028 611.105 926.431 576.97 925.431 550.439C945.88 556.109 923.702 515.955 993.603 511.539C1018.24 509.516 1011.45 524.183 1022.34 534.9C1022.11 557.392 1018.32 581.831 1004.26 600.767ZM859.013 574.922C841.009 658.02 742.421 638.254 732.065 563.347C741.628 556.695 739.109 540.268 750.989 534.317C769.818 522.46 793.356 522.967 814.738 523.245C842.069 525.096 849.857 536.255 863.897 548.429C863.221 556.56 861.274 566.198 859.013 574.922ZM1043.31 497.777C1042.3 497.611 1041.29 497.455 1040.28 497.309C1039.49 496.867 1038.56 496.527 1037.48 496.322C1035.02 495.706 1032.58 495.291 1030.13 495.067C995.095 487.295 914.033 498.33 910.688 527.801C899.53 531.472 889.874 528.185 876.941 528.512C867.097 487.957 696.906 493.681 688.721 518.131C688.69 518.123 688.659 518.115 688.627 518.106C680.763 515.707 669.168 516.285 660.167 515.905C640.946 515.508 621.703 517.197 602.897 521.192C567.682 526.708 519.621 533.166 544.113 576.508C544.118 576.515 544.121 576.524 544.128 576.531L544.131 576.527C548.352 580.791 555.516 577.358 555.782 571.585C547.548 551.052 566.146 548.586 580.455 542.685C616.061 530.078 652.312 528.33 689.137 532.23C691.908 535.445 696.111 538.248 700.555 539.715C725.176 543.743 712.2 561.745 727.764 564.363C724.905 627.113 802.202 661.365 846.989 620.115C864.871 602.884 869.133 577.358 873.279 554.349C875.471 553.864 876.865 552.682 877.68 551.118C882.952 545.931 886.264 541.14 896.689 539.715C907.114 538.292 915.14 541.149 916.225 542.025C916.499 542.568 916.793 543.113 917.134 543.657C917.611 544.47 918.259 545.117 918.996 545.627C908.701 608.113 957.919 647.63 1007.61 615.222C1029.2 595.205 1033.76 564.56 1034.66 537.207C1037.59 535.467 1039.44 532.093 1038.43 527.852C1037.03 522.006 1040.3 516.944 1045.52 514.402C1052.29 511.101 1051.09 499.047 1043.31 497.777Z" fill="black"/>
</g>
</svg>
