<svg width="235" height="177" viewBox="0 0 235 177" fill="none" xmlns="http://www.w3.org/2000/svg">
<path d="M189.334 26.0376H79.6768V132.404H189.334V26.0376Z" fill="white"/>
<path d="M189.334 26.0376V132.41H79.6767V26.0376H189.334ZM189.334 25.5034H79.6767C79.5349 25.5034 79.3989 25.5596 79.2987 25.6598C79.1984 25.76 79.1421 25.8959 79.1421 26.0376V132.41C79.1421 132.552 79.1984 132.687 79.2987 132.788C79.3989 132.888 79.5349 132.944 79.6767 132.944H189.334C189.404 132.944 189.473 132.93 189.538 132.903C189.603 132.877 189.662 132.837 189.712 132.788C189.761 132.738 189.801 132.679 189.827 132.614C189.854 132.549 189.868 132.48 189.868 132.41V26.0376C189.868 25.9675 189.854 25.898 189.827 25.8332C189.801 25.7683 189.761 25.7095 189.712 25.6598C189.662 25.6102 189.603 25.5709 189.538 25.544C189.473 25.5172 189.404 25.5034 189.334 25.5034Z" fill="#002947"/>
<path d="M136.465 39.2593H111.502C111.148 39.2593 110.861 39.5458 110.861 39.8992V40.5392C110.861 40.8926 111.148 41.1791 111.502 41.1791H136.465C136.818 41.1791 137.105 40.8926 137.105 40.5392V39.8992C137.105 39.5458 136.818 39.2593 136.465 39.2593Z" fill="#D1D3D4"/>
<path d="M121.507 48.3477H111.684V59.403H121.507V48.3477Z" fill="#D1D3D4"/>
<path d="M174.523 49.1697H127.57C126.772 49.1697 126.125 49.8163 126.125 50.614V50.6198C126.125 51.4175 126.772 52.0641 127.57 52.0641H174.523C175.321 52.0641 175.968 51.4175 175.968 50.6198V50.614C175.968 49.8163 175.321 49.1697 174.523 49.1697Z" fill="#D1D3D4"/>
<path d="M159.665 54.7003H127.57C126.772 54.7003 126.125 55.3469 126.125 56.1445V56.1504C126.125 56.9481 126.772 57.5947 127.57 57.5947H159.665C160.463 57.5947 161.11 56.9481 161.11 56.1504V56.1445C161.11 55.3469 160.463 54.7003 159.665 54.7003Z" fill="#D1D3D4"/>
<path d="M121.507 94.3887H111.684V105.444H121.507V94.3887Z" fill="#D1D3D4"/>
<path d="M174.523 95.2166H127.57C126.772 95.2166 126.125 95.8632 126.125 96.6608V96.6667C126.125 97.4644 126.772 98.111 127.57 98.111H174.523C175.321 98.111 175.968 97.4644 175.968 96.6667V96.6608C175.968 95.8632 175.321 95.2166 174.523 95.2166Z" fill="#D1D3D4"/>
<path d="M159.665 100.741H127.57C126.772 100.741 126.125 101.388 126.125 102.185V102.191C126.125 102.989 126.772 103.636 127.57 103.636H159.665C160.463 103.636 161.11 102.989 161.11 102.191V102.185C161.11 101.388 160.463 100.741 159.665 100.741Z" fill="#D1D3D4"/>
<path d="M121.507 111.538H111.684V122.593H121.507V111.538Z" fill="#D1D3D4"/>
<path d="M174.523 112.366H127.57C126.772 112.366 126.125 113.013 126.125 113.81V113.816C126.125 114.614 126.772 115.26 127.57 115.26H174.523C175.321 115.26 175.968 114.614 175.968 113.816V113.81C175.968 113.013 175.321 112.366 174.523 112.366Z" fill="#D1D3D4"/>
<path d="M159.665 117.891H127.57C126.772 117.891 126.125 118.537 126.125 119.335V119.341C126.125 120.139 126.772 120.785 127.57 120.785H159.665C160.463 120.785 161.11 120.139 161.11 119.341V119.335C161.11 118.537 160.463 117.891 159.665 117.891Z" fill="#D1D3D4"/>
<path d="M84.1066 30.94C84.7556 30.94 85.2816 30.4143 85.2816 29.7658C85.2816 29.1173 84.7556 28.5916 84.1066 28.5916C83.4577 28.5916 82.9316 29.1173 82.9316 29.7658C82.9316 30.4143 83.4577 30.94 84.1066 30.94Z" fill="#F8A8C3"/>
<path d="M88.2189 30.94C88.8679 30.94 89.394 30.4143 89.394 29.7658C89.394 29.1173 88.8679 28.5916 88.2189 28.5916C87.57 28.5916 87.0439 29.1173 87.0439 29.7658C87.0439 30.4143 87.57 30.94 88.2189 30.94Z" fill="#D1D3D4"/>
<path d="M92.3317 30.94C92.9807 30.94 93.5067 30.4143 93.5067 29.7658C93.5067 29.1173 92.9807 28.5916 92.3317 28.5916C91.6828 28.5916 91.1567 29.1173 91.1567 29.7658C91.1567 30.4143 91.6828 30.94 92.3317 30.94Z" fill="#D1D3D4"/>
<path d="M103.295 33.4998H102.707V132.41H103.295V33.4998Z" fill="#D1D3D4"/>
<path d="M189.334 33.2062H79.6768V33.7933H189.334V33.2062Z" fill="#D1D3D4"/>
<path d="M204.714 144.757H39.4329C39.355 144.757 39.2803 144.726 39.2252 144.671C39.1701 144.616 39.1392 144.541 39.1392 144.463C39.1392 144.385 39.1701 144.311 39.2252 144.256C39.2803 144.201 39.355 144.17 39.4329 144.17H204.714C204.792 144.17 204.867 144.201 204.922 144.256C204.977 144.311 205.008 144.385 205.008 144.463C205.007 144.541 204.975 144.614 204.92 144.669C204.866 144.724 204.792 144.755 204.714 144.757Z" fill="#D1D3D4"/>
<path d="M186.76 113.91C186.837 112.825 186.607 111.741 186.097 110.781C185.592 110.145 185.121 109.482 184.687 108.796C184.099 107.522 184.51 106.031 184.369 104.634C184.249 103.463 183.733 102.367 182.906 101.528C182.172 100.788 181.232 100.283 180.556 99.5142C179.381 98.246 179.082 96.473 178.436 94.8937C177.509 92.6676 175.909 90.787 173.859 89.5157C175.104 92.0227 172.261 95.2107 173.548 97.7C173.959 98.4926 174.723 99.068 175.04 99.9017C175.762 101.921 173.354 104.111 174.123 106.107C174.505 107.111 175.58 107.687 176.08 108.638C176.749 109.918 176.221 111.468 176.279 112.912C176.35 114.902 177.566 116.681 179.005 118.061C179.904 118.918 180.903 119.664 181.872 120.439C183.047 121.366 183.517 122.341 184.54 120.85C185.936 118.8 186.708 116.389 186.76 113.91Z" fill="#002947"/>
<path d="M188.053 115.049C187.683 113.511 187.418 111.838 188.053 110.387C188.764 108.743 190.538 107.581 190.744 105.802C190.879 104.628 190.285 103.454 190.52 102.279C190.755 101.105 191.695 100.348 192.471 99.4965C194.254 97.5356 195.315 95.0256 195.479 92.3808C196.677 93.7983 197.644 95.3951 198.346 97.1129C198.933 98.8742 198.969 100.923 197.929 102.456C197.631 102.81 197.385 103.205 197.2 103.63C196.854 104.763 197.823 105.82 198.322 106.894C198.634 107.514 198.767 108.208 198.708 108.899C198.649 109.591 198.4 110.252 197.988 110.81C196.971 112.078 195.003 112.571 194.504 114.121C194.379 114.7 194.32 115.291 194.327 115.883C194.222 116.905 193.812 117.873 193.152 118.661C192.491 119.449 191.609 120.021 190.62 120.304C189.416 120.591 189.445 120.116 189.222 119.129C188.905 117.726 188.382 116.411 188.053 115.049Z" fill="#002947"/>
<path d="M184.217 103.97C183.365 101.035 183.042 97.9173 182.119 94.9758C181.349 92.6739 180.413 90.4311 179.317 88.2652L182.989 89.8152C184.164 90.3083 185.439 90.8954 185.997 92.0462C186.966 94.0482 185.227 96.6139 186.244 98.5924C186.683 99.2345 187.168 99.8447 187.695 100.418C188.776 101.939 188.611 104.023 188.018 105.79C187.765 106.548 186.649 110.487 185.668 109.389C185.268 108.949 185.233 107.323 185.08 106.724C184.798 105.802 184.475 104.892 184.217 103.97Z" fill="#002947"/>
<path d="M186.238 143.289C185.503 138.451 183.212 121.402 183.188 121.231L183.776 121.149C183.776 121.319 186.091 138.369 186.825 143.201L186.238 143.289Z" fill="#002947"/>
<path d="M187.066 147.857H186.479C186.52 142.115 188.911 120.175 190.291 118.666L190.726 119.065C189.81 120.063 187.119 139.989 187.066 147.857Z" fill="#002947"/>
<path d="M188.311 146.765L187.724 146.735C188.27 134.353 185.644 108.338 185.615 108.08L186.202 108.021C186.238 108.28 188.858 134.336 188.311 146.765Z" fill="#002947"/>
<path d="M179.934 129.427H193.605L192.647 144.95C192.483 147.634 190.491 149.718 188.094 149.718H185.444C183.047 149.718 181.056 147.634 180.891 144.95L179.934 129.427Z" fill="white"/>
<path d="M188.094 150.023H185.444C182.895 150.023 180.744 147.798 180.586 144.968L179.628 129.445C179.625 129.404 179.631 129.363 179.645 129.325C179.659 129.286 179.682 129.251 179.71 129.222C179.74 129.192 179.774 129.168 179.813 129.152C179.851 129.136 179.892 129.128 179.934 129.128H193.605C193.646 129.128 193.688 129.136 193.726 129.152C193.764 129.168 193.799 129.192 193.828 129.222C193.857 129.251 193.879 129.286 193.893 129.325C193.908 129.363 193.913 129.404 193.91 129.445L192.953 144.968C192.776 147.798 190.644 150.023 188.094 150.023ZM180.257 129.733L181.191 144.933C181.344 147.446 183.218 149.412 185.444 149.412H188.094C190.321 149.412 192.207 147.446 192.348 144.933L193.288 129.733H180.257Z" fill="#002947"/>
<path d="M72.2628 139.989C72.1805 140.506 72.6975 146.536 72.6975 146.536C72.6975 146.536 80.0765 147.804 80.1176 147.316C80.1588 146.829 82.3501 144.581 82.3501 144.581L79.3774 143.195L79.113 135.915L72.2628 139.989Z" fill="white"/>
<path d="M79.5242 147.681C77.2192 147.526 74.9257 147.231 72.6563 146.8C72.5973 146.789 72.5436 146.758 72.5033 146.714C72.463 146.669 72.4383 146.613 72.433 146.553C72.3802 145.966 71.9102 140.483 71.9983 139.948C72.0038 139.91 72.0177 139.873 72.039 139.841C72.0603 139.808 72.0885 139.781 72.1217 139.76L78.9778 135.686C79.018 135.663 79.0636 135.651 79.11 135.651C79.1564 135.651 79.202 135.663 79.2422 135.686C79.2825 135.71 79.3165 135.743 79.3411 135.783C79.3656 135.823 79.3801 135.868 79.3831 135.915L79.6358 143.025L82.4675 144.346C82.5063 144.363 82.5402 144.39 82.5658 144.424C82.5915 144.458 82.6082 144.497 82.6144 144.539C82.622 144.581 82.6196 144.625 82.6074 144.665C82.5951 144.706 82.5734 144.744 82.5439 144.774C81.551 145.796 80.4407 147.07 80.3819 147.352C80.3772 147.396 80.3633 147.439 80.341 147.477C80.3187 147.515 80.2886 147.549 80.2527 147.575C80.0229 147.672 79.772 147.708 79.5242 147.681ZM72.95 146.307C75.9815 146.817 79.2715 147.252 79.8884 147.146C80.4531 146.239 81.1279 145.405 81.8976 144.663L79.2598 143.436C79.2153 143.414 79.1775 143.381 79.1506 143.34C79.1236 143.298 79.1086 143.25 79.107 143.201L78.8603 136.379L72.5212 140.166C72.5094 140.87 72.762 144.134 72.95 146.307Z" fill="#002947"/>
<path d="M49.9023 140.512L48.8271 147.956H53.7151L56.5763 139.989L49.9023 140.512Z" fill="white"/>
<path d="M53.7151 148.227H48.8271C48.7881 148.226 48.7498 148.217 48.7144 148.201C48.679 148.185 48.6474 148.162 48.6214 148.133C48.5977 148.103 48.5802 148.069 48.5701 148.033C48.56 147.997 48.5575 147.959 48.5627 147.921L49.6378 140.471C49.6467 140.411 49.6752 140.356 49.7188 140.315C49.7625 140.273 49.8187 140.248 49.8787 140.242L56.5527 139.719C56.5976 139.716 56.6426 139.724 56.6836 139.742C56.7246 139.761 56.7604 139.789 56.7877 139.825C56.8154 139.86 56.8337 139.902 56.8409 139.946C56.848 139.99 56.8439 140.035 56.8288 140.077L53.9677 148.05C53.9485 148.102 53.9141 148.146 53.8689 148.178C53.8238 148.209 53.7701 148.226 53.7151 148.227ZM49.1384 147.692H53.5271L56.1826 140.289L50.1372 140.758L49.1384 147.692Z" fill="#002947"/>
<path d="M66.2408 39.5C66.0752 39.4788 65.9084 39.469 65.7415 39.4706C64.9531 39.6416 64.1851 39.8955 63.4502 40.228C62.2752 39.406 60.6478 39.5587 59.2907 40.046C55.9185 41.2202 54.0678 44.1557 52.4052 47.1441C51.6591 48.4886 50.5722 49.9153 50.02 51.3243C49.1798 53.4497 49.0858 55.2756 47.5995 57.1954C46.1953 59.0213 44.4622 60.5654 42.9523 62.3091C40.9078 64.6576 39.2511 67.4933 38.8398 70.5932C37.9468 77.2275 44.286 83.7503 50.7308 83.263C57.1757 82.7757 64.1552 81.1142 68.0915 75.977C72.439 70.3114 72.8678 61.6692 72.204 54.8411C71.8397 51.2656 71.9337 47.4494 70.4003 44.1205C69.814 42.7104 69.0221 41.3947 68.0503 40.2163C67.5461 39.7789 66.9079 39.5263 66.2408 39.5Z" fill="white"/>
<path d="M50.0788 83.5742C48.5232 83.5234 46.9937 83.1611 45.5808 82.5086C44.168 81.8561 42.9006 80.9267 41.8538 79.7756C40.6618 78.5802 39.7521 77.1339 39.191 75.5422C38.63 73.9505 38.4317 72.2537 38.6108 70.5756C38.9927 67.7516 40.3733 64.9159 42.7938 62.1506C43.3813 61.4344 44.0804 60.7416 44.7267 60.0664C45.6823 59.1109 46.5845 58.1034 47.4292 57.0487C48.2327 55.9125 48.8056 54.63 49.1153 53.2736C49.3092 52.6278 49.5031 51.9584 49.7792 51.2598C50.2031 50.2898 50.7144 49.3603 51.3067 48.4828C51.624 47.9837 51.8942 47.514 52.1821 47.0444C53.8447 44.0677 55.7482 41.0617 59.2321 39.8229C60.2073 39.4707 62.0403 39.0362 63.4973 39.9462C64.2225 39.6289 64.9733 39.3736 65.7416 39.183C65.9002 39.183 66.0882 39.183 66.2703 39.183C66.9921 39.2419 67.6749 39.5346 68.215 40.0167C69.2261 41.206 70.0394 42.55 70.6237 43.9973C71.8398 46.6275 72.0513 49.5572 72.257 52.3929C72.3157 53.2031 72.3745 54.0075 72.4567 54.8059C72.9913 60.0488 73.1676 69.7948 68.3442 76.1121C65.0248 80.4449 59.2791 82.8579 50.7897 83.5038C50.5253 83.5625 50.3079 83.5742 50.0788 83.5742ZM61.4293 39.911C60.7347 39.9246 60.0474 40.0556 59.3966 40.2985C56.1066 41.4727 54.2618 44.4082 52.6521 47.2792C52.3818 47.7606 52.0646 48.2597 51.7649 48.7411C51.1917 49.5902 50.6943 50.488 50.2786 51.4242C50.0083 52.1052 49.8203 52.7569 49.6323 53.391C49.3024 54.8293 48.6871 56.1869 47.8228 57.3833C46.971 58.4593 46.0568 59.4846 45.0851 60.4539C44.4447 61.1173 43.7808 61.8042 43.1698 62.5146C40.8198 65.1977 39.4803 67.9395 39.1161 70.6578C38.9463 72.2567 39.1367 73.8733 39.6735 75.389C40.2102 76.9048 41.0797 78.2812 42.2181 79.4175C44.5681 81.9009 47.7523 83.2513 50.7251 83.0223C59.0558 82.3941 64.6723 80.0457 67.8918 75.8479C72.6271 69.6715 72.445 60.084 71.9221 54.9175C71.8398 54.119 71.7811 53.3029 71.7223 52.4927C71.5167 49.704 71.3111 46.8213 70.1361 44.2732C69.5732 42.8848 68.7961 41.5932 67.8331 40.4453C67.3798 40.0509 66.8109 39.814 66.2116 39.7701C66.0471 39.7701 65.8826 39.7701 65.7416 39.7701C65.0337 39.9475 64.3389 40.1731 63.6618 40.4453C63.6179 40.4935 63.5581 40.5242 63.4933 40.5317C63.4285 40.5393 63.3632 40.5232 63.3093 40.4864C62.7573 40.1048 62.1005 39.9037 61.4293 39.911Z" fill="#002947"/>
<path d="M75.8228 85.1359L70.8467 59.0448L56.5293 60.1838L56.5763 82.5526L75.8228 85.1359Z" fill="white"/>
<path d="M75.823 85.4001H75.7878L56.5413 82.8168C56.4764 82.8096 56.4164 82.7786 56.3731 82.7298C56.3297 82.681 56.3059 82.6179 56.3063 82.5526L56.2593 60.1838C56.2605 60.1171 56.2864 60.0532 56.3319 60.0044C56.3775 59.9556 56.4395 59.9254 56.506 59.9196L70.8234 58.7806C70.8897 58.775 70.9558 58.7941 71.0089 58.8342C71.062 58.8743 71.0985 58.9326 71.1113 58.9978L76.0815 85.083C76.0899 85.1245 76.0884 85.1674 76.0772 85.2082C76.066 85.249 76.0453 85.2865 76.0169 85.3179C75.9657 85.3698 75.896 85.3994 75.823 85.4001ZM56.8468 82.3178L75.4881 84.8188L70.6295 59.3325L56.7939 60.4363L56.8468 82.3178Z" fill="#002947"/>
<path d="M56.5763 82.5526C56.5763 82.5526 50.5661 124.948 48.8271 140.888L56.5293 142.097C56.5293 142.097 61.7815 119.94 66.7518 105.597L71.5281 142.097L80.1174 140.987L77.456 82.5526H56.5763Z" fill="#002947"/>
<path d="M44.4858 72.4015L53.2278 74.9378L51.9412 96.7195L61.9287 96.426L59.9253 61.5224L68.0681 61.1995C68.0681 61.5107 70.659 89.9267 71.4991 96.7019L81.234 93.7311L77.2448 73.6227L82.7086 70.8281C82.7086 70.8281 79.3128 57.3833 68.0563 58.035C57.6635 58.6221 61.2942 58.6221 61.4998 58.6221C61.2942 58.6221 53.2748 58.6573 49.5795 63.5949C47.5022 66.2943 45.7897 69.2553 44.4858 72.4015Z" fill="#F8A8C3"/>
<path d="M66.8928 56.5848L67.8269 61.6398C67.8269 61.6398 67.8798 64.5754 64.6251 64.3347C63.6618 64.2533 62.7286 63.9588 61.8934 63.4723C61.0581 62.9859 60.3416 62.3199 59.7958 61.5224C59.4472 59.4362 59.1026 57.35 58.7618 55.2639C58.3799 52.9506 57.7454 50.52 57.6221 48.1775C60.0661 48.9583 63.0799 45.876 63.8496 43.874C64.042 44.494 64.0711 45.1531 63.9343 45.7876C63.7974 46.4221 63.4991 47.0107 63.0682 47.4964C63.7493 47.2555 64.3651 46.8596 64.8667 46.3399C65.3684 45.8202 65.7422 45.1911 65.9587 44.5022C66.6783 45.0559 67.354 45.6644 67.9797 46.3222C68.5155 47.0847 68.9279 47.9267 69.2017 48.8174C69.6776 50.3791 70.0829 52.7217 69.2898 54.2364C68.2617 56.2091 66.8928 56.5848 66.8928 56.5848Z" fill="white"/>
<path d="M65.0012 64.6165H64.6017C63.596 64.5355 62.6214 64.2296 61.7499 63.7215C60.8784 63.2134 60.1323 62.516 59.5668 61.681C59.549 61.6502 59.5371 61.6163 59.5316 61.5812L58.4976 55.3108C58.3742 54.577 58.2332 53.8372 58.0863 53.0916C57.7284 51.4766 57.485 49.8384 57.3578 48.1892C57.3554 48.1462 57.3638 48.1032 57.3823 48.0642C57.4008 48.0253 57.4287 47.9915 57.4636 47.9661C57.4972 47.9399 57.5365 47.9219 57.5784 47.9137C57.6202 47.9056 57.6634 47.9074 57.7045 47.9192C59.9605 48.6472 62.8745 45.6647 63.5795 43.7742C63.5989 43.723 63.6335 43.6789 63.6786 43.6478C63.7238 43.6167 63.7773 43.6 63.8321 43.6C63.8869 43.6 63.9404 43.6167 63.9855 43.6478C64.0306 43.6789 64.0652 43.723 64.0847 43.7742C64.4019 44.7794 64.3133 45.8687 63.838 46.8095C64.7179 46.2525 65.3716 45.4016 65.6827 44.4083C65.6979 44.3592 65.7261 44.3153 65.7644 44.2812C65.8027 44.247 65.8496 44.224 65.9001 44.2145C66.2467 44.1558 68.162 46.1285 68.1796 46.1461C68.7339 46.9325 69.1584 47.8027 69.4368 48.7235C69.7717 49.8155 70.4473 52.5456 69.5132 54.3421C69.0283 55.3865 68.1985 56.2324 67.1632 56.7375C67.3453 57.718 68.0562 61.5753 68.0562 61.5753C68.0635 62.4165 67.7384 63.2267 67.1515 63.8298C66.5636 64.3602 65.7928 64.6421 65.0012 64.6165ZM60.0545 61.4226C60.5794 62.1715 61.2624 62.7962 62.0552 63.2526C62.8479 63.7091 63.7312 63.9863 64.6428 64.0646C65.0252 64.127 65.4165 64.1069 65.7904 64.0057C66.1643 63.9044 66.5122 63.7243 66.8107 63.4775C67.2801 62.9889 67.5467 62.3406 67.5568 61.6634C67.5568 61.6634 66.6403 56.7023 66.6286 56.6553C66.6158 56.5886 66.6287 56.5195 66.6646 56.4618C66.7005 56.4042 66.7569 56.3621 66.8225 56.3442C66.8225 56.3442 68.1032 55.9567 69.055 54.1308C69.8951 52.5103 69.2547 49.9447 68.9433 48.9172C68.6837 48.0533 68.287 47.2366 67.7683 46.4984C67.6508 46.3457 66.5933 45.3594 66.0998 44.9425C65.84 45.5953 65.4435 46.1851 64.9369 46.6722C64.4302 47.1592 63.8252 47.5324 63.1623 47.7665C63.1062 47.7877 63.0445 47.7888 62.9877 47.7695C62.9308 47.7502 62.8825 47.7118 62.851 47.6608C62.8138 47.6141 62.7935 47.5561 62.7935 47.4964C62.7935 47.4367 62.8138 47.3788 62.851 47.332C63.1668 46.9788 63.4073 46.565 63.5578 46.1158C63.7083 45.6666 63.7656 45.1915 63.7263 44.7194C62.6512 46.5982 60.1485 48.9349 57.8983 48.5415C58.0407 50.0412 58.2722 51.5312 58.5916 53.0035C58.7385 53.755 58.8853 54.5065 59.0087 55.2404L60.0545 61.4226Z" fill="#002947"/>
<path d="M58.9674 51.6531C58.8162 51.2933 58.5496 50.9938 58.2096 50.8018C57.8859 50.6346 57.5363 50.5235 57.1755 50.473C56.9821 50.43 56.7815 50.43 56.588 50.473C56.4532 50.5144 56.3289 50.5845 56.2238 50.6785C55.952 50.8708 55.7581 51.1541 55.6774 51.477C55.6413 51.741 55.6737 52.0099 55.7714 52.2578C55.8483 52.5382 55.963 52.8068 56.1122 53.0563C56.2684 53.3004 56.4714 53.5112 56.7096 53.6766C56.9477 53.8419 57.2163 53.9585 57.4997 54.0196C57.7832 54.0807 58.0759 54.0852 58.3611 54.0327C58.6463 53.9802 58.9182 53.8719 59.1613 53.7139" fill="white"/>
<path d="M57.9509 54.2951C57.5439 54.2955 57.1436 54.1929 56.7871 53.9968C56.4306 53.8007 56.1296 53.5175 55.9122 53.1737C55.7498 52.9078 55.6233 52.6216 55.5362 52.3224C55.4356 52.0344 55.4034 51.7268 55.4422 51.4242C55.53 51.0464 55.7537 50.7142 56.0709 50.4907C56.2009 50.3783 56.353 50.2943 56.5174 50.2441C56.7454 50.1912 56.9826 50.1912 57.2106 50.2441C57.5997 50.2985 57.977 50.4176 58.3269 50.5963C58.7106 50.8147 59.012 51.153 59.1846 51.5592C59.1971 51.5873 59.2038 51.6176 59.2044 51.6483C59.2049 51.679 59.1992 51.7095 59.1877 51.738C59.1762 51.7665 59.1591 51.7924 59.1374 51.8141C59.1156 51.8358 59.0897 51.853 59.0613 51.8645C59.0335 51.8771 59.0035 51.8841 58.9731 51.8851C58.9426 51.886 58.9123 51.8809 58.8838 51.8699C58.8554 51.859 58.8294 51.8425 58.8074 51.8214C58.7854 51.8003 58.7678 51.775 58.7558 51.7471C58.6195 51.4343 58.3869 51.173 58.0919 51.0014C57.7918 50.8495 57.4679 50.7502 57.1342 50.7079C56.9739 50.6704 56.807 50.6704 56.6466 50.7079C56.5405 50.7426 56.4425 50.7985 56.3587 50.8723C56.1369 51.0266 55.975 51.2526 55.9005 51.5122C55.8749 51.7411 55.9051 51.9728 55.9886 52.1874C56.0587 52.4459 56.1655 52.6931 56.3059 52.9213C56.4495 53.1421 56.6357 53.3321 56.8535 53.4803C57.0714 53.6285 57.3166 53.7318 57.5749 53.7843C58.0855 53.8921 58.618 53.7929 59.0554 53.5084C59.1086 53.4749 59.1728 53.4635 59.2342 53.4767C59.2957 53.4899 59.3496 53.5265 59.3844 53.5788C59.4176 53.6311 59.4288 53.6943 59.4156 53.7548C59.4024 53.8153 59.3658 53.8681 59.3139 53.9018C58.9085 54.1647 58.4341 54.3016 57.9509 54.2951Z" fill="#002947"/>
<path d="M67.1751 58.5927C67.1751 58.5927 65.207 59.5791 63.609 58.4753C63.1626 58.1999 62.7812 57.831 62.4912 57.3942C62.2011 56.9574 62.0092 56.4629 61.9287 55.9449C61.9287 55.9449 64.9132 57.4361 66.899 56.6905L67.1751 58.5927Z" fill="#002947"/>
<path d="M65.3711 59.262C64.6893 59.2677 64.0224 59.0626 63.4617 58.6749C62.9871 58.3766 62.5834 57.9782 62.2789 57.5076C61.9745 57.0371 61.7766 56.5057 61.6992 55.9507C61.6964 55.9055 61.7059 55.8605 61.7266 55.8202C61.7472 55.7799 61.7784 55.7459 61.8167 55.7218C61.8558 55.6985 61.9005 55.6862 61.946 55.6862C61.9915 55.6862 62.0361 55.6985 62.0752 55.7218C62.0752 55.7218 64.9775 57.1484 66.834 56.4498C66.869 56.4339 66.9071 56.4257 66.9456 56.4257C66.9841 56.4257 67.0221 56.4339 67.0572 56.4498C67.0916 56.4678 67.1212 56.4937 67.1436 56.5253C67.1661 56.557 67.1808 56.5934 67.1865 56.6318L67.4567 58.5399C67.4654 58.5934 67.457 58.6482 67.4327 58.6967C67.4085 58.7452 67.3696 58.7848 67.3216 58.81C66.7115 59.0989 66.0462 59.2531 65.3711 59.262ZM62.275 56.3911C62.5447 57.1585 63.0612 57.815 63.7437 58.2581C64.9187 59.0859 66.3875 58.628 66.8751 58.4342L66.6753 57.0252C65.1243 57.442 63.1738 56.7609 62.275 56.3911Z" fill="#002947"/>
<path d="M66.1763 48.5062C66.1763 48.5062 68.2971 50.6139 67.9975 51.113C67.6979 51.612 66.5523 51.5533 66.5523 51.5533" fill="white"/>
<path d="M66.6872 51.8176H66.5345C66.5008 51.8161 66.4677 51.8079 66.4372 51.7934C66.4067 51.7789 66.3795 51.7585 66.357 51.7333C66.3346 51.7081 66.3174 51.6787 66.3065 51.6468C66.2956 51.6149 66.2912 51.5811 66.2936 51.5475C66.2935 51.513 66.3005 51.4789 66.3144 51.4474C66.3282 51.4158 66.3485 51.3875 66.374 51.3643C66.3994 51.341 66.4295 51.3234 66.4622 51.3125C66.4949 51.3016 66.5295 51.2976 66.5639 51.3009C66.887 51.3009 67.6037 51.2657 67.7741 50.9897C67.7741 50.749 66.9751 49.6746 66.0116 48.7C65.9632 48.6506 65.936 48.5842 65.936 48.5151C65.936 48.4459 65.9632 48.3795 66.0116 48.3301C66.06 48.2821 66.1255 48.2551 66.1937 48.2551C66.262 48.2551 66.3274 48.2821 66.3759 48.3301C67.4099 49.3576 68.5731 50.6786 68.2324 51.2657C67.8916 51.8528 67.0456 51.8176 66.6872 51.8176Z" fill="#002947"/>
<path d="M63.7164 49.724C63.9246 49.6332 63.9891 49.3211 63.8605 49.0269C63.732 48.7327 63.459 48.5679 63.2509 48.6587C63.0428 48.7495 62.9782 49.0617 63.1068 49.3558C63.2353 49.65 63.5083 49.8149 63.7164 49.724Z" fill="#002947"/>
<path d="M68.2072 48.918C68.4153 48.8271 68.4798 48.515 68.3513 48.2208C68.2227 47.9266 67.9498 47.7618 67.7416 47.8526C67.5335 47.9435 67.469 48.2556 67.5975 48.5498C67.7261 48.844 67.999 49.0088 68.2072 48.918Z" fill="#002947"/>
<path d="M68.767 52.3812C68.767 52.3812 67.733 54.8412 64.7427 53.2736L68.767 52.3812Z" fill="white"/>
<path d="M66.5816 54.0544C65.8943 54.0324 65.2227 53.8429 64.6252 53.5025C64.5951 53.4867 64.5685 53.4652 64.5467 53.439C64.525 53.4129 64.5086 53.3828 64.4985 53.3504C64.4884 53.3179 64.4848 53.2838 64.4879 53.25C64.491 53.2162 64.5007 53.1833 64.5165 53.1532C64.5324 53.1231 64.5539 53.0965 64.5801 53.0747C64.6062 53.053 64.6364 53.0366 64.6688 53.0265C64.7013 53.0165 64.7354 53.0129 64.7693 53.016C64.8031 53.0191 64.836 53.0288 64.8661 53.0446C65.2231 53.2727 65.6241 53.4235 66.043 53.4872C66.4619 53.5509 66.8896 53.5261 67.2984 53.4145C67.8352 53.2037 68.2734 52.7994 68.5262 52.2813C68.5379 52.2481 68.5563 52.2177 68.5802 52.1918C68.6041 52.1659 68.6331 52.1452 68.6653 52.131C68.6975 52.1167 68.7323 52.1091 68.7675 52.1088C68.8027 52.1084 68.8376 52.1153 68.8701 52.1289C68.9026 52.1425 68.932 52.1626 68.9564 52.188C68.9808 52.2134 68.9998 52.2435 69.0122 52.2765C69.0245 52.3094 69.03 52.3446 69.0283 52.3798C69.0265 52.4149 69.0176 52.4494 69.0021 52.481C68.6994 53.1345 68.1535 53.6442 67.4805 53.9018C67.1925 54.0065 66.888 54.0582 66.5816 54.0544Z" fill="#002947"/>
<path d="M76.4219 73.7343C76.4219 73.7343 83.0136 92.099 87.5844 89.9443C89.5642 89.0108 98.9349 74.4564 99.2521 74.157C99.8925 73.5346 100.827 73.611 101.426 72.9828C101.729 72.6308 101.976 72.2348 102.16 71.8085C102.483 71.1803 102.783 70.3408 102.301 69.8241C102.201 69.7243 102.072 69.6245 102.078 69.4836C102.084 69.3427 102.213 69.2664 102.331 69.1959L103.124 68.738C103.306 68.6323 103.517 68.4562 103.464 68.2565C103.412 68.0569 103.088 68.0158 102.877 68.0628C100.633 68.5207 98.0007 69.9826 96.0679 71.1334C96.1825 70.5341 96.259 69.9282 96.297 69.3192C96.297 68.8436 96.2147 68.2272 95.7447 68.145C95.2747 68.0628 94.9634 68.5618 94.7871 68.9904C93.8765 71.1627 93.3125 72.8653 91.8849 74.7558C90.4572 76.6463 88.9474 78.619 87.4786 80.5447C86.7149 80.4214 82.7257 70.7928 82.7257 70.7928" fill="white"/>
<path d="M86.7971 90.3905C86.4675 90.3856 86.1421 90.3157 85.8395 90.185C81.4274 88.3591 76.3749 74.4094 76.1692 73.8223C76.1464 73.7545 76.1508 73.6805 76.1815 73.6159C76.2121 73.5513 76.2667 73.5011 76.3337 73.4759C76.4008 73.4533 76.474 73.4578 76.5377 73.4886C76.6014 73.5193 76.6505 73.5738 76.6745 73.6403C76.7274 73.7812 81.8504 87.9481 86.0745 89.686C86.2963 89.7889 86.5379 89.8423 86.7824 89.8423C87.027 89.8423 87.2686 89.7889 87.4904 89.686C88.9591 88.9932 95.0515 79.9048 97.6541 76.0298C98.7351 74.4094 98.9995 74.0219 99.0817 73.9456C99.422 73.6492 99.8231 73.4308 100.257 73.3057C100.622 73.212 100.961 73.0329 101.244 72.7831C101.524 72.4601 101.755 72.0982 101.931 71.7087C102.342 70.9044 102.401 70.3349 102.107 70.0296L102.066 69.9826C101.987 69.9193 101.925 69.8365 101.888 69.7423C101.85 69.6482 101.837 69.5459 101.851 69.4453C101.865 69.3448 101.904 69.2495 101.965 69.1688C102.027 69.088 102.108 69.0246 102.201 68.9845L102.994 68.5207C103.159 68.4268 103.206 68.3563 103.212 68.3387C103.115 68.3168 103.015 68.3168 102.918 68.3387C100.738 68.7791 98.177 70.194 96.1912 71.3741C96.1487 71.4026 96.0986 71.4178 96.0473 71.4178C95.996 71.4178 95.9459 71.4026 95.9034 71.3741C95.8613 71.3455 95.8284 71.3053 95.8086 71.2584C95.7888 71.2116 95.7829 71.16 95.7917 71.1099C95.9026 70.5278 95.9792 69.9396 96.0209 69.3485C96.0209 69.0433 95.9797 68.5031 95.6801 68.4503C95.3805 68.3974 95.0926 68.9611 95.0221 69.1372C94.8694 69.4895 94.7342 69.83 94.5991 70.1646C93.9905 71.8706 93.1461 73.4832 92.0905 74.9554C90.6257 76.9125 89.155 78.8441 87.6784 80.7502C87.6483 80.7886 87.6084 80.8182 87.5629 80.8357C87.5174 80.8533 87.468 80.8582 87.4199 80.85C86.6326 80.7208 83.9771 74.5856 82.4672 70.9396C82.4529 70.9069 82.4454 70.8717 82.4451 70.8361C82.4448 70.8004 82.4517 70.7651 82.4654 70.7322C82.4792 70.6992 82.4994 70.6694 82.525 70.6446C82.5505 70.6197 82.5808 70.6002 82.6141 70.5873C82.6464 70.5731 82.6812 70.5657 82.7165 70.5654C82.7517 70.5652 82.7867 70.5722 82.8192 70.5859C82.8516 70.5997 82.8809 70.6199 82.9053 70.6454C82.9296 70.6709 82.9485 70.7011 82.9607 70.7341C84.688 74.9026 86.7325 79.3587 87.4199 80.2042C88.8357 78.3548 90.2575 76.4995 91.6616 74.6325C92.6894 73.1881 93.51 71.6072 94.0997 69.9357L94.5227 68.9024C94.8341 68.1626 95.2806 67.8045 95.78 67.8984C96.4027 68.0158 96.5907 68.7262 96.5555 69.3544C96.5304 69.7832 96.4834 70.2104 96.4145 70.6343C98.3532 69.4953 100.733 68.2448 102.812 67.8221C103.276 67.7281 103.635 67.8808 103.729 68.2037C103.776 68.374 103.776 68.6969 103.265 68.9904L102.472 69.4542C102.426 69.4764 102.384 69.5062 102.348 69.5423C102.348 69.5423 102.413 69.5775 102.442 69.6069L102.501 69.6656C103.2 70.4053 102.601 71.5737 102.407 71.9553C102.214 72.399 101.954 72.8108 101.637 73.1765C101.305 73.4859 100.901 73.7096 100.462 73.8282C100.095 73.9255 99.7532 74.1041 99.4636 74.3507C99.3872 74.4388 98.7939 75.3194 98.1065 76.3469C93.5534 83.1397 89.1412 89.5216 87.7312 90.1909C87.4388 90.3266 87.1195 90.3948 86.7971 90.3905Z" fill="#002947"/>
<path d="M52.3582 89.9619C52.287 89.9574 52.2204 89.9255 52.1722 89.873C52.124 89.8205 52.098 89.7513 52.0997 89.6801L53.2277 65.368C53.2361 65.2984 53.2691 65.2341 53.3208 65.1867C53.3726 65.1393 53.4396 65.112 53.5097 65.1097C53.5808 65.1142 53.6475 65.1461 53.6957 65.1986C53.7439 65.2511 53.7698 65.3202 53.7682 65.3915L52.6402 89.7036C52.6357 89.7747 52.6038 89.8413 52.5512 89.8895C52.4986 89.9376 52.4295 89.9636 52.3582 89.9619Z" fill="#002947"/>
<path d="M75.1532 70.3349C75.1008 70.3331 75.05 70.3168 75.0064 70.2877C74.9628 70.2587 74.9282 70.2181 74.9064 70.1705L72.8796 65.4737C72.852 65.4082 72.8513 65.3345 72.8777 65.2686C72.9041 65.2027 72.9554 65.1498 73.0205 65.1214C73.0529 65.107 73.0878 65.0991 73.1232 65.0984C73.1586 65.0977 73.1938 65.1041 73.2266 65.1173C73.2595 65.1304 73.2894 65.15 73.3146 65.1749C73.3397 65.1999 73.3596 65.2296 73.373 65.2623L75.3999 69.9591C75.4144 69.9914 75.4222 70.0263 75.4229 70.0617C75.4236 70.0971 75.4172 70.1323 75.404 70.1651C75.3909 70.198 75.3713 70.2278 75.3463 70.253C75.3214 70.2781 75.2917 70.298 75.2589 70.3114C75.2253 70.3254 75.1895 70.3333 75.1532 70.3349Z" fill="#002947"/>
<path d="M54.6025 144.751C54.6025 144.751 50.2198 142.326 48.3691 144.751C47.2166 146.38 46.519 148.287 46.3481 150.276C46.3481 150.276 55.5719 151.814 55.6424 150.276C55.7129 148.737 54.6025 144.751 54.6025 144.751Z" fill="#002947"/>
<path d="M161.768 61.1819H100.004C98.2035 61.1819 96.7437 62.6407 96.7437 64.4403V79.7345C96.7437 81.5341 98.2035 82.9929 100.004 82.9929H161.768C163.569 82.9929 165.029 81.5341 165.029 79.7345V64.4403C165.029 62.6407 163.569 61.1819 161.768 61.1819Z" fill="white"/>
<path d="M161.762 83.263H100.004C99.0696 83.263 98.173 82.8919 97.5119 82.2312C96.8509 81.5706 96.4795 80.6746 96.4795 79.7404V64.4286C96.4795 63.4943 96.8509 62.5983 97.5119 61.9377C98.173 61.2771 99.0696 60.9059 100.004 60.9059H161.762C162.697 60.9059 163.594 61.2771 164.255 61.9377C164.916 62.5983 165.287 63.4943 165.287 64.4286V79.6934C165.294 80.1599 165.207 80.6231 165.033 81.0559C164.858 81.4887 164.6 81.8826 164.272 82.2147C163.944 82.5468 163.553 82.8105 163.122 82.9904C162.692 83.1704 162.229 83.263 161.762 83.263ZM100.004 61.452C99.2103 61.4535 98.4491 61.7695 97.8875 62.3307C97.326 62.8919 97.0098 63.6526 97.0082 64.4462V79.711C97.0098 80.5046 97.326 81.2654 97.8875 81.8265C98.4491 82.3877 99.2103 82.7037 100.004 82.7053H161.762C162.557 82.7037 163.318 82.3877 163.879 81.8265C164.441 81.2654 164.757 80.5046 164.759 79.711V64.4286C164.757 63.6349 164.441 62.8742 163.879 62.3131C163.318 61.7519 162.557 61.4359 161.762 61.4343L100.004 61.452Z" fill="#002947"/>
<path d="M112.101 66.5598H102.278V77.6151H112.101V66.5598Z" fill="#F8A8C3"/>
<path d="M151.787 67.8808H119.691C118.893 67.8808 118.246 68.5274 118.246 69.3251V69.331C118.246 70.1286 118.893 70.7753 119.691 70.7753H151.787C152.585 70.7753 153.232 70.1286 153.232 69.331V69.3251C153.232 68.5274 152.585 67.8808 151.787 67.8808Z" fill="#D1D3D4"/>
<path d="M141.358 73.4055H119.691C118.893 73.4055 118.246 74.0521 118.246 74.8498V74.8557C118.246 75.6533 118.893 76.3 119.691 76.3H141.358C142.157 76.3 142.804 75.6533 142.804 74.8557V74.8498C142.804 74.0521 142.157 73.4055 141.358 73.4055Z" fill="#D1D3D4"/>
<path d="M69.3297 95.8773L31.9616 105.953C30.7555 106.278 30.0416 107.519 30.3671 108.724L34.8743 125.418C35.1997 126.623 36.4412 127.336 37.6473 127.011L75.0154 116.935C76.2215 116.61 76.9354 115.369 76.61 114.164L72.1027 97.4707C71.7773 96.2655 70.5358 95.5521 69.3297 95.8773Z" fill="white"/>
<path d="M37.0537 127.361C36.4984 127.357 35.9596 127.172 35.5193 126.834C35.0791 126.496 34.7617 126.023 34.6155 125.488L30.1094 108.796C29.9344 108.152 30.0214 107.464 30.3516 106.884C30.6817 106.303 31.2282 105.876 31.8719 105.696L69.2369 95.6217C69.8819 95.4467 70.57 95.5337 71.151 95.8637C71.7321 96.1936 72.1591 96.7397 72.3389 97.383L76.845 114.074C77.0217 114.719 76.9354 115.407 76.605 115.989C76.2746 116.57 75.7271 116.996 75.0825 117.174L37.7175 127.249C37.502 127.315 37.2788 127.352 37.0537 127.361ZM69.9125 96.0679C69.7378 96.0682 69.5639 96.0919 69.3955 96.1383L32.0305 106.213C31.7778 106.281 31.5409 106.398 31.3335 106.558C31.1261 106.718 30.9522 106.917 30.8218 107.143C30.6914 107.37 30.607 107.621 30.5735 107.88C30.5399 108.139 30.5579 108.403 30.6264 108.655L35.1325 125.347C35.1989 125.6 35.3153 125.838 35.4747 126.045C35.634 126.253 35.8333 126.427 36.0608 126.556C36.52 126.82 37.0647 126.892 37.5765 126.756L74.9415 116.681C75.1948 116.613 75.4322 116.495 75.6399 116.335C75.8476 116.175 76.0215 115.975 76.1518 115.748C76.2827 115.522 76.3673 115.272 76.4006 115.013C76.4339 114.754 76.4152 114.491 76.3457 114.239L71.8395 97.5415C71.7247 97.1186 71.4739 96.7451 71.1256 96.4788C70.7773 96.2125 70.3511 96.0681 69.9125 96.0679Z" fill="#002947"/>
<path d="M46.1347 108.18L36.6509 110.738L39.5327 121.411L49.0166 118.854L46.1347 108.18Z" fill="#D1D3D4"/>
<path d="M66.7574 103.193L50.5861 107.553C49.8374 107.755 49.3942 108.525 49.5962 109.274L49.6192 109.359C49.8212 110.107 50.5919 110.55 51.3406 110.348L67.5119 105.987C68.2606 105.786 68.7038 105.015 68.5018 104.267L68.4788 104.182C68.2768 103.434 67.5061 102.991 66.7574 103.193Z" fill="#D1D3D4"/>
<path d="M64.5361 109.516L51.8872 112.926C51.2168 113.107 50.82 113.797 51.0009 114.467L51.1003 114.835C51.2812 115.505 51.9713 115.902 52.6417 115.721L65.2906 112.31C65.961 112.129 66.3578 111.44 66.1769 110.77L66.0774 110.401C65.8966 109.731 65.2065 109.335 64.5361 109.516Z" fill="#D1D3D4"/>
<path d="M44.4857 72.4016C44.4857 72.4016 38.1054 87.6664 38.7634 89.4277C39.4214 91.189 46.0014 102.168 46.0014 102.168C46.0014 102.168 47.9402 108.162 50.5546 106.771C52.2407 105.878 51.3536 100.724 51.3536 100.724L53.2806 100.207C53.2806 100.207 50.1139 98.8977 49.7556 98.2695C49.3972 97.6413 45.9956 88.2887 45.9956 88.2887L51.8353 74.5151" fill="white"/>
<path d="M49.7672 107.252C49.5193 107.249 49.2742 107.199 49.0446 107.105C47.147 106.336 45.8838 102.679 45.7546 102.279C45.3198 101.557 39.1687 91.2653 38.5166 89.5275C37.8645 87.7896 43.5808 73.8752 44.2388 72.3017C44.2661 72.2356 44.3186 72.183 44.3847 72.1555C44.4508 72.128 44.5251 72.1278 44.5913 72.155C44.6565 72.1835 44.7082 72.236 44.7355 72.3016C44.7629 72.3673 44.7638 72.4409 44.7382 72.5072C42.1885 78.6073 38.5636 88.1184 39.016 89.3396C39.6622 91.054 46.1658 101.921 46.2305 102.033C46.2327 102.05 46.2327 102.068 46.2305 102.086C46.2305 102.127 47.4877 105.908 49.2208 106.606C49.4088 106.686 49.6127 106.721 49.8166 106.709C50.0205 106.697 50.2187 106.638 50.3958 106.536C51.6355 105.878 51.2888 102.15 51.0538 100.771C51.044 100.705 51.0581 100.638 51.0938 100.582C51.1294 100.526 51.184 100.484 51.2477 100.465L52.4227 100.148C51.4122 99.702 49.7731 98.9153 49.4852 98.3869C49.1268 97.747 45.8486 88.776 45.7076 88.4061C45.6815 88.3421 45.6815 88.2705 45.7076 88.2065L51.5943 74.4095C51.6273 74.352 51.6802 74.3086 51.7431 74.2876C51.806 74.2666 51.8744 74.2694 51.9353 74.2955C51.9962 74.3216 52.0454 74.3691 52.0736 74.4291C52.1017 74.4891 52.1068 74.5573 52.0878 74.6208L46.2892 88.2945C47.2586 90.9541 49.7202 97.6237 49.9963 98.1169C50.1902 98.4574 51.8705 99.2911 53.3803 99.9369C53.4333 99.9569 53.4784 99.9934 53.5091 100.041C53.5398 100.088 53.5544 100.145 53.5507 100.201C53.5457 100.257 53.5239 100.309 53.4882 100.352C53.4526 100.395 53.4047 100.427 53.351 100.442L51.659 100.9C51.8293 102.033 52.3228 106.113 50.6837 106.988C50.4043 107.149 50.0897 107.24 49.7672 107.252Z" fill="#002947"/>
<path d="M81.369 142.79L79.0484 145.796L71.4579 144.275L71.1348 148.227C71.1348 148.227 87.2675 151.55 87.9255 149.771C88.5835 147.992 81.369 142.79 81.369 142.79Z" fill="#002947"/>
</svg>
